<svg width="77" height="61" viewBox="0 0 77 61" fill="none" xmlns="http://www.w3.org/2000/svg">
<path d="M52.027 45.75C60.9132 45.75 68.1554 38.43 68.1554 29.4483C68.1554 20.4666 60.9132 13.1466 52.027 13.1466C43.1408 13.1466 35.8986 20.4666 35.8986 29.4483C35.8986 38.43 43.1408 45.75 52.027 45.75ZM52.027 18.4052C58.0414 18.4052 62.9527 23.3693 62.9527 29.4483C62.9527 35.5272 58.0414 40.4914 52.027 40.4914C46.0127 40.4914 41.1014 35.5272 41.1014 29.4483C41.1014 23.3693 46.0127 18.4052 52.027 18.4052Z" fill="white"/>
<path d="M61.3919 54.6897C63.1159 54.6897 64.5135 53.277 64.5135 51.5345C64.5135 49.7919 63.1159 48.3793 61.3919 48.3793C59.6679 48.3793 58.2703 49.7919 58.2703 51.5345C58.2703 53.277 59.6679 54.6897 61.3919 54.6897Z" fill="white"/>
<path d="M67.6351 54.6897C69.3592 54.6897 70.7568 53.277 70.7568 51.5345C70.7568 49.7919 69.3592 48.3793 67.6351 48.3793C65.9111 48.3793 64.5135 49.7919 64.5135 51.5345C64.5135 53.277 65.9111 54.6897 67.6351 54.6897Z" fill="white"/>
<path d="M72.3176 0H4.68243C2.10189 0 0 2.12448 0 4.73276V56.2672C0 58.8755 2.10189 61 4.68243 61H72.3176C74.8981 61 77 58.8755 77 56.2672V4.73276C77 2.12448 74.8981 0 72.3176 0ZM71.7973 5.25862V55.7414H5.2027V5.25862H71.7973Z" fill="white"/>
<path d="M20.8108 28.9224C26.2632 28.9224 30.6959 24.4421 30.6959 18.931C30.6959 13.42 26.2632 8.93966 20.8108 8.93966C15.3584 8.93966 10.9257 13.42 10.9257 18.931C10.9257 24.4421 15.3584 28.9224 20.8108 28.9224ZM20.8108 14.1983C23.3914 14.1983 25.4932 16.3228 25.4932 18.931C25.4932 21.5393 23.3914 23.6638 20.8108 23.6638C18.2303 23.6638 16.1284 21.5393 16.1284 18.931C16.1284 16.3228 18.2303 14.1983 20.8108 14.1983Z" fill="white"/>
<path d="M20.8108 52.0603C26.2632 52.0603 30.6959 47.58 30.6959 42.069C30.6959 36.5579 26.2632 32.0776 20.8108 32.0776C15.3584 32.0776 10.9257 36.5579 10.9257 42.069C10.9257 47.58 15.3584 52.0603 20.8108 52.0603ZM20.8108 37.3362C23.3914 37.3362 25.4932 39.4607 25.4932 42.069C25.4932 44.6772 23.3914 46.8017 20.8108 46.8017C18.2303 46.8017 16.1284 44.6772 16.1284 42.069C16.1284 39.4607 18.2303 37.3362 20.8108 37.3362Z" fill="white"/>
</svg>
