<svg width="442" height="219" viewBox="0 0 442 219" fill="none" xmlns="http://www.w3.org/2000/svg">
<rect width="441.215" height="218.267" rx="35" fill="#A30035"/>
<path d="M240.027 98.75C248.913 98.75 256.155 91.43 256.155 82.4483C256.155 73.4666 248.913 66.1466 240.027 66.1466C231.141 66.1466 223.899 73.4666 223.899 82.4483C223.899 91.43 231.141 98.75 240.027 98.75ZM240.027 71.4052C246.041 71.4052 250.953 76.3693 250.953 82.4483C250.953 88.5272 246.041 93.4914 240.027 93.4914C234.013 93.4914 229.101 88.5272 229.101 82.4483C229.101 76.3693 234.013 71.4052 240.027 71.4052Z" fill="white"/>
<path d="M249.392 107.69C251.116 107.69 252.514 106.277 252.514 104.534C252.514 102.792 251.116 101.379 249.392 101.379C247.668 101.379 246.27 102.792 246.27 104.534C246.27 106.277 247.668 107.69 249.392 107.69Z" fill="white"/>
<path d="M255.635 107.69C257.359 107.69 258.757 106.277 258.757 104.534C258.757 102.792 257.359 101.379 255.635 101.379C253.911 101.379 252.514 102.792 252.514 104.534C252.514 106.277 253.911 107.69 255.635 107.69Z" fill="white"/>
<path d="M260.318 53H192.682C190.102 53 188 55.1245 188 57.7328V109.267C188 111.876 190.102 114 192.682 114H260.318C262.898 114 265 111.876 265 109.267V57.7328C265 55.1245 262.898 53 260.318 53ZM259.797 58.2586V108.741H193.203V58.2586H259.797Z" fill="white"/>
<path d="M208.811 81.9224C214.263 81.9224 218.696 77.4421 218.696 71.931C218.696 66.42 214.263 61.9397 208.811 61.9397C203.358 61.9397 198.926 66.42 198.926 71.931C198.926 77.4421 203.358 81.9224 208.811 81.9224ZM208.811 67.1983C211.391 67.1983 213.493 69.3228 213.493 71.931C213.493 74.5393 211.391 76.6638 208.811 76.6638C206.23 76.6638 204.128 74.5393 204.128 71.931C204.128 69.3228 206.23 67.1983 208.811 67.1983Z" fill="white"/>
<path d="M208.811 105.06C214.263 105.06 218.696 100.58 218.696 95.069C218.696 89.5579 214.263 85.0776 208.811 85.0776C203.358 85.0776 198.926 89.5579 198.926 95.069C198.926 100.58 203.358 105.06 208.811 105.06ZM208.811 90.3362C211.391 90.3362 213.493 92.4607 213.493 95.069C213.493 97.6772 211.391 99.8017 208.811 99.8017C206.23 99.8017 204.128 97.6772 204.128 95.069C204.128 92.4607 206.23 90.3362 208.811 90.3362Z" fill="white"/>
<path d="M184.605 170.541C187.357 171.181 189.181 172.845 189.181 175.853C189.181 179.661 185.821 181.645 181.437 181.645H173.885V160.141H180.605C185.053 160.141 188.285 162.029 188.285 165.805C188.285 168.269 186.845 169.805 184.605 170.541ZM181.469 162.733H176.765V169.517H181.469C183.965 169.517 185.309 168.557 185.309 166.029C185.309 163.469 183.965 162.733 181.469 162.733ZM176.765 179.021H182.173C184.797 179.021 186.173 178.253 186.173 175.533C186.173 172.845 184.797 172.013 182.173 172.013H176.765V179.021ZM202.261 175.501V166.125H205.109V181.645H202.677L202.421 179.533C201.365 181.101 199.669 182.061 197.429 182.061C193.749 182.061 191.413 179.309 191.413 175.277V166.125H194.261V175.501C194.261 178.349 195.509 179.469 198.229 179.469C200.917 179.469 202.261 178.349 202.261 175.501ZM211.515 163.245H208.635V160.141H211.515V163.245ZM211.515 181.645H208.635V166.125H211.515V181.645ZM219.938 179.469V181.965H218.722C216.546 181.965 215.042 181.101 215.042 178.701V160.141H217.922V178.221C217.922 179.245 218.242 179.469 219.17 179.469H219.938ZM229.789 166.125V168.653H225.981V177.901C225.981 178.925 226.365 179.149 227.421 179.149H229.789V181.645H227.101C224.989 181.645 223.101 180.685 223.101 178.189V168.653H220.637V166.125H223.101V162.061H225.981V166.125H229.789ZM232.198 174.477V171.885H242.278V174.477H232.198ZM248.768 160.141V181.645H245.792V160.141H248.768ZM259.972 165.709C263.652 165.709 265.988 168.429 265.988 172.461V181.645H263.14V172.237C263.14 169.421 261.892 168.301 259.204 168.301C256.484 168.301 255.14 169.421 255.14 172.237V181.645H252.292V166.125H254.756L255.012 168.237C256.036 166.669 257.732 165.709 259.972 165.709Z" fill="white"/>
</svg>
