<svg width="442" height="219" viewBox="0 0 442 219" fill="none" xmlns="http://www.w3.org/2000/svg">
<rect width="441.215" height="218.267" rx="35" fill="#A30035"/>
<path d="M144.638 160.141C151.39 160.141 155.838 164.205 155.838 170.861C155.838 177.549 151.39 181.645 144.638 181.645H137.854V160.141H144.638ZM140.83 178.989H144.734C150.398 178.989 152.862 176.717 152.862 170.861C152.862 165.069 150.398 162.765 144.734 162.765H140.83V178.989ZM161.453 163.245H158.573V160.141H161.453V163.245ZM161.453 181.645H158.573V166.125H161.453V181.645ZM174.419 177.517C174.419 176.269 173.779 175.725 171.891 175.277L169.139 174.573C166.067 173.837 164.563 172.621 164.563 170.093C164.563 167.437 167.347 165.709 170.739 165.709C174.099 165.709 176.723 167.469 177.171 170.445H174.323C174.035 168.845 172.915 168.205 170.739 168.205C168.467 168.205 167.411 168.845 167.411 170.093C167.411 171.181 167.955 171.661 169.779 172.141L172.595 172.845C175.795 173.677 177.267 174.797 177.267 177.453C177.267 180.333 174.387 182.061 170.835 182.061C167.507 182.061 164.531 180.525 164.019 176.909H166.867C167.187 179.021 168.435 179.565 170.835 179.565C173.203 179.565 174.419 178.893 174.419 177.517ZM187.663 165.709C191.503 165.709 193.839 168.429 193.839 172.461V181.645H190.991V172.237C190.991 169.421 189.743 168.301 186.895 168.301C184.015 168.301 182.671 169.421 182.671 172.237V181.645H179.823V160.141H182.671V168.013C183.727 166.573 185.423 165.709 187.663 165.709ZM220.82 177.805L225.076 160.141H228.148L222.42 181.645H219.22L215.124 165.741L211.028 181.645H207.828L202.1 160.141H205.172L209.428 177.805L213.684 160.141H216.564L220.82 177.805ZM241.062 168.077V166.125H243.942V181.645H241.478L241.222 179.501C240.006 181.133 238.214 182.061 235.942 182.061C231.814 182.061 228.582 178.701 228.582 173.869C228.582 169.069 231.814 165.709 235.942 165.709C238.118 165.709 239.878 166.573 241.062 168.077ZM236.358 179.437C239.59 179.437 241.222 177.805 241.222 173.869C241.222 169.933 239.59 168.301 236.358 168.301C233.094 168.301 231.462 169.933 231.462 173.869C231.462 177.805 233.094 179.437 236.358 179.437ZM256.888 177.517C256.888 176.269 256.248 175.725 254.36 175.277L251.608 174.573C248.536 173.837 247.032 172.621 247.032 170.093C247.032 167.437 249.816 165.709 253.208 165.709C256.568 165.709 259.192 167.469 259.64 170.445H256.792C256.504 168.845 255.384 168.205 253.208 168.205C250.936 168.205 249.88 168.845 249.88 170.093C249.88 171.181 250.424 171.661 252.248 172.141L255.064 172.845C258.264 173.677 259.736 174.797 259.736 177.453C259.736 180.333 256.856 182.061 253.304 182.061C249.976 182.061 247 180.525 246.488 176.909H249.336C249.656 179.021 250.904 179.565 253.304 179.565C255.672 179.565 256.888 178.893 256.888 177.517ZM270.132 165.709C273.972 165.709 276.308 168.429 276.308 172.461V181.645H273.46V172.237C273.46 169.421 272.212 168.301 269.364 168.301C266.484 168.301 265.14 169.421 265.14 172.237V181.645H262.292V160.141H265.14V168.013C266.196 166.573 267.892 165.709 270.132 165.709ZM294.067 173.869V174.733H281.619C281.843 178.253 283.475 179.437 286.579 179.437C288.979 179.437 290.163 178.861 290.835 177.197H293.715C292.691 180.301 289.939 182.061 286.579 182.061C282.195 182.061 278.707 178.861 278.707 173.869C278.707 168.909 282.195 165.709 286.419 165.709C290.227 165.709 294.067 168.365 294.067 173.869ZM281.651 172.493H291.219C290.931 169.389 289.363 168.301 286.419 168.301C283.603 168.301 282.003 169.357 281.651 172.493ZM304.251 165.709H304.987V168.237H303.643C300.795 168.237 299.483 169.293 299.483 172.237V181.645H296.635V166.125H299.099L299.355 168.269C300.283 166.669 301.851 165.709 304.251 165.709Z" fill="white"/>
<g clip-path="url(#clip0_0_1)">
<path d="M192.666 126.662C190.194 126.662 188.177 124.604 188.177 122.082V45.2775C188.177 42.7549 190.194 40.6974 192.666 40.6974H249.304C251.777 40.6974 253.794 42.7549 253.794 45.2775V122.082C253.794 124.604 251.777 126.662 249.304 126.662H192.666ZM191.63 122.082C191.63 122.66 192.1 123.139 192.666 123.139H249.304C249.871 123.139 250.34 122.66 250.34 122.082V56.5797H191.63V122.082ZM250.34 53.0565V45.2775C250.34 44.6997 249.871 44.2205 249.304 44.2205H192.666C192.1 44.2205 191.63 44.6997 191.63 45.2775V53.0565H250.34Z" fill="white"/>
<path d="M249.304 41.402H192.667C190.567 41.402 188.868 43.1354 188.868 45.2775V122.082C188.868 124.224 190.567 125.957 192.667 125.957H249.304C251.404 125.957 253.103 124.224 253.103 122.082V45.2775C253.103 43.1354 251.404 41.402 249.304 41.402ZM192.667 43.5159H249.304C250.258 43.5159 251.031 44.3051 251.031 45.2775V53.7612H190.94V45.2775C190.94 44.3051 191.713 43.5159 192.667 43.5159ZM249.304 123.843H192.667C191.713 123.843 190.94 123.054 190.94 122.082V55.8751H251.031V122.082C251.031 123.054 250.258 123.843 249.304 123.843Z" fill="white"/>
<path d="M216.841 50.2098C215.888 50.2098 215.114 49.4207 215.114 48.4483C215.114 47.4759 215.888 46.6867 216.841 46.6867H225.13C226.083 46.6867 226.856 47.4759 226.856 48.4483C226.856 49.4207 226.083 50.2098 225.13 50.2098H216.841Z" fill="white"/>
<path d="M216.841 49.5052H225.13C225.696 49.5052 226.166 49.0261 226.166 48.4483C226.166 47.8705 225.696 47.3914 225.13 47.3914H216.841C216.275 47.3914 215.805 47.8705 215.805 48.4483C215.805 49.0261 216.275 49.5052 216.841 49.5052Z" fill="white"/>
<path d="M196.12 120.673C194.407 120.673 193.012 119.249 193.012 117.502V70.9964C193.012 69.2489 194.407 67.8255 196.12 67.8255H245.851C247.564 67.8255 248.959 69.2489 248.959 70.9964V117.502C248.959 119.249 247.564 120.673 245.851 120.673H196.12ZM245.505 117.149V110.808H236.54C233.791 113.415 230.241 114.838 226.497 114.838C224.591 114.838 222.74 114.472 220.985 113.753C219.231 114.472 217.38 114.838 215.473 114.838C211.73 114.838 208.18 113.401 205.431 110.808H196.465V117.149H245.505ZM225.06 111.216C225.544 111.287 226.027 111.315 226.497 111.315C227.63 111.315 228.749 111.146 229.813 110.808H225.503C225.351 110.949 225.199 111.09 225.047 111.216H225.06ZM212.144 110.808C213.208 111.146 214.327 111.315 215.46 111.315C216.592 111.315 217.711 111.146 218.775 110.808H212.144ZM245.505 107.285V71.3487H196.465V107.285H202.682C201.397 105.002 200.72 102.437 200.72 99.7874C200.72 91.4869 207.337 84.7366 215.473 84.7366C217.38 84.7366 219.231 85.103 220.985 85.8217C222.74 85.103 224.591 84.7366 226.497 84.7366C234.634 84.7366 241.251 91.4869 241.251 99.7874C241.251 102.437 240.574 105.002 239.289 107.285H245.505ZM235.062 107.285C236.83 105.185 237.797 102.535 237.797 99.7874C237.797 93.4317 232.727 88.2597 226.497 88.2597C226.027 88.2597 225.544 88.2879 225.06 88.3584C228.321 91.2051 230.227 95.3765 230.227 99.7874C230.227 102.437 229.55 105.002 228.265 107.285H235.076H235.062ZM224.038 107.285C225.806 105.185 226.773 102.535 226.773 99.7874C226.773 93.4317 221.704 88.2597 215.473 88.2597C209.243 88.2597 204.174 93.4317 204.174 99.7874C204.174 102.535 205.141 105.185 206.909 107.285H224.052H224.038Z" fill="white"/>
<path d="M248.268 109.046V70.9963C248.268 69.6294 247.191 68.5302 245.851 68.5302H196.12C194.78 68.5302 193.703 69.6294 193.703 70.9963V117.502C193.703 118.869 194.78 119.968 196.12 119.968H245.851C247.191 119.968 248.268 118.869 248.268 117.502V109.046ZM196.12 70.644H245.851C246.044 70.644 246.196 70.7991 246.196 70.9963V107.989H238.032C239.621 105.664 240.56 102.845 240.56 99.7874C240.56 91.8674 234.261 85.4412 226.497 85.4412C224.55 85.4412 222.685 85.8499 220.986 86.5827C219.286 85.8499 217.421 85.4412 215.474 85.4412C207.71 85.4412 201.411 91.8674 201.411 99.7874C201.411 102.845 202.35 105.664 203.939 107.989H195.775V70.9963C195.775 70.7991 195.927 70.644 196.12 70.644ZM227.464 99.7874C227.464 102.944 226.276 105.819 224.356 107.989H206.591C204.671 105.819 203.483 102.944 203.483 99.7874C203.483 93.0371 208.857 87.5551 215.474 87.5551C222.091 87.5551 227.464 93.0371 227.464 99.7874ZM221.897 110.103C220.032 111.315 217.836 112.02 215.46 112.02C213.084 112.02 210.887 111.315 209.023 110.103H221.883H221.897ZM225.226 110.103H232.921C231.056 111.315 228.86 112.02 226.484 112.02C225.42 112.02 224.398 111.865 223.431 111.597C224.066 111.146 224.674 110.639 225.226 110.089V110.103ZM226.995 107.989C228.583 105.664 229.523 102.845 229.523 99.7874C229.523 94.8832 227.105 90.5568 223.431 87.9638C224.411 87.696 225.434 87.541 226.484 87.541C233.101 87.541 238.474 93.023 238.474 99.7733C238.474 102.93 237.286 105.805 235.366 107.975H226.995V107.989ZM245.851 117.854H196.12C195.927 117.854 195.775 117.699 195.775 117.502V110.103H205.707C208.235 112.598 211.675 114.134 215.474 114.134C217.435 114.134 219.3 113.725 220.986 112.992C222.685 113.725 224.536 114.134 226.497 114.134C230.296 114.134 233.736 112.598 236.264 110.103H246.196V117.502C246.196 117.699 246.044 117.854 245.851 117.854Z" fill="white"/>
<path d="M215.473 107.552C211.274 107.552 207.862 104.072 207.862 99.7874C207.862 95.5033 211.274 92.0224 215.473 92.0224C219.673 92.0224 223.085 95.5033 223.085 99.7874C223.085 104.072 219.673 107.552 215.473 107.552ZM215.473 95.5456C213.18 95.5456 211.315 97.4481 211.315 99.7874C211.315 102.127 213.18 104.029 215.473 104.029C217.767 104.029 219.631 102.127 219.631 99.7874C219.631 97.4481 217.767 95.5456 215.473 95.5456Z" fill="white"/>
<path d="M208.539 99.7874C208.539 103.691 211.633 106.848 215.459 106.848C219.286 106.848 222.38 103.691 222.38 99.7874C222.38 95.8838 219.286 92.7271 215.459 92.7271C211.633 92.7271 208.539 95.8838 208.539 99.7874ZM215.473 94.8409C218.153 94.8409 220.322 97.0535 220.322 99.7874C220.322 102.521 218.153 104.734 215.473 104.734C212.793 104.734 210.625 102.521 210.625 99.7874C210.625 97.0535 212.793 94.8409 215.473 94.8409Z" fill="white"/>
</g>
<defs>
<clipPath id="clip0_0_1">
<rect width="65.6171" height="85.9645" fill="white" transform="translate(188.177 40.6974)"/>
</clipPath>
</defs>
</svg>
