<svg width="80" height="95" viewBox="0 0 80 95" fill="none" xmlns="http://www.w3.org/2000/svg">
<g clip-path="url(#clip0_45_130)">
<path d="M11.6663 90.6619C9.19362 90.6619 7.17676 88.6044 7.17676 86.0818V9.27746C7.17676 6.7549 9.19362 4.69739 11.6663 4.69739H68.3043C70.777 4.69739 72.7939 6.7549 72.7939 9.27746V86.0818C72.7939 88.6044 70.777 90.6619 68.3043 90.6619H11.6663ZM10.6303 86.0818C10.6303 86.6596 11.1 87.1388 11.6663 87.1388H68.3043C68.8707 87.1388 69.3403 86.6596 69.3403 86.0818V20.5797H10.6303V86.0818ZM69.3403 17.0565V9.27746C69.3403 8.69967 68.8707 8.22052 68.3043 8.22052H11.6663C11.1 8.22052 10.6303 8.69967 10.6303 9.27746V17.0565H69.3403Z" fill="white"/>
<path d="M68.3045 5.40201H11.6666C9.56681 5.40201 7.86768 7.13539 7.86768 9.27746V86.0818C7.86768 88.2239 9.56681 89.9573 11.6666 89.9573H68.3045C70.4042 89.9573 72.1034 88.2239 72.1034 86.0818V9.27746C72.1034 7.13539 70.4042 5.40201 68.3045 5.40201ZM11.6666 7.51589H68.3045C69.2577 7.51589 70.0312 8.30507 70.0312 9.27746V17.7612H9.93979V9.27746C9.93979 8.30507 10.7134 7.51589 11.6666 7.51589ZM68.3045 87.8434H11.6666C10.7134 87.8434 9.93979 87.0542 9.93979 86.0818V19.8751H70.0312V86.0818C70.0312 87.0542 69.2577 87.8434 68.3045 87.8434Z" fill="white"/>
<path d="M35.841 14.2098C34.8878 14.2098 34.1143 13.4207 34.1143 12.4483C34.1143 11.4759 34.8878 10.6867 35.841 10.6867H44.1295C45.0827 10.6867 45.8563 11.4759 45.8563 12.4483C45.8563 13.4207 45.0827 14.2098 44.1295 14.2098H35.841Z" fill="white"/>
<path d="M35.8412 13.5052H44.1297C44.6961 13.5052 45.1658 13.0261 45.1658 12.4483C45.1658 11.8705 44.6961 11.3914 44.1297 11.3914H35.8412C35.2749 11.3914 34.8052 11.8705 34.8052 12.4483C34.8052 13.0261 35.2749 13.5052 35.8412 13.5052Z" fill="white"/>
<path d="M15.1199 84.6726C13.4069 84.6726 12.0117 83.2492 12.0117 81.5017V34.9964C12.0117 33.2489 13.4069 31.8255 15.1199 31.8255H64.8507C66.5637 31.8255 67.9589 33.2489 67.9589 34.9964V81.5017C67.9589 83.2492 66.5637 84.6726 64.8507 84.6726H15.1199ZM64.5054 81.1494V74.8078H55.54C52.791 77.4149 49.2408 78.8383 45.4972 78.8383C43.5908 78.8383 41.7397 78.4718 39.9853 77.7531C38.2309 78.4718 36.3798 78.8383 34.4735 78.8383C30.7299 78.8383 27.1796 77.4008 24.4306 74.8078H15.4653V81.1494H64.5054ZM44.0605 75.2165C44.544 75.2869 45.0275 75.3151 45.4972 75.3151C46.6299 75.3151 47.7489 75.146 48.8125 74.8078H44.5025C44.3506 74.9487 44.1986 75.0896 44.0467 75.2165H44.0605ZM31.1443 74.8078C32.208 75.146 33.3269 75.3151 34.4597 75.3151C35.5924 75.3151 36.7114 75.146 37.7751 74.8078H31.1443ZM64.5054 71.2847V35.3487H15.4653V71.2847H21.6816C20.3969 69.0017 19.72 66.4368 19.72 63.7874C19.72 55.4869 26.337 48.7366 34.4735 48.7366C36.3798 48.7366 38.2309 49.103 39.9853 49.8217C41.7397 49.103 43.5908 48.7366 45.4972 48.7366C53.6337 48.7366 60.2506 55.4869 60.2506 63.7874C60.2506 66.4368 59.5738 69.0017 58.289 71.2847H64.5054ZM54.0619 71.2847C55.8301 69.1849 56.7971 66.5355 56.7971 63.7874C56.7971 57.4317 51.7273 52.2597 45.4972 52.2597C45.0275 52.2597 44.544 52.2879 44.0605 52.3584C47.3206 55.2051 49.227 59.3765 49.227 63.7874C49.227 66.4368 48.5501 69.0017 47.2654 71.2847H54.0757H54.0619ZM43.0382 71.2847C44.8065 69.1849 45.7734 66.5355 45.7734 63.7874C45.7734 57.4317 40.7037 52.2597 34.4735 52.2597C28.2433 52.2597 23.1735 57.4317 23.1735 63.7874C23.1735 66.5355 24.1405 69.1849 25.9087 71.2847H43.0521H43.0382Z" fill="white"/>
<path d="M67.2684 73.0462V34.9963C67.2684 33.6294 66.1909 32.5302 64.851 32.5302H15.1201C13.7801 32.5302 12.7026 33.6294 12.7026 34.9963V81.5017C12.7026 82.8687 13.7801 83.9679 15.1201 83.9679H64.851C66.1909 83.9679 67.2684 82.8687 67.2684 81.5017V73.0462ZM15.1201 34.644H64.851C65.0444 34.644 65.1963 34.7991 65.1963 34.9963V71.9893H57.0322C58.6208 69.664 59.5602 66.8455 59.5602 63.7874C59.5602 55.8674 53.2609 49.4412 45.4974 49.4412C43.5496 49.4412 41.6847 49.8499 39.9855 50.5827C38.2864 49.8499 36.4215 49.4412 34.4737 49.4412C26.7102 49.4412 20.4109 55.8674 20.4109 63.7874C20.4109 66.8455 21.3503 69.664 22.9389 71.9893H14.7748V34.9963C14.7748 34.7991 14.9267 34.644 15.1201 34.644ZM46.4644 63.7874C46.4644 66.9441 45.2763 69.819 43.3562 71.9893H25.5912C23.6711 69.819 22.483 66.9441 22.483 63.7874C22.483 57.0371 27.8567 51.5551 34.4737 51.5551C41.0907 51.5551 46.4644 57.0371 46.4644 63.7874ZM40.8973 74.1032C39.0324 75.3151 36.8359 76.0197 34.4599 76.0197C32.0839 76.0197 29.8874 75.3151 28.0225 74.1032H40.8835H40.8973ZM44.2265 74.1032H51.9209C50.056 75.3151 47.8596 76.0197 45.4836 76.0197C44.4199 76.0197 43.3976 75.8647 42.4306 75.597C43.0661 75.146 43.6739 74.6387 44.2265 74.0891V74.1032ZM45.9947 71.9893C47.5833 69.664 48.5227 66.8455 48.5227 63.7874C48.5227 58.8832 46.1052 54.5568 42.4306 51.9638C43.4114 51.696 44.4337 51.541 45.4836 51.541C52.1005 51.541 57.4742 57.023 57.4742 63.7733C57.4742 66.93 56.2862 69.8049 54.366 71.9752H45.9947V71.9893ZM64.851 81.8541H15.1201C14.9267 81.8541 14.7748 81.699 14.7748 81.5017V74.1032H24.7071C27.2351 76.5975 30.6748 78.1336 34.4737 78.1336C36.4353 78.1336 38.3002 77.7249 39.9855 76.9921C41.6847 77.7249 43.5358 78.1336 45.4974 78.1336C49.2963 78.1336 52.736 76.5975 55.264 74.1032H65.1963V81.5017C65.1963 81.699 65.0444 81.8541 64.851 81.8541Z" fill="white"/>
<path d="M34.4734 71.5524C30.2739 71.5524 26.8618 68.0716 26.8618 63.7874C26.8618 59.5033 30.2739 56.0224 34.4734 56.0224C38.6729 56.0224 42.085 59.5033 42.085 63.7874C42.085 68.0716 38.6729 71.5524 34.4734 71.5524ZM34.4734 59.5456C32.1803 59.5456 30.3153 61.4481 30.3153 63.7874C30.3153 66.1268 32.1803 68.0293 34.4734 68.0293C36.7665 68.0293 38.6315 66.1268 38.6315 63.7874C38.6315 61.4481 36.7665 59.5456 34.4734 59.5456Z" fill="white"/>
<path d="M27.5386 63.7874C27.5386 67.6911 30.6329 70.8478 34.4595 70.8478C38.286 70.8478 41.3803 67.6911 41.3803 63.7874C41.3803 59.8838 38.286 56.7271 34.4595 56.7271C30.6329 56.7271 27.5386 59.8838 27.5386 63.7874ZM34.4733 58.8409C37.1532 58.8409 39.322 61.0535 39.322 63.7874C39.322 66.5214 37.1532 68.7339 34.4733 68.7339C31.7933 68.7339 29.6245 66.5214 29.6245 63.7874C29.6245 61.0535 31.7933 58.8409 34.4733 58.8409Z" fill="white"/>
</g>
<defs>
<clipPath id="clip0_45_130">
<rect width="65.6171" height="85.9645" fill="white" transform="translate(7.17676 4.69739)"/>
</clipPath>
</defs>
</svg>
