<svg  viewBox="0 0 250 69" fill="none" xmlns="http://www.w3.org/2000/svg">
<path d="M0 0H250V68.8202H0V0Z" fill="#A30035"/>
<path d="M52.556 26.184V43.236H62.776V45H50.624V26.184H52.556ZM72.3384 45.308C67.3264 45.308 63.3224 41.416 63.3224 35.564C63.3224 29.768 67.3264 25.876 72.3384 25.876C77.3504 25.876 81.3544 29.768 81.3544 35.564C81.3544 41.416 77.3504 45.308 72.3384 45.308ZM72.3384 43.46C76.7344 43.46 79.3104 41.08 79.3104 35.564C79.3104 30.104 76.7344 27.724 72.3384 27.724C67.9144 27.724 65.3384 30.104 65.3384 35.564C65.3384 41.08 67.9144 43.46 72.3384 43.46ZM98.1249 45H96.0249L94.0089 39.624H85.4969L83.4809 45H81.3809L88.6609 26.184H90.8449L98.1249 45ZM89.7529 28.34L86.1689 37.832H93.3089L89.7529 28.34ZM105.663 26.184C111.515 26.184 115.407 29.768 115.407 35.564C115.407 41.416 111.515 45 105.663 45H100.007V26.184H105.663ZM101.995 43.18H105.747C110.983 43.18 113.363 40.912 113.363 35.564C113.363 30.272 110.983 28.004 105.747 28.004H101.995V43.18ZM132.454 43.04L138.922 26.184H141.386V45H139.426V29.684L133.434 45H131.474L125.482 29.628V45H123.522V26.184H125.986L132.454 43.04ZM152.948 45.308C147.936 45.308 143.932 41.416 143.932 35.564C143.932 29.768 147.936 25.876 152.948 25.876C157.96 25.876 161.964 29.768 161.964 35.564C161.964 41.416 157.96 45.308 152.948 45.308ZM152.948 43.46C157.344 43.46 159.92 41.08 159.92 35.564C159.92 30.104 157.344 27.724 152.948 27.724C148.524 27.724 145.948 30.104 145.948 35.564C145.948 41.08 148.524 43.46 152.948 43.46ZM173.611 36.992L177.867 45H175.655L171.735 37.384C171.399 37.412 171.063 37.44 170.699 37.44H166.415V45H164.483V26.184H170.699C174.591 26.184 177.391 28.2 177.391 31.812C177.391 34.444 175.879 36.208 173.611 36.992ZM166.415 27.948V35.676H171.427C173.975 35.676 175.403 34.584 175.403 31.812C175.403 29.012 173.975 27.948 171.427 27.948H166.415ZM182.112 36.488V43.18H192.164V45H180.124V26.184H191.884V28.004H182.112V34.668H191.044V36.488H182.112Z" fill="white"/>
</svg>
