<svg width="250" height="69" viewBox="0 0 250 69" fill="none" xmlns="http://www.w3.org/2000/svg">
<path d="M0 0H250V68.8202H0V0Z" fill="#A30035"/>
<path d="M55.02 42.844C55.9533 42.844 56.6907 42.7507 57.232 42.564C57.792 42.3773 58.1933 42.1067 58.436 41.752C58.6973 41.3787 58.828 40.9493 58.828 40.464C58.828 40.0907 58.7253 39.6427 58.52 39.12C58.3333 38.5973 58.072 38.0187 57.736 37.384C57.4 36.7307 57.008 36.0493 56.56 35.34C56.1307 34.612 55.664 33.8747 55.16 33.128L57.092 31.868C57.82 32.9693 58.4547 34.0147 58.996 35.004C59.5373 35.9747 59.9947 36.8893 60.368 37.748C60.7413 38.588 61.04 39.3813 61.264 40.128C61.5253 40.9493 61.8147 41.556 62.132 41.948C62.468 42.34 62.8133 42.592 63.168 42.704C63.5227 42.7973 63.8493 42.844 64.148 42.844C64.54 42.844 64.8293 42.956 65.016 43.18C65.2027 43.3853 65.296 43.6373 65.296 43.936C65.296 44.2347 65.1653 44.5147 64.904 44.776C64.6427 45.0187 64.3067 45.14 63.896 45.14C63.28 45.14 62.6733 45.028 62.076 44.804C61.4973 44.5613 60.9933 44.1787 60.564 43.656C60.1347 43.1147 59.836 42.396 59.668 41.5L60.788 40.604C60.788 41.3507 60.6293 42.0787 60.312 42.788C59.9947 43.4787 59.416 44.048 58.576 44.496C57.7547 44.944 56.5693 45.168 55.02 45.168C54.348 45.168 53.6947 45.112 53.06 45C52.444 44.888 51.8747 44.7293 51.352 44.524C50.8293 44.3 50.372 44.0387 49.98 43.74L51.1 41.808C51.4733 42.0507 51.996 42.284 52.668 42.508C53.34 42.732 54.124 42.844 55.02 42.844ZM63.9023 45.14L64.1823 42.844C65.2837 42.844 66.1423 42.8067 66.7583 42.732C67.3743 42.6387 67.813 42.424 68.0743 42.088C68.3357 41.7333 68.4663 41.1827 68.4663 40.436C68.4663 39.9693 68.3917 39.4187 68.2423 38.784C68.093 38.1307 67.897 37.44 67.6543 36.712C67.4117 35.984 67.1503 35.2653 66.8703 34.556L69.1383 33.716C69.381 34.3133 69.605 34.9947 69.8103 35.76C70.0343 36.5253 70.221 37.2813 70.3703 38.028C70.5197 38.7747 70.5943 39.428 70.5943 39.988C70.5943 40.9213 70.4637 41.7147 70.2023 42.368C69.9597 43.0213 69.5677 43.5533 69.0263 43.964C68.485 44.3747 67.785 44.6733 66.9263 44.86C66.0863 45.0467 65.0783 45.14 63.9023 45.14ZM69.0823 50.432C68.6903 50.432 68.3543 50.292 68.0743 50.012C67.813 49.7507 67.6823 49.4333 67.6823 49.06C67.6823 48.6867 67.813 48.36 68.0743 48.08C68.3543 47.8 68.6903 47.66 69.0823 47.66C69.4557 47.66 69.773 47.8 70.0343 48.08C70.3143 48.36 70.4543 48.6867 70.4543 49.06C70.4543 49.4333 70.3143 49.7507 70.0343 50.012C69.773 50.292 69.4557 50.432 69.0823 50.432ZM65.2463 50.432C64.8543 50.432 64.5183 50.292 64.2383 50.012C63.977 49.7507 63.8463 49.4333 63.8463 49.06C63.8463 48.6867 63.977 48.36 64.2383 48.08C64.5183 47.8 64.8543 47.66 65.2463 47.66C65.6197 47.66 65.937 47.8 66.1983 48.08C66.4783 48.36 66.6183 48.6867 66.6183 49.06C66.6183 49.4333 66.4783 49.7507 66.1983 50.012C65.937 50.292 65.6197 50.432 65.2463 50.432ZM72.3815 51.496L71.5695 49.368C72.9322 48.92 74.0615 48.4067 74.9575 47.828C75.8722 47.2493 76.5909 46.6333 77.1135 45.98C77.6549 45.3267 78.0375 44.664 78.2615 43.992C78.4855 43.3013 78.5975 42.6387 78.5975 42.004C78.5975 41.0893 78.3922 40.1653 77.9815 39.232C77.5895 38.28 77.1509 37.384 76.6655 36.544L78.7095 35.508C79.0642 36.1613 79.3722 36.8053 79.6335 37.44C79.9135 38.0747 80.1562 38.672 80.3615 39.232C80.5855 39.792 80.7629 40.3053 80.8935 40.772C81.1549 41.5747 81.4909 42.1253 81.9015 42.424C82.3309 42.704 82.9095 42.844 83.6375 42.844C84.0295 42.844 84.3095 42.956 84.4775 43.18C84.6642 43.3853 84.7575 43.6373 84.7575 43.936C84.7575 44.2347 84.6269 44.5147 84.3655 44.776C84.1042 45.0187 83.7682 45.14 83.3575 45.14C82.5362 45.14 81.8642 45 81.3415 44.72C80.8375 44.4213 80.4549 44.0387 80.1935 43.572C79.9322 43.0867 79.7549 42.5827 79.6615 42.06L80.5575 42.564C80.5575 43.796 80.2775 44.916 79.7175 45.924C79.1762 46.9507 78.4762 47.8373 77.6175 48.584C76.7589 49.3493 75.8629 49.9747 74.9295 50.46C73.9962 50.9453 73.1469 51.2907 72.3815 51.496ZM76.8335 32.288C76.4415 32.288 76.1055 32.1573 75.8255 31.896C75.5642 31.616 75.4335 31.2893 75.4335 30.916C75.4335 30.5427 75.5642 30.216 75.8255 29.936C76.1055 29.656 76.4415 29.516 76.8335 29.516C77.2069 29.516 77.5242 29.656 77.7855 29.936C78.0655 30.216 78.2055 30.5427 78.2055 30.916C78.2055 31.2893 78.0655 31.616 77.7855 31.896C77.5242 32.1573 77.2069 32.288 76.8335 32.288ZM83.3711 45.14L83.6511 42.844C84.1738 42.844 84.5844 42.732 84.8831 42.508C85.2004 42.284 85.4991 41.9107 85.7791 41.388C86.0778 40.8653 86.4511 40.1653 86.8991 39.288C87.3471 38.392 87.7951 37.664 88.2431 37.104C88.7098 36.5253 89.1578 36.0773 89.5871 35.76C90.0351 35.424 90.4551 35.1907 90.8471 35.06C91.2391 34.9293 91.6031 34.864 91.9391 34.864C92.5551 34.864 93.1058 35.004 93.5911 35.284C94.0764 35.5453 94.5338 36.0027 94.9631 36.656C95.3924 37.2907 95.8311 38.168 96.2791 39.288C96.7084 40.3147 97.0911 41.0893 97.4271 41.612C97.7818 42.116 98.1458 42.452 98.5191 42.62C98.9111 42.7693 99.3498 42.844 99.8351 42.844C100.227 42.844 100.507 42.956 100.675 43.18C100.862 43.3853 100.955 43.6373 100.955 43.936C100.955 44.2347 100.824 44.5147 100.563 44.776C100.302 45.0187 99.9658 45.14 99.5551 45.14C98.8271 45.14 98.1551 45.0187 97.5391 44.776C96.9418 44.5333 96.4378 44.1507 96.0271 43.628L96.4191 43.04C96.2138 43.6187 95.9338 44.0947 95.5791 44.468C95.2431 44.8227 94.8604 45.084 94.4311 45.252C94.0018 45.4387 93.5444 45.532 93.0591 45.532C92.4431 45.532 91.8084 45.4013 91.1551 45.14C90.5204 44.8787 89.9044 44.5053 89.3071 44.02C88.7098 43.5347 88.1871 42.9653 87.7391 42.312C87.2538 43.1707 86.7871 43.8053 86.3391 44.216C85.9098 44.608 85.4618 44.86 84.9951 44.972C84.5284 45.084 83.9871 45.14 83.3711 45.14ZM88.8031 40.184C89.1204 40.7067 89.4564 41.164 89.8111 41.556C90.1844 41.948 90.5578 42.2747 90.9311 42.536C91.3044 42.7787 91.6684 42.9653 92.0231 43.096C92.3964 43.208 92.7324 43.264 93.0311 43.264C93.6844 43.264 94.1604 43.0307 94.4591 42.564C94.7764 42.0973 94.7671 41.444 94.4311 40.604C94.2631 40.1747 94.0858 39.7547 93.8991 39.344C93.7311 38.9333 93.5444 38.56 93.3391 38.224C93.1338 37.8693 92.9004 37.5987 92.6391 37.412C92.3778 37.2067 92.0884 37.104 91.7711 37.104C91.4911 37.104 91.1924 37.1973 90.8751 37.384C90.5764 37.5707 90.2498 37.888 89.8951 38.336C89.5591 38.784 89.1951 39.4 88.8031 40.184ZM99.5586 45.14L99.8106 42.844C100.875 42.844 101.621 42.7413 102.051 42.536C102.48 42.3307 102.723 41.9667 102.779 41.444C102.853 40.9213 102.872 40.1933 102.835 39.26L102.303 25.008H104.571L105.131 39.008C105.168 39.9973 105.131 40.8747 105.019 41.64C104.925 42.4053 104.683 43.0493 104.291 43.572C103.917 44.0947 103.348 44.4867 102.583 44.748C101.836 45.0093 100.828 45.14 99.5586 45.14ZM109.408 45L108.848 25.008H111.116L111.676 45H109.408ZM119.949 45.028C119.949 44.58 119.987 44.104 120.061 43.6C120.155 43.0773 120.285 42.5267 120.453 41.948C120.64 41.3507 120.864 40.7253 121.125 40.072L123.141 40.856C122.955 41.3787 122.787 41.8733 122.637 42.34C122.507 42.8067 122.404 43.2453 122.329 43.656C122.273 44.0667 122.245 44.4587 122.245 44.832C122.245 45.784 122.497 46.5867 123.001 47.24C123.505 47.8933 124.159 48.3787 124.961 48.696C125.783 49.032 126.66 49.2 127.593 49.2C129.423 49.2 130.851 48.8733 131.877 48.22C132.904 47.5853 133.623 46.736 134.033 45.672C134.444 44.6267 134.621 43.4787 134.565 42.228L133.949 25.008H136.273L136.721 39.204C136.759 40.156 136.908 40.9027 137.169 41.444C137.449 41.9667 137.823 42.3307 138.289 42.536C138.756 42.7413 139.269 42.844 139.829 42.844C140.221 42.844 140.501 42.956 140.669 43.18C140.856 43.3853 140.949 43.6373 140.949 43.936C140.949 44.2347 140.819 44.5147 140.557 44.776C140.296 45.0187 139.96 45.14 139.549 45.14C138.971 45.14 138.476 45.0653 138.065 44.916C137.655 44.748 137.319 44.5427 137.057 44.3C136.796 44.0387 136.591 43.7493 136.441 43.432C136.292 43.096 136.18 42.76 136.105 42.424L136.889 43.208C136.815 44.1973 136.6 45.1773 136.245 46.148C135.909 47.1373 135.387 48.0333 134.677 48.836C133.968 49.6387 133.016 50.2827 131.821 50.768C130.645 51.2533 129.189 51.496 127.453 51.496C126.483 51.496 125.54 51.3467 124.625 51.048C123.729 50.768 122.927 50.348 122.217 49.788C121.527 49.228 120.976 48.5467 120.565 47.744C120.155 46.96 119.949 46.0547 119.949 45.028ZM139.562 45.14L139.843 42.844C140.776 42.844 141.504 42.7787 142.027 42.648C142.549 42.4987 142.941 42.228 143.203 41.836C143.483 41.4253 143.707 40.8373 143.875 40.072C144.043 39.3067 144.248 38.308 144.491 37.076L146.675 37.496C146.6 37.832 146.516 38.2053 146.423 38.616C146.329 39.0267 146.245 39.4373 146.171 39.848C146.115 40.24 146.087 40.5853 146.087 40.884C146.087 41.164 146.105 41.4253 146.143 41.668C146.18 41.9107 146.32 42.116 146.562 42.284C146.805 42.452 147.216 42.592 147.794 42.704C148.373 42.7973 149.204 42.844 150.287 42.844C150.679 42.844 150.959 42.956 151.127 43.18C151.313 43.3853 151.407 43.6373 151.407 43.936C151.407 44.2347 151.276 44.5147 151.015 44.776C150.753 45.0187 150.417 45.14 150.007 45.14C148.868 45.14 147.963 45.084 147.291 44.972C146.619 44.8413 146.105 44.6547 145.751 44.412C145.415 44.1693 145.172 43.8707 145.023 43.516C144.892 43.1427 144.789 42.7133 144.715 42.228L145.555 42.284C145.256 42.8813 144.929 43.3667 144.575 43.74C144.239 44.1133 143.847 44.4027 143.399 44.608C142.951 44.8133 142.409 44.9533 141.775 45.028C141.159 45.1027 140.421 45.14 139.562 45.14ZM146.619 50.432C146.227 50.432 145.891 50.292 145.611 50.012C145.349 49.7507 145.219 49.4333 145.219 49.06C145.219 48.6867 145.349 48.36 145.611 48.08C145.891 47.8 146.227 47.66 146.619 47.66C146.992 47.66 147.309 47.8 147.571 48.08C147.851 48.36 147.991 48.6867 147.991 49.06C147.991 49.4333 147.851 49.7507 147.571 50.012C147.309 50.292 146.992 50.432 146.619 50.432ZM142.783 50.432C142.391 50.432 142.055 50.292 141.775 50.012C141.513 49.7507 141.383 49.4333 141.383 49.06C141.383 48.6867 141.513 48.36 141.775 48.08C142.055 47.8 142.391 47.66 142.783 47.66C143.156 47.66 143.473 47.8 143.735 48.08C144.015 48.36 144.155 48.6867 144.155 49.06C144.155 49.4333 144.015 49.7507 143.735 50.012C143.473 50.292 143.156 50.432 142.783 50.432ZM150.008 45.14L150.288 42.844C150.81 42.844 151.221 42.732 151.52 42.508C151.837 42.284 152.136 41.9107 152.416 41.388C152.714 40.8653 153.088 40.1653 153.536 39.288C153.984 38.392 154.432 37.664 154.88 37.104C155.346 36.5253 155.794 36.0773 156.224 35.76C156.672 35.424 157.092 35.1907 157.484 35.06C157.876 34.9293 158.24 34.864 158.576 34.864C159.192 34.864 159.742 35.004 160.228 35.284C160.713 35.5453 161.17 36.0027 161.6 36.656C162.029 37.2907 162.468 38.168 162.916 39.288C163.345 40.3147 163.728 41.0893 164.064 41.612C164.418 42.116 164.782 42.452 165.156 42.62C165.548 42.7693 165.986 42.844 166.472 42.844C166.864 42.844 167.144 42.956 167.312 43.18C167.498 43.3853 167.592 43.6373 167.592 43.936C167.592 44.2347 167.461 44.5147 167.2 44.776C166.938 45.0187 166.602 45.14 166.192 45.14C165.464 45.14 164.792 45.0187 164.176 44.776C163.578 44.5333 163.074 44.1507 162.664 43.628L163.056 43.04C162.85 43.6187 162.57 44.0947 162.216 44.468C161.88 44.8227 161.497 45.084 161.068 45.252C160.638 45.4387 160.181 45.532 159.696 45.532C159.08 45.532 158.445 45.4013 157.792 45.14C157.157 44.8787 156.541 44.5053 155.944 44.02C155.346 43.5347 154.824 42.9653 154.376 42.312C153.89 43.1707 153.424 43.8053 152.976 44.216C152.546 44.608 152.098 44.86 151.632 44.972C151.165 45.084 150.624 45.14 150.008 45.14ZM155.44 40.184C155.757 40.7067 156.093 41.164 156.448 41.556C156.821 41.948 157.194 42.2747 157.568 42.536C157.941 42.7787 158.305 42.9653 158.66 43.096C159.033 43.208 159.369 43.264 159.668 43.264C160.321 43.264 160.797 43.0307 161.096 42.564C161.413 42.0973 161.404 41.444 161.068 40.604C160.9 40.1747 160.722 39.7547 160.536 39.344C160.368 38.9333 160.181 38.56 159.976 38.224C159.77 37.8693 159.537 37.5987 159.276 37.412C159.014 37.2067 158.725 37.104 158.408 37.104C158.128 37.104 157.829 37.1973 157.512 37.384C157.213 37.5707 156.886 37.888 156.532 38.336C156.196 38.784 155.832 39.4 155.44 40.184ZM184.031 45.14C183.247 45.14 182.529 45.0933 181.875 45C181.222 44.888 180.634 44.692 180.111 44.412C179.589 44.132 179.15 43.7307 178.795 43.208C178.441 42.6667 178.17 41.9573 177.983 41.08L179.635 40.1C179.878 40.8467 180.177 41.416 180.531 41.808C180.886 42.2 181.362 42.4707 181.959 42.62C182.575 42.7693 183.359 42.844 184.311 42.844C184.703 42.844 184.983 42.956 185.151 43.18C185.338 43.3853 185.431 43.6373 185.431 43.936C185.431 44.2347 185.301 44.5147 185.039 44.776C184.778 45.0187 184.442 45.14 184.031 45.14ZM166.195 45.14L166.447 42.844C167.418 42.844 168.37 42.7693 169.303 42.62C170.237 42.4707 171.151 42.256 172.047 41.976C172.943 41.696 173.802 41.36 174.623 40.968C175.463 40.5573 176.257 40.0907 177.003 39.568C176.518 39.1387 175.958 38.7653 175.323 38.448C174.689 38.1307 173.989 37.888 173.223 37.72C172.477 37.5333 171.683 37.44 170.843 37.44C170.545 37.44 170.265 37.4493 170.003 37.468C169.742 37.4867 169.481 37.524 169.219 37.58C168.958 37.6173 168.659 37.6733 168.323 37.748L167.875 35.62C168.379 35.4707 168.883 35.3587 169.387 35.284C169.891 35.1907 170.377 35.144 170.843 35.144C171.814 35.144 172.691 35.2653 173.475 35.508C174.259 35.732 174.969 36.012 175.603 36.348C176.257 36.684 176.863 37.02 177.423 37.356C178.002 37.692 178.562 37.9813 179.103 38.224C179.645 38.448 180.205 38.56 180.783 38.56H181.371L181.567 40.576C180.765 40.576 180.027 40.688 179.355 40.912C178.683 41.136 178.021 41.4253 177.367 41.78C176.733 42.116 176.061 42.48 175.351 42.872C174.642 43.2453 173.858 43.6093 172.999 43.964C172.141 44.3 171.151 44.58 170.031 44.804C168.93 45.028 167.651 45.14 166.195 45.14ZM184.023 45.14L184.303 42.844C185.405 42.844 186.263 42.8067 186.879 42.732C187.495 42.6387 187.934 42.424 188.195 42.088C188.457 41.7333 188.587 41.1827 188.587 40.436C188.587 39.9693 188.513 39.4187 188.363 38.784C188.214 38.1307 188.018 37.44 187.775 36.712C187.533 35.984 187.271 35.2653 186.991 34.556L189.259 33.716C189.502 34.3133 189.726 34.9947 189.931 35.76C190.155 36.5253 190.342 37.2813 190.491 38.028C190.641 38.7747 190.715 39.428 190.715 39.988C190.715 40.9213 190.585 41.7147 190.323 42.368C190.081 43.0213 189.689 43.5533 189.147 43.964C188.606 44.3747 187.906 44.6733 187.047 44.86C186.207 45.0467 185.199 45.14 184.023 45.14ZM190.127 30.804C189.735 30.804 189.399 30.6733 189.119 30.412C188.858 30.132 188.727 29.8053 188.727 29.432C188.727 29.0587 188.858 28.732 189.119 28.452C189.399 28.172 189.735 28.032 190.127 28.032C190.501 28.032 190.818 28.172 191.079 28.452C191.359 28.732 191.499 29.0587 191.499 29.432C191.499 29.8053 191.359 30.132 191.079 30.412C190.818 30.6733 190.501 30.804 190.127 30.804ZM186.291 30.804C185.899 30.804 185.563 30.6733 185.283 30.412C185.022 30.132 184.891 29.8053 184.891 29.432C184.891 29.0587 185.022 28.732 185.283 28.452C185.563 28.172 185.899 28.032 186.291 28.032C186.665 28.032 186.982 28.172 187.243 28.452C187.523 28.732 187.663 29.0587 187.663 29.432C187.663 29.8053 187.523 30.132 187.243 30.412C186.982 30.6733 186.665 30.804 186.291 30.804Z" fill="white"/>
</svg>
