<svg width="442" height="219" viewBox="0 0 442 219" fill="none" xmlns="http://www.w3.org/2000/svg">
<rect width="441.215" height="218.267" rx="35" fill="#A30035"/>
<path d="M240.027 98.75C248.913 98.75 256.155 91.43 256.155 82.4483C256.155 73.4666 248.913 66.1466 240.027 66.1466C231.141 66.1466 223.899 73.4666 223.899 82.4483C223.899 91.43 231.141 98.75 240.027 98.75ZM240.027 71.4052C246.041 71.4052 250.953 76.3693 250.953 82.4483C250.953 88.5272 246.041 93.4914 240.027 93.4914C234.013 93.4914 229.101 88.5272 229.101 82.4483C229.101 76.3693 234.013 71.4052 240.027 71.4052Z" fill="white"/>
<path d="M249.392 107.69C251.116 107.69 252.514 106.277 252.514 104.534C252.514 102.792 251.116 101.379 249.392 101.379C247.668 101.379 246.27 102.792 246.27 104.534C246.27 106.277 247.668 107.69 249.392 107.69Z" fill="white"/>
<path d="M255.635 107.69C257.359 107.69 258.757 106.277 258.757 104.534C258.757 102.792 257.359 101.379 255.635 101.379C253.911 101.379 252.514 102.792 252.514 104.534C252.514 106.277 253.911 107.69 255.635 107.69Z" fill="white"/>
<path d="M260.318 53H192.682C190.102 53 188 55.1245 188 57.7328V109.267C188 111.876 190.102 114 192.682 114H260.318C262.898 114 265 111.876 265 109.267V57.7328C265 55.1245 262.898 53 260.318 53ZM259.797 58.2586V108.741H193.203V58.2586H259.797Z" fill="white"/>
<path d="M208.811 81.9224C214.263 81.9224 218.696 77.4421 218.696 71.931C218.696 66.42 214.263 61.9397 208.811 61.9397C203.358 61.9397 198.926 66.42 198.926 71.931C198.926 77.4421 203.358 81.9224 208.811 81.9224ZM208.811 67.1983C211.391 67.1983 213.493 69.3228 213.493 71.931C213.493 74.5393 211.391 76.6638 208.811 76.6638C206.23 76.6638 204.128 74.5393 204.128 71.931C204.128 69.3228 206.23 67.1983 208.811 67.1983Z" fill="white"/>
<path d="M208.811 105.06C214.263 105.06 218.696 100.58 218.696 95.069C218.696 89.5579 214.263 85.0776 208.811 85.0776C203.358 85.0776 198.926 89.5579 198.926 95.069C198.926 100.58 203.358 105.06 208.811 105.06ZM208.811 90.3362C211.391 90.3362 213.493 92.4607 213.493 95.069C213.493 97.6772 211.391 99.8017 208.811 99.8017C206.23 99.8017 204.128 97.6772 204.128 95.069C204.128 92.4607 206.23 90.3362 208.811 90.3362Z" fill="white"/>
<path d="M190.527 181.805C189.012 181.805 187.7 181.613 186.591 181.229C185.503 180.824 184.66 180.184 184.063 179.309C183.465 178.413 183.124 177.219 183.039 175.725L182.463 162.829H186.975L187.519 174.157C187.561 175.032 187.7 175.704 187.935 176.173C188.191 176.621 188.553 176.931 189.023 177.101C189.492 177.251 190.1 177.325 190.847 177.325C191.657 177.325 192.233 177.539 192.575 177.965C192.916 178.371 193.087 178.883 193.087 179.501C193.087 180.163 192.863 180.717 192.415 181.165C191.988 181.592 191.359 181.805 190.527 181.805ZM184.671 178.829C183.241 179.149 181.865 179.299 180.543 179.277C179.22 179.235 178.036 179 176.991 178.573C175.945 178.125 175.113 177.485 174.495 176.653C173.897 175.821 173.599 174.765 173.599 173.485C173.599 172.355 173.844 171.331 174.335 170.413C174.847 169.475 175.551 168.653 176.447 167.949C177.364 167.245 178.431 166.648 179.647 166.157C180.863 165.667 182.185 165.293 183.615 165.037L184.063 169.581C183.145 169.624 182.313 169.752 181.567 169.965C180.841 170.157 180.212 170.413 179.679 170.733C179.167 171.053 178.772 171.416 178.495 171.821C178.217 172.205 178.079 172.621 178.079 173.069C178.079 173.432 178.207 173.731 178.463 173.965C178.719 174.2 179.06 174.392 179.487 174.541C179.913 174.669 180.404 174.744 180.959 174.765C181.513 174.787 182.079 174.755 182.655 174.669C183.252 174.584 183.839 174.445 184.415 174.253L184.671 178.829ZM184.767 159.533C184.148 159.533 183.615 159.32 183.167 158.893C182.74 158.445 182.527 157.923 182.527 157.325C182.527 156.707 182.74 156.173 183.167 155.725C183.615 155.277 184.148 155.053 184.767 155.053C185.364 155.053 185.876 155.277 186.303 155.725C186.729 156.173 186.943 156.707 186.943 157.325C186.943 157.923 186.729 158.445 186.303 158.893C185.876 159.32 185.364 159.533 184.767 159.533ZM179.231 159.501C178.612 159.501 178.079 159.288 177.631 158.861C177.204 158.413 176.991 157.891 176.991 157.293C176.991 156.675 177.204 156.141 177.631 155.693C178.079 155.245 178.612 155.021 179.231 155.021C179.828 155.021 180.34 155.245 180.767 155.693C181.193 156.141 181.407 156.675 181.407 157.293C181.407 157.891 181.193 158.413 180.767 158.861C180.34 159.288 179.828 159.501 179.231 159.501ZM211.444 181.805C210.463 181.805 209.545 181.731 208.692 181.581C207.86 181.432 207.092 181.176 206.388 180.813C205.684 180.429 205.055 179.907 204.5 179.245C203.967 178.584 203.519 177.752 203.156 176.749L205.684 174.733C206.068 175.416 206.537 175.949 207.092 176.333C207.647 176.696 208.308 176.952 209.076 177.101C209.844 177.251 210.74 177.325 211.764 177.325C212.575 177.325 213.151 177.539 213.492 177.965C213.833 178.371 214.004 178.883 214.004 179.501C214.004 180.163 213.78 180.717 213.332 181.165C212.905 181.592 212.276 181.805 211.444 181.805ZM190.516 181.805L190.836 177.325C191.988 177.325 193.129 177.261 194.26 177.133C195.391 177.005 196.489 176.813 197.556 176.557C198.623 176.301 199.636 175.971 200.596 175.565C201.577 175.16 202.495 174.669 203.348 174.093C202.708 173.709 202.015 173.379 201.268 173.101C200.521 172.824 199.721 172.621 198.868 172.493C198.036 172.344 197.151 172.269 196.212 172.269C195.871 172.269 195.508 172.28 195.124 172.301C194.761 172.323 194.388 172.365 194.004 172.429C193.62 172.472 193.236 172.536 192.852 172.621L192.212 168.237C192.831 168.067 193.481 167.949 194.164 167.885C194.868 167.8 195.487 167.757 196.02 167.757C197.172 167.757 198.228 167.885 199.188 168.141C200.169 168.397 201.065 168.717 201.876 169.101C202.708 169.485 203.476 169.869 204.18 170.253C204.905 170.637 205.588 170.957 206.228 171.213C206.889 171.469 207.529 171.597 208.148 171.597H209.332L209.844 175.853C208.927 175.896 208.063 176.077 207.252 176.397C206.463 176.696 205.673 177.08 204.884 177.549C204.116 177.997 203.284 178.467 202.388 178.957C201.513 179.448 200.521 179.907 199.412 180.333C198.303 180.76 197.023 181.112 195.572 181.389C194.121 181.667 192.436 181.805 190.516 181.805ZM199.572 189.005C198.953 189.005 198.42 188.792 197.972 188.365C197.545 187.939 197.332 187.416 197.332 186.797C197.332 186.179 197.545 185.635 197.972 185.165C198.42 184.717 198.953 184.493 199.572 184.493C200.191 184.493 200.713 184.717 201.14 185.165C201.588 185.635 201.812 186.179 201.812 186.797C201.812 187.416 201.588 187.939 201.14 188.365C200.713 188.792 200.191 189.005 199.572 189.005ZM211.453 181.805L211.773 177.325C212.264 177.325 212.68 177.208 213.021 176.973C213.384 176.717 213.757 176.301 214.141 175.725C214.525 175.128 214.973 174.328 215.485 173.325C216.125 172.045 216.787 171.043 217.469 170.317C218.173 169.592 218.888 169.08 219.613 168.781C220.36 168.461 221.107 168.301 221.853 168.301C222.792 168.301 223.667 168.504 224.477 168.909C225.288 169.315 225.992 169.869 226.589 170.573C227.187 171.256 227.645 172.045 227.965 172.941C228.307 173.816 228.477 174.723 228.477 175.661C228.477 176.792 228.232 177.816 227.741 178.733C227.272 179.629 226.611 180.344 225.757 180.877C224.925 181.389 223.965 181.645 222.877 181.645C221.96 181.645 220.893 181.485 219.677 181.165C218.461 180.845 217.181 180.173 215.837 179.149L217.469 175.277C218.429 175.939 219.325 176.419 220.157 176.717C221.011 177.016 221.715 177.165 222.269 177.165C222.696 177.165 223.048 177.123 223.325 177.037C223.603 176.952 223.805 176.813 223.933 176.621C224.061 176.429 224.125 176.173 224.125 175.853C224.125 175.405 224.019 174.947 223.805 174.477C223.592 174.008 223.304 173.613 222.941 173.293C222.6 172.952 222.195 172.781 221.725 172.781C221.277 172.781 220.893 172.952 220.573 173.293C220.275 173.613 219.976 174.083 219.677 174.701C219.4 175.299 219.059 176.003 218.653 176.813C218.163 177.795 217.683 178.616 217.213 179.277C216.744 179.917 216.243 180.429 215.709 180.813C215.197 181.176 214.589 181.432 213.885 181.581C213.203 181.731 212.392 181.805 211.453 181.805ZM237.054 177.325C238.014 177.325 238.75 177.24 239.262 177.069C239.774 176.899 240.126 176.675 240.318 176.397C240.51 176.12 240.606 175.821 240.606 175.501C240.606 174.989 240.457 174.392 240.158 173.709C239.881 173.027 239.529 172.312 239.102 171.565C238.676 170.819 238.228 170.104 237.758 169.421C237.31 168.739 236.905 168.141 236.542 167.629L240.35 165.101C241.268 166.339 242.057 167.565 242.718 168.781C243.38 169.976 243.913 171.085 244.318 172.109C244.745 173.133 245.044 174.008 245.214 174.733C245.385 175.416 245.641 175.949 245.982 176.333C246.345 176.696 246.761 176.952 247.23 177.101C247.7 177.251 248.169 177.325 248.638 177.325C249.449 177.325 250.025 177.539 250.366 177.965C250.729 178.371 250.91 178.883 250.91 179.501C250.91 180.163 250.686 180.717 250.238 181.165C249.812 181.592 249.172 181.805 248.318 181.805C247.38 181.805 246.558 181.677 245.854 181.421C245.15 181.165 244.553 180.76 244.062 180.205C243.572 179.651 243.156 178.947 242.814 178.093L244.766 178.509C244.596 179.107 244.201 179.661 243.582 180.173C242.985 180.664 242.185 181.069 241.182 181.389C240.201 181.688 239.038 181.837 237.694 181.837C237.054 181.837 236.34 181.784 235.55 181.677C234.782 181.571 234.014 181.411 233.246 181.197C232.5 180.984 231.817 180.707 231.198 180.365L232.766 176.301C233.556 176.643 234.313 176.899 235.038 177.069C235.785 177.24 236.457 177.325 237.054 177.325ZM248.36 181.805L248.68 177.325C249.17 177.325 249.586 177.208 249.928 176.973C250.29 176.717 250.664 176.301 251.048 175.725C251.432 175.128 251.88 174.328 252.392 173.325C253.032 172.045 253.693 171.043 254.376 170.317C255.08 169.592 255.794 169.08 256.52 168.781C257.266 168.461 258.013 168.301 258.76 168.301C259.698 168.301 260.573 168.504 261.384 168.909C262.194 169.315 262.898 169.869 263.496 170.573C264.093 171.256 264.552 172.045 264.872 172.941C265.213 173.816 265.384 174.723 265.384 175.661C265.384 176.792 265.138 177.816 264.648 178.733C264.178 179.629 263.517 180.344 262.664 180.877C261.832 181.389 260.872 181.645 259.784 181.645C258.866 181.645 257.8 181.485 256.584 181.165C255.368 180.845 254.088 180.173 252.744 179.149L254.376 175.277C255.336 175.939 256.232 176.419 257.064 176.717C257.917 177.016 258.621 177.165 259.176 177.165C259.602 177.165 259.954 177.123 260.232 177.037C260.509 176.952 260.712 176.813 260.84 176.621C260.968 176.429 261.032 176.173 261.032 175.853C261.032 175.405 260.925 174.947 260.712 174.477C260.498 174.008 260.21 173.613 259.848 173.293C259.506 172.952 259.101 172.781 258.632 172.781C258.184 172.781 257.8 172.952 257.48 173.293C257.181 173.613 256.882 174.083 256.584 174.701C256.306 175.299 255.965 176.003 255.56 176.813C255.069 177.795 254.589 178.616 254.12 179.277C253.65 179.917 253.149 180.429 252.616 180.813C252.104 181.176 251.496 181.432 250.792 181.581C250.109 181.731 249.298 181.805 248.36 181.805Z" fill="white"/>
</svg>
