<svg width="442" height="219" viewBox="0 0 442 219" fill="none" xmlns="http://www.w3.org/2000/svg">
<rect width="441.215" height="218.267" rx="35" fill="#A30035"/>
<path d="M128.254 180.749C128.254 180.259 128.297 179.683 128.382 179.021C128.468 178.36 128.628 177.613 128.862 176.781C129.097 175.928 129.449 174.979 129.918 173.933L133.854 175.309C133.62 175.971 133.417 176.579 133.246 177.133C133.076 177.667 132.948 178.168 132.862 178.637C132.777 179.085 132.734 179.533 132.734 179.981C132.734 181.027 132.969 181.88 133.438 182.541C133.929 183.224 134.612 183.725 135.486 184.045C136.361 184.387 137.374 184.557 138.526 184.557C139.849 184.557 140.937 184.376 141.79 184.013C142.644 183.672 143.305 183.213 143.774 182.637C144.244 182.083 144.574 181.475 144.766 180.813C144.958 180.131 145.054 179.469 145.054 178.829C145.054 177.955 144.905 176.92 144.606 175.725C144.308 174.509 143.774 173.144 143.006 171.629L147.134 169.869C147.561 170.616 147.956 171.491 148.318 172.493C148.681 173.475 148.969 174.499 149.182 175.565C149.417 176.632 149.534 177.645 149.534 178.605C149.534 179.459 149.428 180.365 149.214 181.325C149.001 182.264 148.638 183.192 148.126 184.109C147.636 185.027 146.964 185.848 146.11 186.573C145.257 187.32 144.201 187.917 142.942 188.365C141.684 188.813 140.18 189.037 138.43 189.037C137.022 189.037 135.7 188.877 134.462 188.557C133.246 188.259 132.169 187.779 131.23 187.117C130.313 186.456 129.588 185.592 129.054 184.525C128.521 183.48 128.254 182.221 128.254 180.749ZM138.686 168.589C138.025 168.589 137.46 168.365 136.99 167.917C136.542 167.469 136.318 166.915 136.318 166.253C136.318 165.592 136.542 165.027 136.99 164.557C137.46 164.088 138.025 163.853 138.686 163.853C139.326 163.853 139.87 164.088 140.318 164.557C140.788 165.027 141.022 165.592 141.022 166.253C141.022 166.915 140.788 167.469 140.318 167.917C139.87 168.365 139.326 168.589 138.686 168.589ZM152.965 189.005L152.037 184.525C153.552 184.333 154.874 184.099 156.005 183.821C157.136 183.565 158.085 183.203 158.853 182.733C159.621 182.264 160.197 181.624 160.581 180.813C160.965 179.981 161.157 178.915 161.157 177.613C161.157 176.355 160.965 175.352 160.581 174.605C160.197 173.859 159.685 173.485 159.045 173.485C158.597 173.485 158.224 173.645 157.925 173.965C157.626 174.264 157.402 174.627 157.253 175.053C157.125 175.459 157.061 175.821 157.061 176.141C157.061 176.333 157.114 176.536 157.221 176.749C157.328 176.963 157.562 177.144 157.925 177.293C158.288 177.443 158.853 177.528 159.621 177.549C160.41 177.571 161.477 177.496 162.821 177.325H168.197C169.008 177.325 169.584 177.539 169.925 177.965C170.288 178.371 170.469 178.883 170.469 179.501C170.469 180.163 170.245 180.717 169.797 181.165C169.349 181.592 168.709 181.805 167.877 181.805H159.077C157.733 181.805 156.581 181.645 155.621 181.325C154.661 181.005 153.925 180.493 153.413 179.789C152.901 179.064 152.645 178.104 152.645 176.909C152.645 175.949 152.805 174.989 153.125 174.029C153.466 173.069 153.936 172.195 154.533 171.405C155.13 170.595 155.824 169.955 156.613 169.485C157.424 168.995 158.298 168.749 159.237 168.749C160.517 168.749 161.637 169.144 162.597 169.933C163.557 170.723 164.304 171.768 164.837 173.069C165.392 174.371 165.669 175.789 165.669 177.325C165.669 179.736 165.157 181.784 164.133 183.469C163.109 185.155 161.648 186.456 159.749 187.373C157.85 188.312 155.589 188.856 152.965 189.005ZM188.85 181.805C187.869 181.805 186.952 181.731 186.098 181.581C185.266 181.432 184.498 181.176 183.794 180.813C183.09 180.429 182.461 179.907 181.906 179.245C181.373 178.584 180.925 177.752 180.562 176.749L183.09 174.733C183.474 175.416 183.944 175.949 184.498 176.333C185.053 176.696 185.714 176.952 186.482 177.101C187.25 177.251 188.146 177.325 189.17 177.325C189.981 177.325 190.557 177.539 190.898 177.965C191.24 178.371 191.41 178.883 191.41 179.501C191.41 180.163 191.186 180.717 190.738 181.165C190.312 181.592 189.682 181.805 188.85 181.805ZM167.922 181.805L168.242 177.325C169.394 177.325 170.536 177.261 171.666 177.133C172.797 177.005 173.896 176.813 174.962 176.557C176.029 176.301 177.042 175.971 178.002 175.565C178.984 175.16 179.901 174.669 180.754 174.093C180.114 173.709 179.421 173.379 178.674 173.101C177.928 172.824 177.128 172.621 176.274 172.493C175.442 172.344 174.557 172.269 173.618 172.269C173.277 172.269 172.914 172.28 172.53 172.301C172.168 172.323 171.794 172.365 171.41 172.429C171.026 172.472 170.642 172.536 170.258 172.621L169.618 168.237C170.237 168.067 170.888 167.949 171.57 167.885C172.274 167.8 172.893 167.757 173.426 167.757C174.578 167.757 175.634 167.885 176.594 168.141C177.576 168.397 178.472 168.717 179.282 169.101C180.114 169.485 180.882 169.869 181.586 170.253C182.312 170.637 182.994 170.957 183.634 171.213C184.296 171.469 184.936 171.597 185.554 171.597H186.738L187.25 175.853C186.333 175.896 185.469 176.077 184.658 176.397C183.869 176.696 183.08 177.08 182.29 177.549C181.522 177.997 180.69 178.467 179.794 178.957C178.92 179.448 177.928 179.907 176.818 180.333C175.709 180.76 174.429 181.112 172.978 181.389C171.528 181.667 169.842 181.805 167.922 181.805ZM205.436 182.221C203.452 182.221 201.798 182.136 200.476 181.965C199.174 181.795 198.118 181.549 197.308 181.229C196.497 180.909 195.857 180.525 195.388 180.077C194.918 179.629 194.534 179.139 194.236 178.605L195.132 178.349C194.598 179.373 193.99 180.131 193.308 180.621C192.625 181.112 191.91 181.432 191.164 181.581C190.417 181.731 189.649 181.805 188.86 181.805L189.18 177.325C189.841 177.325 190.364 177.219 190.748 177.005C191.132 176.792 191.441 176.44 191.676 175.949C191.932 175.459 192.166 174.808 192.38 173.997C192.593 173.187 192.849 172.195 193.148 171.021L197.212 172.013C197.062 172.589 196.934 173.091 196.828 173.517C196.742 173.944 196.668 174.317 196.604 174.637C196.561 174.936 196.54 175.181 196.54 175.373C196.54 175.779 196.636 176.141 196.828 176.461C197.02 176.76 197.393 177.005 197.948 177.197C198.502 177.368 199.313 177.507 200.38 177.613C201.468 177.699 202.886 177.741 204.636 177.741C206.492 177.741 208.038 177.677 209.276 177.549C210.513 177.4 211.494 177.197 212.22 176.941C212.966 176.664 213.5 176.333 213.82 175.949C214.14 175.544 214.3 175.085 214.3 174.573C214.3 174.168 214.204 173.795 214.012 173.453C213.841 173.091 213.553 172.792 213.148 172.557C212.742 172.323 212.22 172.205 211.58 172.205C210.812 172.205 210.033 172.397 209.244 172.781C208.476 173.144 207.718 173.635 206.972 174.253C206.225 174.851 205.51 175.523 204.828 176.269C204.166 177.016 203.569 177.763 203.036 178.509L198.236 177.965C199.068 176.621 200.006 175.331 201.052 174.093C202.097 172.856 203.217 171.768 204.412 170.829C205.606 169.869 206.844 169.112 208.124 168.557C209.404 168.003 210.705 167.725 212.028 167.725C213.457 167.725 214.673 168.003 215.676 168.557C216.678 169.112 217.446 169.88 217.98 170.861C218.513 171.843 218.78 172.973 218.78 174.253C218.78 175.811 218.332 177.187 217.436 178.381C216.561 179.576 215.142 180.515 213.18 181.197C211.238 181.88 208.657 182.221 205.436 182.221ZM244.214 181.805C242.7 181.805 241.388 181.613 240.278 181.229C239.19 180.824 238.348 180.184 237.75 179.309C237.153 178.413 236.812 177.219 236.726 175.725L236.15 162.829H240.662L241.206 174.157C241.249 175.032 241.388 175.704 241.622 176.173C241.878 176.621 242.241 176.931 242.71 177.101C243.18 177.251 243.788 177.325 244.534 177.325C245.345 177.325 245.921 177.539 246.262 177.965C246.604 178.371 246.774 178.883 246.774 179.501C246.774 180.163 246.55 180.717 246.102 181.165C245.676 181.592 245.046 181.805 244.214 181.805ZM238.358 178.829C236.929 179.149 235.553 179.299 234.23 179.277C232.908 179.235 231.724 179 230.678 178.573C229.633 178.125 228.801 177.485 228.182 176.653C227.585 175.821 227.286 174.765 227.286 173.485C227.286 172.355 227.532 171.331 228.022 170.413C228.534 169.475 229.238 168.653 230.134 167.949C231.052 167.245 232.118 166.648 233.334 166.157C234.55 165.667 235.873 165.293 237.302 165.037L237.75 169.581C236.833 169.624 236.001 169.752 235.254 169.965C234.529 170.157 233.9 170.413 233.366 170.733C232.854 171.053 232.46 171.416 232.182 171.821C231.905 172.205 231.766 172.621 231.766 173.069C231.766 173.432 231.894 173.731 232.15 173.965C232.406 174.2 232.748 174.392 233.174 174.541C233.601 174.669 234.092 174.744 234.646 174.765C235.201 174.787 235.766 174.755 236.342 174.669C236.94 174.584 237.526 174.445 238.102 174.253L238.358 178.829ZM238.454 159.533C237.836 159.533 237.302 159.32 236.854 158.893C236.428 158.445 236.214 157.923 236.214 157.325C236.214 156.707 236.428 156.173 236.854 155.725C237.302 155.277 237.836 155.053 238.454 155.053C239.052 155.053 239.564 155.277 239.99 155.725C240.417 156.173 240.63 156.707 240.63 157.325C240.63 157.923 240.417 158.445 239.99 158.893C239.564 159.32 239.052 159.533 238.454 159.533ZM232.918 159.501C232.3 159.501 231.766 159.288 231.318 158.861C230.892 158.413 230.678 157.891 230.678 157.293C230.678 156.675 230.892 156.141 231.318 155.693C231.766 155.245 232.3 155.021 232.918 155.021C233.516 155.021 234.028 155.245 234.454 155.693C234.881 156.141 235.094 156.675 235.094 157.293C235.094 157.891 234.881 158.413 234.454 158.861C234.028 159.288 233.516 159.501 232.918 159.501ZM244.203 181.805L244.523 177.325C245.505 177.325 246.209 177.229 246.635 177.037C247.062 176.824 247.318 176.44 247.403 175.885C247.489 175.309 247.51 174.477 247.467 173.389L246.891 158.221H251.403L252.043 173.709C252.086 174.947 252.033 176.067 251.883 177.069C251.755 178.051 251.425 178.893 250.891 179.597C250.379 180.301 249.579 180.845 248.491 181.229C247.425 181.613 245.995 181.805 244.203 181.805ZM263.847 181.805C261.863 181.805 260.327 181.603 259.239 181.197C258.173 180.792 257.426 180.163 256.999 179.309C256.573 178.435 256.327 177.336 256.263 176.013L255.591 158.221H260.071L260.743 173.869C260.786 174.851 260.893 175.587 261.063 176.077C261.234 176.568 261.554 176.899 262.023 177.069C262.514 177.24 263.229 177.325 264.167 177.325C264.978 177.325 265.554 177.539 265.895 177.965C266.258 178.371 266.439 178.883 266.439 179.501C266.439 180.163 266.215 180.717 265.767 181.165C265.319 181.592 264.679 181.805 263.847 181.805ZM263.891 181.805L264.211 177.325C264.915 177.325 265.491 177.272 265.939 177.165C266.387 177.037 266.75 176.771 267.027 176.365C267.326 175.939 267.582 175.309 267.795 174.477C268.03 173.624 268.286 172.472 268.563 171.021L272.723 171.789C272.638 172.259 272.52 172.845 272.371 173.549C272.243 174.253 272.179 174.861 272.179 175.373C272.179 175.779 272.254 176.131 272.403 176.429C272.574 176.707 272.851 176.931 273.235 177.101C273.64 177.251 274.195 177.325 274.899 177.325C275.454 177.325 275.923 177.272 276.307 177.165C276.712 177.037 277.054 176.771 277.331 176.365C277.63 175.939 277.886 175.288 278.099 174.413C278.334 173.517 278.558 172.312 278.771 170.797L282.995 171.469C282.91 171.96 282.824 172.483 282.739 173.037C282.654 173.592 282.579 174.104 282.515 174.573C282.451 175.043 282.419 175.427 282.419 175.725C282.419 176.003 282.494 176.269 282.643 176.525C282.814 176.76 283.112 176.952 283.539 177.101C283.987 177.251 284.606 177.325 285.395 177.325C286.355 177.325 287.059 177.123 287.507 176.717C287.976 176.291 288.211 175.651 288.211 174.797C288.211 174.307 288.2 173.784 288.179 173.229C288.158 172.653 288.115 172.013 288.051 171.309C288.008 170.584 287.923 169.763 287.795 168.845L291.923 168.525C292.072 170.36 292.243 171.853 292.435 173.005C292.627 174.157 292.883 175.053 293.203 175.693C293.544 176.312 293.992 176.739 294.547 176.973C295.123 177.208 295.87 177.325 296.787 177.325C297.598 177.325 298.174 177.539 298.515 177.965C298.878 178.371 299.059 178.883 299.059 179.501C299.059 180.163 298.835 180.717 298.387 181.165C297.96 181.592 297.32 181.805 296.467 181.805C295.891 181.805 295.294 181.752 294.675 181.645C294.056 181.56 293.459 181.379 292.883 181.101C292.307 180.803 291.795 180.376 291.347 179.821C290.899 179.267 290.547 178.531 290.291 177.613L290.867 177.805C290.568 178.872 290.163 179.693 289.651 180.269C289.139 180.845 288.51 181.251 287.763 181.485C287.016 181.699 286.12 181.805 285.075 181.805C284.115 181.805 283.262 181.677 282.515 181.421C281.768 181.165 281.171 180.749 280.723 180.173C280.296 179.576 280.072 178.776 280.051 177.773H281.139C280.712 178.968 280.222 179.853 279.667 180.429C279.112 181.005 278.44 181.379 277.651 181.549C276.862 181.72 275.87 181.805 274.675 181.805C273.95 181.805 273.235 181.731 272.531 181.581C271.827 181.411 271.198 181.037 270.643 180.461C270.088 179.864 269.683 178.925 269.427 177.645L271.155 177.581C270.707 178.84 270.12 179.768 269.395 180.365C268.691 180.963 267.88 181.357 266.963 181.549C266.046 181.72 265.022 181.805 263.891 181.805ZM296.485 181.805L296.805 177.325C297.807 177.325 298.575 177.315 299.109 177.293C299.663 177.272 300.079 177.251 300.357 177.229C300.634 177.187 300.869 177.155 301.061 177.133C300.847 176.92 300.57 176.611 300.229 176.205C299.887 175.8 299.578 175.277 299.301 174.637C299.045 173.997 298.917 173.229 298.917 172.333C298.917 171.032 299.247 169.891 299.909 168.909C300.591 167.928 301.509 167.16 302.661 166.605C303.813 166.051 305.103 165.773 306.533 165.773C307.215 165.773 307.845 165.816 308.421 165.901C309.018 165.987 309.615 166.115 310.213 166.285L309.509 170.541C309.082 170.435 308.634 170.349 308.165 170.285C307.695 170.221 307.279 170.189 306.917 170.189C306.213 170.189 305.594 170.307 305.061 170.541C304.549 170.755 304.143 171.064 303.845 171.469C303.567 171.853 303.429 172.323 303.429 172.877C303.429 173.24 303.493 173.581 303.621 173.901C303.77 174.221 303.951 174.509 304.165 174.765C304.378 175.021 304.613 175.245 304.869 175.437C305.125 175.629 305.37 175.789 305.605 175.917C305.861 176.024 306.074 176.099 306.245 176.141C306.778 175.992 307.237 175.864 307.621 175.757C308.026 175.629 308.41 175.512 308.773 175.405C309.157 175.277 309.573 175.117 310.021 174.925C310.469 174.733 311.023 174.499 311.685 174.221L313.125 178.445C311.333 179.32 309.583 180.003 307.877 180.493C306.17 180.984 304.399 181.325 302.565 181.517C300.73 181.709 298.703 181.805 296.485 181.805ZM305.285 162.797C304.623 162.797 304.058 162.573 303.589 162.125C303.141 161.677 302.917 161.123 302.917 160.461C302.917 159.8 303.141 159.235 303.589 158.765C304.058 158.296 304.623 158.061 305.285 158.061C305.925 158.061 306.469 158.296 306.917 158.765C307.386 159.235 307.621 159.8 307.621 160.461C307.621 161.123 307.386 161.677 306.917 162.125C306.469 162.573 305.925 162.797 305.285 162.797Z" fill="white"/>
<g clip-path="url(#clip0_348_15)">
<path d="M192.666 126.662C190.194 126.662 188.177 124.604 188.177 122.082V45.2775C188.177 42.7549 190.194 40.6974 192.666 40.6974H249.304C251.777 40.6974 253.794 42.7549 253.794 45.2775V122.082C253.794 124.604 251.777 126.662 249.304 126.662H192.666ZM191.63 122.082C191.63 122.66 192.1 123.139 192.666 123.139H249.304C249.871 123.139 250.34 122.66 250.34 122.082V56.5797H191.63V122.082ZM250.34 53.0565V45.2775C250.34 44.6997 249.871 44.2205 249.304 44.2205H192.666C192.1 44.2205 191.63 44.6997 191.63 45.2775V53.0565H250.34Z" fill="white"/>
<path d="M249.304 41.402H192.667C190.567 41.402 188.868 43.1354 188.868 45.2775V122.082C188.868 124.224 190.567 125.957 192.667 125.957H249.304C251.404 125.957 253.103 124.224 253.103 122.082V45.2775C253.103 43.1354 251.404 41.402 249.304 41.402ZM192.667 43.5159H249.304C250.258 43.5159 251.031 44.3051 251.031 45.2775V53.7612H190.94V45.2775C190.94 44.3051 191.713 43.5159 192.667 43.5159ZM249.304 123.843H192.667C191.713 123.843 190.94 123.054 190.94 122.082V55.8751H251.031V122.082C251.031 123.054 250.258 123.843 249.304 123.843Z" fill="white"/>
<path d="M216.841 50.2098C215.888 50.2098 215.114 49.4207 215.114 48.4483C215.114 47.4759 215.888 46.6867 216.841 46.6867H225.13C226.083 46.6867 226.856 47.4759 226.856 48.4483C226.856 49.4207 226.083 50.2098 225.13 50.2098H216.841Z" fill="white"/>
<path d="M216.841 49.5052H225.13C225.696 49.5052 226.166 49.0261 226.166 48.4483C226.166 47.8705 225.696 47.3914 225.13 47.3914H216.841C216.275 47.3914 215.805 47.8705 215.805 48.4483C215.805 49.0261 216.275 49.5052 216.841 49.5052Z" fill="white"/>
<path d="M196.12 120.673C194.407 120.673 193.012 119.249 193.012 117.502V70.9964C193.012 69.2489 194.407 67.8255 196.12 67.8255H245.851C247.564 67.8255 248.959 69.2489 248.959 70.9964V117.502C248.959 119.249 247.564 120.673 245.851 120.673H196.12ZM245.505 117.149V110.808H236.54C233.791 113.415 230.241 114.838 226.497 114.838C224.591 114.838 222.74 114.472 220.985 113.753C219.231 114.472 217.38 114.838 215.473 114.838C211.73 114.838 208.18 113.401 205.431 110.808H196.465V117.149H245.505ZM225.06 111.216C225.544 111.287 226.027 111.315 226.497 111.315C227.63 111.315 228.749 111.146 229.813 110.808H225.503C225.351 110.949 225.199 111.09 225.047 111.216H225.06ZM212.144 110.808C213.208 111.146 214.327 111.315 215.46 111.315C216.592 111.315 217.711 111.146 218.775 110.808H212.144ZM245.505 107.285V71.3487H196.465V107.285H202.682C201.397 105.002 200.72 102.437 200.72 99.7874C200.72 91.4869 207.337 84.7366 215.473 84.7366C217.38 84.7366 219.231 85.103 220.985 85.8217C222.74 85.103 224.591 84.7366 226.497 84.7366C234.634 84.7366 241.251 91.4869 241.251 99.7874C241.251 102.437 240.574 105.002 239.289 107.285H245.505ZM235.062 107.285C236.83 105.185 237.797 102.535 237.797 99.7874C237.797 93.4317 232.727 88.2597 226.497 88.2597C226.027 88.2597 225.544 88.2879 225.06 88.3584C228.321 91.2051 230.227 95.3765 230.227 99.7874C230.227 102.437 229.55 105.002 228.265 107.285H235.076H235.062ZM224.038 107.285C225.806 105.185 226.773 102.535 226.773 99.7874C226.773 93.4317 221.704 88.2597 215.473 88.2597C209.243 88.2597 204.174 93.4317 204.174 99.7874C204.174 102.535 205.141 105.185 206.909 107.285H224.052H224.038Z" fill="white"/>
<path d="M248.268 109.046V70.9963C248.268 69.6294 247.191 68.5302 245.851 68.5302H196.12C194.78 68.5302 193.703 69.6294 193.703 70.9963V117.502C193.703 118.869 194.78 119.968 196.12 119.968H245.851C247.191 119.968 248.268 118.869 248.268 117.502V109.046ZM196.12 70.644H245.851C246.044 70.644 246.196 70.7991 246.196 70.9963V107.989H238.032C239.621 105.664 240.56 102.845 240.56 99.7874C240.56 91.8674 234.261 85.4412 226.497 85.4412C224.55 85.4412 222.685 85.8499 220.986 86.5827C219.286 85.8499 217.421 85.4412 215.474 85.4412C207.71 85.4412 201.411 91.8674 201.411 99.7874C201.411 102.845 202.35 105.664 203.939 107.989H195.775V70.9963C195.775 70.7991 195.927 70.644 196.12 70.644ZM227.464 99.7874C227.464 102.944 226.276 105.819 224.356 107.989H206.591C204.671 105.819 203.483 102.944 203.483 99.7874C203.483 93.0371 208.857 87.5551 215.474 87.5551C222.091 87.5551 227.464 93.0371 227.464 99.7874ZM221.897 110.103C220.032 111.315 217.836 112.02 215.46 112.02C213.084 112.02 210.887 111.315 209.023 110.103H221.883H221.897ZM225.226 110.103H232.921C231.056 111.315 228.86 112.02 226.484 112.02C225.42 112.02 224.398 111.865 223.431 111.597C224.066 111.146 224.674 110.639 225.226 110.089V110.103ZM226.995 107.989C228.583 105.664 229.523 102.845 229.523 99.7874C229.523 94.8832 227.105 90.5568 223.431 87.9638C224.411 87.696 225.434 87.541 226.484 87.541C233.101 87.541 238.474 93.023 238.474 99.7733C238.474 102.93 237.286 105.805 235.366 107.975H226.995V107.989ZM245.851 117.854H196.12C195.927 117.854 195.775 117.699 195.775 117.502V110.103H205.707C208.235 112.598 211.675 114.134 215.474 114.134C217.435 114.134 219.3 113.725 220.986 112.992C222.685 113.725 224.536 114.134 226.497 114.134C230.296 114.134 233.736 112.598 236.264 110.103H246.196V117.502C246.196 117.699 246.044 117.854 245.851 117.854Z" fill="white"/>
<path d="M215.473 107.552C211.274 107.552 207.862 104.072 207.862 99.7874C207.862 95.5033 211.274 92.0224 215.473 92.0224C219.673 92.0224 223.085 95.5033 223.085 99.7874C223.085 104.072 219.673 107.552 215.473 107.552ZM215.473 95.5456C213.18 95.5456 211.315 97.4481 211.315 99.7874C211.315 102.127 213.18 104.029 215.473 104.029C217.767 104.029 219.631 102.127 219.631 99.7874C219.631 97.4481 217.767 95.5456 215.473 95.5456Z" fill="white"/>
<path d="M208.539 99.7874C208.539 103.691 211.633 106.848 215.459 106.848C219.286 106.848 222.38 103.691 222.38 99.7874C222.38 95.8838 219.286 92.7271 215.459 92.7271C211.633 92.7271 208.539 95.8838 208.539 99.7874ZM215.473 94.8409C218.153 94.8409 220.322 97.0535 220.322 99.7874C220.322 102.521 218.153 104.734 215.473 104.734C212.793 104.734 210.625 102.521 210.625 99.7874C210.625 97.0535 212.793 94.8409 215.473 94.8409Z" fill="white"/>
</g>
<defs>
<clipPath id="clip0_348_15">
<rect width="65.6171" height="85.9645" fill="white" transform="translate(188.177 40.6974)"/>
</clipPath>
</defs>
</svg>
