<svg width="57" height="95" viewBox="0 0 57 95" fill="none" xmlns="http://www.w3.org/2000/svg">
<g clip-path="url(#clip0_90_11)">
<path fill-rule="evenodd" clip-rule="evenodd" d="M54.1387 60.7863H2.35386V90.0758C2.35386 91.1537 3.23263 92.0285 4.31541 92.0285H52.1772C53.26 92.0285 54.1387 91.1537 54.1387 90.0758V60.7863ZM29.0309 58.4432H54.1387V4.94105C54.1387 3.8632 53.26 2.98842 52.1772 2.98842H29.0309V58.4432ZM26.6771 58.4432V2.98842H4.31541C3.23263 2.98842 2.35386 3.8632 2.35386 4.94105V58.4432H26.6771ZM0 4.94105C0 2.56665 1.93016 0.645264 4.31541 0.645264H52.1772C54.5624 0.645264 56.4926 2.56665 56.4926 4.94105V90.0758C56.4926 92.4502 54.5624 94.3716 52.1772 94.3716H4.31541C1.93016 94.3716 0 92.4502 0 90.0758V4.94105Z" fill="white"/>
<mask id="mask0_90_11" style="mask-type:luminance" maskUnits="userSpaceOnUse" x="32" y="19" width="20" height="36">
<path d="M49.6666 19.3905H33.5819C32.7153 19.3905 32.0127 20.0899 32.0127 20.9526V52.4603C32.0127 53.323 32.7153 54.0224 33.5819 54.0224H49.6666C50.5333 54.0224 51.2359 53.323 51.2359 52.4603V20.9526C51.2359 20.0899 50.5333 19.3905 49.6666 19.3905Z" fill="white"/>
</mask>
<g mask="url(#mask0_90_11)">
<path d="M33.5818 17.0474C31.4162 17.0474 29.6587 18.7969 29.6587 20.9526H34.3664C34.3664 21.39 34.0212 21.7337 33.5818 21.7337V17.0474ZM49.6665 21.7337C49.2271 21.7337 48.8819 21.39 48.8819 20.9526H53.5896C53.5896 18.7969 51.832 17.0474 49.6665 17.0474V21.7337ZM48.8819 52.4603C48.8819 52.0229 49.2271 51.6792 49.6665 51.6792V56.3656C51.832 56.3656 53.5896 54.616 53.5896 52.4603H48.8819ZM33.5818 51.6792C34.0212 51.6792 34.3664 52.0229 34.3664 52.4603H29.6587C29.6587 54.616 31.4162 56.3656 33.5818 56.3656V51.6792ZM34.3664 52.4603V20.9526H29.6587V52.4603H34.3664ZM49.6665 51.6792H33.5818V56.3656H49.6665V51.6792ZM48.8819 20.9526V52.4603H53.5896V20.9526H48.8819ZM33.5818 21.7337H49.6665V17.0474H33.5818V21.7337Z" fill="white"/>
</g>
<g clip-path="url(#clip1_90_11)">
<path fill-rule="evenodd" clip-rule="evenodd" d="M4.91892 94C2.20973 94 0 91.7741 0 89.0451V5.95492C0 3.2259 2.20973 1 4.91892 1H51.0811C53.7903 1 56 3.2259 56 5.95492V89.0451C56 91.7741 53.7903 94 51.0811 94H4.91892ZM3.78378 89.0451C3.78378 89.6702 4.29838 90.1885 4.91892 90.1885H51.0811C51.7016 90.1885 52.2162 89.6702 52.2162 89.0451V61.2213H3.78378V89.0451ZM52.2162 57.4098V5.95492C52.2162 5.32984 51.7016 4.81148 51.0811 4.81148H29.5135V57.4098H52.2162ZM25.7297 57.4098V4.81148H4.91892C4.29838 4.81148 3.78378 5.32984 3.78378 5.95492V57.4098H25.7297Z" fill="white"/>
<path fill-rule="evenodd" clip-rule="evenodd" d="M52.9731 60.459H3.02711V89.0451C3.02711 90.0971 3.87467 90.9508 4.919 90.9508H51.0812C52.1255 90.9508 52.9731 90.0971 52.9731 89.0451V60.459ZM28.7568 58.1721H52.9731V5.95492C52.9731 4.90295 52.1255 4.04918 51.0812 4.04918H28.7568V58.1721ZM26.4866 58.1721V4.04918H4.919C3.87467 4.04918 3.02711 4.90295 3.02711 5.95492V58.1721H26.4866ZM0.756836 5.95492C0.756836 3.63754 2.61846 1.7623 4.919 1.7623H51.0812C53.3817 1.7623 55.2433 3.63754 55.2433 5.95492V89.0451C55.2433 91.3625 53.3817 93.2377 51.0812 93.2377H4.919C2.61846 93.2377 0.756836 91.3625 0.756836 89.0451V5.95492Z" fill="white"/>
<mask id="mask1_90_11" style="mask-type:luminance" maskUnits="userSpaceOnUse" x="31" y="20" width="20" height="34">
<path d="M48.6594 20.0574H33.1458C32.3099 20.0574 31.6323 20.74 31.6323 21.582V52.3329C31.6323 53.1749 32.3099 53.8575 33.1458 53.8575H48.6594C49.4952 53.8575 50.1729 53.1749 50.1729 52.3329V21.582C50.1729 20.74 49.4952 20.0574 48.6594 20.0574Z" fill="white"/>
</mask>
<g mask="url(#mask1_90_11)">
<path d="M33.146 56.9067C30.6487 56.9067 28.6055 54.8485 28.6055 52.3329V21.5819C28.6055 19.0664 30.6487 17.0082 33.146 17.0082H48.6595C51.1568 17.0082 53.2001 19.0664 53.2001 21.5819V52.3329C53.2001 54.8485 51.1568 56.9067 48.6595 56.9067H33.146ZM47.146 50.8083V23.1065H34.6595V50.8083H47.146Z" fill="white"/>
<path d="M33.1461 17.7705C31.0574 17.7705 29.3623 19.478 29.3623 21.582H33.9028C33.9028 22.0088 33.5699 22.3442 33.1461 22.3442V17.7705ZM48.6596 22.3442C48.2358 22.3442 47.9028 22.0088 47.9028 21.582H52.4434C52.4434 19.478 50.7483 17.7705 48.6596 17.7705V22.3442ZM47.9028 52.3329C47.9028 51.906 48.2358 51.5706 48.6596 51.5706V56.1444C50.7483 56.1444 52.4434 54.4369 52.4434 52.3329H47.9028ZM33.1461 51.5706C33.5699 51.5706 33.9028 51.906 33.9028 52.3329H29.3623C29.3623 54.4369 31.0574 56.1444 33.1461 56.1444V51.5706ZM33.9028 52.3329V21.582H29.3623V52.3329H33.9028ZM48.6596 51.5706H33.1461V56.1444H48.6596V51.5706ZM47.9028 21.582V52.3329H52.4434V21.582H47.9028ZM33.1461 22.3442H48.6596V17.7705H33.1461V22.3442Z" fill="white"/>
</g>
<path fill-rule="evenodd" clip-rule="evenodd" d="M9.4596 55.123C7.58285 55.123 6.0542 53.5831 6.0542 51.6926V33.3976C6.0542 31.5071 7.58285 29.9672 9.4596 29.9672H20.0542C21.931 29.9672 23.4596 31.5071 23.4596 33.3976V51.6926C23.4596 53.5831 21.931 55.123 20.0542 55.123H9.4596ZM19.6758 51.3115V41.4017H18.5407V47.5C18.5407 47.9269 18.2077 48.2623 17.7839 48.2623H11.7299C11.3061 48.2623 10.9731 47.9269 10.9731 47.5V41.4017H9.83798V51.3115H19.6758ZM19.6758 37.5902V33.7787H9.83798V37.5902H19.6758Z" fill="white"/>
<path fill-rule="evenodd" clip-rule="evenodd" d="M11.73 40.6393H9.08131V51.6926C9.08131 51.906 9.24779 52.0738 9.45968 52.0738H20.0543C20.2662 52.0738 20.4327 51.906 20.4327 51.6926V40.6393H17.784V47.5H11.73V40.6393ZM15.5137 40.6393H14.0002V45.2131H15.5137V40.6393ZM9.45968 33.0164C9.24779 33.0164 9.08131 33.1841 9.08131 33.3975V38.3524H20.4327V33.3975C20.4327 33.1841 20.2662 33.0164 20.0543 33.0164H9.45968ZM6.81104 33.3975C6.81104 31.9187 7.99158 30.7295 9.45968 30.7295H20.0543C21.5224 30.7295 22.7029 31.9187 22.7029 33.3975V51.6926C22.7029 53.1715 21.5224 54.3606 20.0543 54.3606H9.45968C7.99158 54.3606 6.81104 53.1715 6.81104 51.6926V33.3975Z" fill="white"/>
</g>
</g>
<defs>
<clipPath id="clip0_90_11">
<rect width="56.4926" height="93.7264" fill="white" transform="translate(0 0.645264)"/>
</clipPath>
<clipPath id="clip1_90_11">
<rect width="56" height="93" fill="white" transform="translate(0 1)"/>
</clipPath>
</defs>
</svg>
