<svg width="587" height="430" viewBox="0 0 587 430" fill="none" xmlns="http://www.w3.org/2000/svg">
<path d="M24.2411 288.496V291.12H13.5211V297.936H23.2811V300.528H13.5211V310H10.5451V288.496H24.2411ZM40.5701 302.224V303.088H28.1221C28.3461 306.608 29.9781 307.792 33.0821 307.792C35.4821 307.792 36.6661 307.216 37.3381 305.552H40.2181C39.1941 308.656 36.4421 310.416 33.0821 310.416C28.6981 310.416 25.2101 307.216 25.2101 302.224C25.2101 297.264 28.6981 294.064 32.9221 294.064C36.7301 294.064 40.5701 296.72 40.5701 302.224ZM28.1541 300.848H37.7221C37.4341 297.744 35.8661 296.656 32.9221 296.656C30.1061 296.656 28.5061 297.712 28.1541 300.848ZM54.6588 296.432V294.48H57.5388V310H55.0748L54.8188 307.856C53.6028 309.488 51.8108 310.416 49.5388 310.416C45.4108 310.416 42.1788 307.056 42.1788 302.224C42.1788 297.424 45.4108 294.064 49.5388 294.064C51.7148 294.064 53.4748 294.928 54.6588 296.432ZM49.9548 307.792C53.1868 307.792 54.8188 306.16 54.8188 302.224C54.8188 298.288 53.1868 296.656 49.9548 296.656C46.6908 296.656 45.0588 298.288 45.0588 302.224C45.0588 306.16 46.6908 307.792 49.9548 307.792ZM68.9171 294.48V297.008H65.1091V306.256C65.1091 307.28 65.4931 307.504 66.5491 307.504H68.9171V310H66.2291C64.1171 310 62.2291 309.04 62.2291 306.544V297.008H59.7651V294.48H62.2291V290.416H65.1091V294.48H68.9171ZM82.0143 303.856V294.48H84.8623V310H82.4303L82.1743 307.888C81.1183 309.456 79.4223 310.416 77.1823 310.416C73.5023 310.416 71.1663 307.664 71.1663 303.632V294.48H74.0143V303.856C74.0143 306.704 75.2623 307.824 77.9823 307.824C80.6703 307.824 82.0143 306.704 82.0143 303.856ZM96.0048 294.064H96.7408V296.592H95.3968C92.5488 296.592 91.2368 297.648 91.2368 300.592V310H88.3888V294.48H90.8528L91.1088 296.624C92.0368 295.024 93.6048 294.064 96.0048 294.064ZM102.019 291.6H99.1388V288.496H102.019V291.6ZM102.019 310H99.1388V294.48H102.019V310ZM113.225 294.064C116.905 294.064 119.241 296.784 119.241 300.816V310H116.393V300.592C116.393 297.776 115.145 296.656 112.457 296.656C109.737 296.656 108.393 297.776 108.393 300.592V310H105.545V294.48H108.009L108.265 296.592C109.289 295.024 110.985 294.064 113.225 294.064ZM134.128 296.528L134.352 294.48H136.848V309.456C136.72 313.488 133.744 316.144 129.424 316.144C125.424 316.144 122.896 314.032 122.096 311.312H125.168C125.776 312.976 126.928 313.712 129.584 313.712C132.336 313.712 133.968 312.464 133.968 309.84V307.632C132.784 309.104 131.056 309.904 128.944 309.904C124.912 309.904 121.648 306.704 121.648 301.968C121.648 297.232 124.912 294.064 128.944 294.064C131.152 294.064 132.944 294.928 134.128 296.528ZM129.328 307.312C132.464 307.312 134.128 305.84 134.128 301.968C134.128 298.128 132.464 296.656 129.328 296.656C126.192 296.656 124.528 298.128 124.528 301.968C124.528 305.84 126.192 307.312 129.328 307.312ZM160.492 297.744V288.496H163.436V310H160.492V300.4H149.74V310H146.764V288.496H149.74V297.744H160.492ZM178.471 296.432V294.48H181.351V310H178.887L178.631 307.856C177.415 309.488 175.623 310.416 173.351 310.416C169.223 310.416 165.991 307.056 165.991 302.224C165.991 297.424 169.223 294.064 173.351 294.064C175.527 294.064 177.287 294.928 178.471 296.432ZM173.767 307.792C176.999 307.792 178.631 306.16 178.631 302.224C178.631 298.288 176.999 296.656 173.767 296.656C170.503 296.656 168.871 298.288 168.871 302.224C168.871 306.16 170.503 307.792 173.767 307.792ZM189.754 307.824V310.32H188.538C186.362 310.32 184.858 309.456 184.858 307.056V288.496H187.738V306.576C187.738 307.6 188.058 307.824 188.986 307.824H189.754ZM203.253 296.432V294.48H206.133V310H203.669L203.413 307.856C202.197 309.488 200.405 310.416 198.133 310.416C194.005 310.416 190.773 307.056 190.773 302.224C190.773 297.424 194.005 294.064 198.133 294.064C200.309 294.064 202.069 294.928 203.253 296.432ZM198.549 307.792C201.781 307.792 203.413 306.16 203.413 302.224C203.413 298.288 201.781 296.656 198.549 296.656C195.285 296.656 193.653 298.288 193.653 302.224C193.653 306.16 195.285 307.792 198.549 307.792ZM229.997 310H226.445L220.397 302.992H218.925V310H216.045V288.496H218.925V300.528H220.461L226.125 294.48H229.709L222.829 301.744L229.997 310ZM242.878 296.432V294.48H245.758V310H243.294L243.038 307.856C241.822 309.488 240.03 310.416 237.758 310.416C233.63 310.416 230.398 307.056 230.398 302.224C230.398 297.424 233.63 294.064 237.758 294.064C239.934 294.064 241.694 294.928 242.878 296.432ZM238.174 307.792C241.406 307.792 243.038 306.16 243.038 302.224C243.038 298.288 241.406 296.656 238.174 296.656C234.91 296.656 233.278 298.288 233.278 302.224C233.278 306.16 234.91 307.792 238.174 307.792ZM260.752 310H248.304V307.856L256.944 296.88H248.72V294.448H260.432V296.592L251.824 307.568H260.752V310ZM266.206 291.6H263.326V288.496H266.206V291.6ZM266.206 310H263.326V294.48H266.206V310ZM285.541 294.064C288.933 294.064 290.629 296.72 290.629 300.592V310H287.781V300.112C287.781 297.776 287.013 296.656 284.741 296.656C282.469 296.656 281.605 297.776 281.605 300.112V310H278.757V300.112C278.757 297.776 277.989 296.656 275.717 296.656C273.445 296.656 272.581 297.776 272.581 300.112V310H269.733V294.48H272.197L272.421 296.368C273.253 294.928 274.597 294.064 276.517 294.064C278.757 294.064 280.261 295.376 281.029 297.136C281.829 295.248 283.269 294.064 285.541 294.064ZM312.965 306.768L315.781 294.48H318.629L314.629 310H311.621L308.773 298.512L305.893 310H302.885L298.885 294.48H301.733L304.549 306.768L307.557 294.48H309.957L312.965 306.768ZM335.039 302.224V303.088H322.591C322.815 306.608 324.447 307.792 327.551 307.792C329.951 307.792 331.135 307.216 331.807 305.552H334.687C333.663 308.656 330.911 310.416 327.551 310.416C323.167 310.416 319.679 307.216 319.679 302.224C319.679 297.264 323.167 294.064 327.391 294.064C331.199 294.064 335.039 296.72 335.039 302.224ZM322.623 300.848H332.191C331.903 297.744 330.335 296.656 327.391 296.656C324.575 296.656 322.975 297.712 322.623 300.848ZM351.95 294.064C356.078 294.064 359.214 297.424 359.214 302.224C359.214 307.056 356.078 310.416 351.95 310.416C349.71 310.416 347.918 309.488 346.766 307.856L346.51 310H344.014V288.656H346.894V296.432C348.046 294.928 349.774 294.064 351.95 294.064ZM351.534 307.792C354.702 307.792 356.334 306.16 356.334 302.224C356.334 298.288 354.702 296.656 351.534 296.656C348.366 296.656 346.734 298.288 346.734 302.224C346.734 306.16 348.366 307.792 351.534 307.792ZM369.38 294.064H370.116V296.592H368.772C365.924 296.592 364.612 297.648 364.612 300.592V310H361.764V294.48H364.228L364.484 296.624C365.412 295.024 366.98 294.064 369.38 294.064ZM375.394 291.6H372.514V288.496H375.394V291.6ZM375.394 310H372.514V294.48H375.394V310ZM386.6 294.064C390.28 294.064 392.616 296.784 392.616 300.816V310H389.768V300.592C389.768 297.776 388.52 296.656 385.832 296.656C383.112 296.656 381.768 297.776 381.768 300.592V310H378.92V294.48H381.384L381.64 296.592C382.664 295.024 384.36 294.064 386.6 294.064ZM407.503 296.528L407.727 294.48H410.223V309.456C410.095 313.488 407.119 316.144 402.799 316.144C398.799 316.144 396.271 314.032 395.471 311.312H398.543C399.151 312.976 400.303 313.712 402.959 313.712C405.711 313.712 407.343 312.464 407.343 309.84V307.632C406.159 309.104 404.431 309.904 402.319 309.904C398.287 309.904 395.023 306.704 395.023 301.968C395.023 297.232 398.287 294.064 402.319 294.064C404.527 294.064 406.319 294.928 407.503 296.528ZM402.703 307.312C405.839 307.312 407.503 305.84 407.503 301.968C407.503 298.128 405.839 296.656 402.703 296.656C399.567 296.656 397.903 298.128 397.903 301.968C397.903 305.84 399.567 307.312 402.703 307.312ZM428.011 294.48V297.008H424.203V306.256C424.203 307.28 424.587 307.504 425.643 307.504H428.011V310H425.323C423.211 310 421.323 309.04 421.323 306.544V297.008H418.859V294.48H421.323V290.416H424.203V294.48H428.011ZM436.611 310.416C432.227 310.416 428.835 307.088 428.835 302.224C428.835 297.36 432.227 294.064 436.611 294.064C440.963 294.064 444.355 297.36 444.355 302.224C444.355 307.088 440.963 310.416 436.611 310.416ZM436.611 307.792C439.907 307.792 441.475 306.096 441.475 302.224C441.475 298.352 439.907 296.656 436.611 296.656C433.283 296.656 431.715 298.352 431.715 302.224C431.715 306.096 433.283 307.792 436.611 307.792ZM459.534 306.992L464.11 294.48H467.118L460.206 312.112C459.31 314.352 458.19 315.664 455.406 315.664H453.454V313.04H455.822C456.558 313.04 457.006 312.784 457.294 312.144L458.222 310.096L451.822 294.48H454.83L458.606 304.208C458.894 304.976 459.246 306.032 459.534 306.992ZM475.642 310.416C471.258 310.416 467.866 307.088 467.866 302.224C467.866 297.36 471.258 294.064 475.642 294.064C479.994 294.064 483.386 297.36 483.386 302.224C483.386 307.088 479.994 310.416 475.642 310.416ZM475.642 307.792C478.938 307.792 480.506 306.096 480.506 302.224C480.506 298.352 478.938 296.656 475.642 296.656C472.314 296.656 470.746 298.352 470.746 302.224C470.746 306.096 472.314 307.792 475.642 307.792ZM496.639 303.856V294.48H499.487V310H497.055L496.799 307.888C495.743 309.456 494.047 310.416 491.807 310.416C488.127 310.416 485.791 307.664 485.791 303.632V294.48H488.639V303.856C488.639 306.704 489.887 307.824 492.607 307.824C495.295 307.824 496.639 306.704 496.639 303.856ZM512.364 288.496V307.376H523.532V310H509.42V288.496H512.364ZM532.299 310.416C527.915 310.416 524.523 307.088 524.523 302.224C524.523 297.36 527.915 294.064 532.299 294.064C536.651 294.064 540.043 297.36 540.043 302.224C540.043 307.088 536.651 310.416 532.299 310.416ZM532.299 307.792C535.595 307.792 537.163 306.096 537.163 302.224C537.163 298.352 535.595 296.656 532.299 296.656C528.971 296.656 527.403 298.352 527.403 302.224C527.403 306.096 528.971 307.792 532.299 307.792ZM548.311 307.184L552.823 294.48H555.831L549.911 310H546.711L540.791 294.48H543.767L548.311 307.184ZM571.914 302.224V303.088H559.466C559.69 306.608 561.322 307.792 564.426 307.792C566.826 307.792 568.01 307.216 568.682 305.552H571.562C570.538 308.656 567.786 310.416 564.426 310.416C560.042 310.416 556.554 307.216 556.554 302.224C556.554 297.264 560.042 294.064 564.266 294.064C568.074 294.064 571.914 296.72 571.914 302.224ZM559.498 300.848H569.066C568.778 297.744 567.21 296.656 564.266 296.656C561.45 296.656 559.85 297.712 559.498 300.848ZM576.834 308.336L575.042 313.52H573.09L574.082 307.056H576.098C576.802 307.056 577.122 307.632 576.834 308.336ZM50.9366 341.56C50.9366 339.704 50.1366 338.648 47.8326 337.976L44.0886 336.92C40.3446 335.864 38.3926 334.168 38.3926 330.712C38.3926 327.384 41.6566 325.08 45.9446 325.08C50.2006 325.08 53.3046 327.224 53.9446 330.84H51.0006C50.6166 328.6 49.1766 327.704 45.9766 327.704C42.8406 327.704 41.3366 328.472 41.3366 330.712C41.3366 332.632 42.4246 333.464 44.6646 334.136L48.3766 335.224C52.1526 336.312 53.8806 338.168 53.8806 341.464C53.8806 345.592 50.1366 347.416 45.9766 347.416C41.8806 347.416 38.2646 345.656 37.4326 341.08H40.4406C40.8886 344.024 42.7126 344.792 45.9766 344.792C49.4326 344.792 50.9366 344.056 50.9366 341.56ZM64.5421 331.48V334.008H60.7341V343.256C60.7341 344.28 61.1181 344.504 62.1741 344.504H64.5421V347H61.8541C59.7421 347 57.8541 346.04 57.8541 343.544V334.008H55.3901V331.48H57.8541V327.416H60.7341V331.48H64.5421ZM73.1423 347.416C68.7583 347.416 65.3663 344.088 65.3663 339.224C65.3663 334.36 68.7583 331.064 73.1423 331.064C77.4943 331.064 80.8863 334.36 80.8863 339.224C80.8863 344.088 77.4943 347.416 73.1423 347.416ZM73.1423 344.792C76.4383 344.792 78.0063 343.096 78.0063 339.224C78.0063 335.352 76.4383 333.656 73.1423 333.656C69.8143 333.656 68.2463 335.352 68.2463 339.224C68.2463 343.096 69.8143 344.792 73.1423 344.792ZM91.0673 331.064H91.8033V333.592H90.4593C87.6113 333.592 86.2993 334.648 86.2993 337.592V347H83.4513V331.48H85.9153L86.1713 333.624C87.0993 332.024 88.6673 331.064 91.0673 331.064ZM97.0813 328.6H94.2013V325.496H97.0813V328.6ZM97.0813 347H94.2013V331.48H97.0813V347ZM115.008 339.224V340.088H102.56C102.784 343.608 104.416 344.792 107.52 344.792C109.92 344.792 111.104 344.216 111.776 342.552H114.656C113.632 345.656 110.88 347.416 107.52 347.416C103.136 347.416 99.6476 344.216 99.6476 339.224C99.6476 334.264 103.136 331.064 107.36 331.064C111.168 331.064 115.008 333.72 115.008 339.224ZM102.592 337.848H112.16C111.872 334.744 110.304 333.656 107.36 333.656C104.544 333.656 102.944 334.712 102.592 337.848ZM127.016 342.872C127.016 341.624 126.376 341.08 124.488 340.632L121.736 339.928C118.664 339.192 117.16 337.976 117.16 335.448C117.16 332.792 119.944 331.064 123.336 331.064C126.696 331.064 129.32 332.824 129.768 335.8H126.92C126.632 334.2 125.512 333.56 123.336 333.56C121.064 333.56 120.008 334.2 120.008 335.448C120.008 336.536 120.552 337.016 122.376 337.496L125.192 338.2C128.392 339.032 129.864 340.152 129.864 342.808C129.864 345.688 126.984 347.416 123.432 347.416C120.104 347.416 117.128 345.88 116.616 342.264H119.464C119.784 344.376 121.032 344.92 123.432 344.92C125.8 344.92 127.016 344.248 127.016 342.872ZM135.396 345.336L133.604 350.52H131.652L132.644 344.056H134.66C135.364 344.056 135.684 344.632 135.396 345.336ZM156.159 333.432V331.48H159.039V347H156.575L156.319 344.856C155.103 346.488 153.311 347.416 151.039 347.416C146.911 347.416 143.679 344.056 143.679 339.224C143.679 334.424 146.911 331.064 151.039 331.064C153.215 331.064 154.975 331.928 156.159 333.432ZM151.455 344.792C154.687 344.792 156.319 343.16 156.319 339.224C156.319 335.288 154.687 333.656 151.455 333.656C148.191 333.656 146.559 335.288 146.559 339.224C146.559 343.16 148.191 344.792 151.455 344.792ZM170.225 331.064C173.905 331.064 176.241 333.784 176.241 337.816V347H173.393V337.592C173.393 334.776 172.145 333.656 169.457 333.656C166.737 333.656 165.393 334.776 165.393 337.592V347H162.545V331.48H165.009L165.265 333.592C166.289 332.024 167.985 331.064 170.225 331.064ZM191.128 333.432V325.496H194.008V347H191.544L191.288 344.856C190.072 346.488 188.28 347.416 186.008 347.416C181.88 347.416 178.648 344.056 178.648 339.224C178.648 334.424 181.88 331.064 186.008 331.064C188.184 331.064 189.944 331.928 191.128 333.432ZM186.424 344.792C189.752 344.792 191.288 343.16 191.288 339.224C191.288 335.288 189.752 333.656 186.424 333.656C183.096 333.656 181.528 335.288 181.528 339.224C181.528 343.16 183.096 344.792 186.424 344.792ZM210.704 325.496C217.456 325.496 221.904 329.56 221.904 336.216C221.904 342.904 217.456 347 210.704 347H203.92V325.496H210.704ZM206.896 344.344H210.8C216.464 344.344 218.928 342.072 218.928 336.216C218.928 330.424 216.464 328.12 210.8 328.12H206.896V344.344ZM239.039 339.224V340.088H226.591C226.815 343.608 228.447 344.792 231.551 344.792C233.951 344.792 235.135 344.216 235.807 342.552H238.687C237.663 345.656 234.911 347.416 231.551 347.416C227.167 347.416 223.679 344.216 223.679 339.224C223.679 334.264 227.167 331.064 231.391 331.064C235.199 331.064 239.039 333.72 239.039 339.224ZM226.623 337.848H236.191C235.903 334.744 234.335 333.656 231.391 333.656C228.575 333.656 226.975 334.712 226.623 337.848ZM246.504 344.824V347.32H245.288C243.112 347.32 241.608 346.456 241.608 344.056V325.496H244.488V343.576C244.488 344.6 244.808 344.824 245.736 344.824H246.504ZM251.363 328.6H248.483V325.496H251.363V328.6ZM251.363 347H248.483V331.48H251.363V347ZM253.929 339.224C253.929 334.36 257.321 331.064 261.705 331.064C265.129 331.064 267.945 333.08 268.745 336.536H265.993C265.481 334.488 263.977 333.656 261.705 333.656C258.377 333.656 256.809 335.352 256.809 339.224C256.809 343.064 258.377 344.792 261.705 344.792C263.977 344.792 265.481 343.96 265.993 341.88H268.745C267.945 345.336 265.129 347.384 261.705 347.384C257.321 347.384 253.929 344.056 253.929 339.224ZM274.175 328.6H271.295V325.496H274.175V328.6ZM274.175 347H271.295V331.48H274.175V347ZM284.517 347.416C280.133 347.416 276.741 344.088 276.741 339.224C276.741 334.36 280.133 331.064 284.517 331.064C288.869 331.064 292.261 334.36 292.261 339.224C292.261 344.088 288.869 347.416 284.517 347.416ZM284.517 344.792C287.813 344.792 289.381 343.096 289.381 339.224C289.381 335.352 287.813 333.656 284.517 333.656C281.189 333.656 279.621 335.352 279.621 339.224C279.621 343.096 281.189 344.792 284.517 344.792ZM305.514 340.856V331.48H308.362V347H305.93L305.674 344.888C304.618 346.456 302.922 347.416 300.682 347.416C297.002 347.416 294.666 344.664 294.666 340.632V331.48H297.514V340.856C297.514 343.704 298.762 344.824 301.482 344.824C304.17 344.824 305.514 343.704 305.514 340.856ZM321.329 342.872C321.329 341.624 320.689 341.08 318.801 340.632L316.049 339.928C312.977 339.192 311.473 337.976 311.473 335.448C311.473 332.792 314.257 331.064 317.649 331.064C321.009 331.064 323.633 332.824 324.081 335.8H321.233C320.945 334.2 319.825 333.56 317.649 333.56C315.377 333.56 314.321 334.2 314.321 335.448C314.321 336.536 314.865 337.016 316.689 337.496L319.505 338.2C322.705 339.032 324.177 340.152 324.177 342.808C324.177 345.688 321.297 347.416 317.745 347.416C314.417 347.416 311.441 345.88 310.929 342.264H313.777C314.097 344.376 315.345 344.92 317.745 344.92C320.113 344.92 321.329 344.248 321.329 342.872ZM339.923 325.496C346.675 325.496 351.123 329.56 351.123 336.216C351.123 342.904 346.675 347 339.923 347H333.139V325.496H339.923ZM336.115 344.344H340.019C345.683 344.344 348.147 342.072 348.147 336.216C348.147 330.424 345.683 328.12 340.019 328.12H336.115V344.344ZM356.738 328.6H353.858V325.496H356.738V328.6ZM356.738 347H353.858V331.48H356.738V347ZM369.704 342.872C369.704 341.624 369.064 341.08 367.176 340.632L364.424 339.928C361.352 339.192 359.848 337.976 359.848 335.448C359.848 332.792 362.632 331.064 366.024 331.064C369.384 331.064 372.008 332.824 372.456 335.8H369.608C369.32 334.2 368.2 333.56 366.024 333.56C363.752 333.56 362.696 334.2 362.696 335.448C362.696 336.536 363.24 337.016 365.064 337.496L367.88 338.2C371.08 339.032 372.552 340.152 372.552 342.808C372.552 345.688 369.672 347.416 366.12 347.416C362.792 347.416 359.816 345.88 359.304 342.264H362.152C362.472 344.376 363.72 344.92 366.12 344.92C368.488 344.92 369.704 344.248 369.704 342.872ZM382.948 331.064C386.788 331.064 389.124 333.784 389.124 337.816V347H386.276V337.592C386.276 334.776 385.028 333.656 382.18 333.656C379.3 333.656 377.956 334.776 377.956 337.592V347H375.108V325.496H377.956V333.368C379.012 331.928 380.708 331.064 382.948 331.064ZM406.883 339.224V340.088H394.435C394.659 343.608 396.291 344.792 399.395 344.792C401.795 344.792 402.979 344.216 403.651 342.552H406.531C405.507 345.656 402.755 347.416 399.395 347.416C395.011 347.416 391.523 344.216 391.523 339.224C391.523 334.264 395.011 331.064 399.235 331.064C403.043 331.064 406.883 333.72 406.883 339.224ZM394.467 337.848H404.035C403.747 334.744 402.179 333.656 399.235 333.656C396.419 333.656 394.819 334.712 394.467 337.848ZM418.891 342.872C418.891 341.624 418.251 341.08 416.363 340.632L413.611 339.928C410.539 339.192 409.035 337.976 409.035 335.448C409.035 332.792 411.819 331.064 415.211 331.064C418.571 331.064 421.195 332.824 421.643 335.8H418.795C418.507 334.2 417.387 333.56 415.211 333.56C412.939 333.56 411.883 334.2 411.883 335.448C411.883 336.536 412.427 337.016 414.251 337.496L417.067 338.2C420.267 339.032 421.739 340.152 421.739 342.808C421.739 345.688 418.859 347.416 415.307 347.416C411.979 347.416 409.003 345.88 408.491 342.264H411.339C411.659 344.376 412.907 344.92 415.307 344.92C417.675 344.92 418.891 344.248 418.891 342.872ZM438.573 331.48V334.008H434.765V343.256C434.765 344.28 435.149 344.504 436.205 344.504H438.573V347H435.885C433.773 347 431.885 346.04 431.885 343.544V334.008H429.421V331.48H431.885V327.416H434.765V331.48H438.573ZM447.174 347.416C442.79 347.416 439.398 344.088 439.398 339.224C439.398 334.36 442.79 331.064 447.174 331.064C451.526 331.064 454.918 334.36 454.918 339.224C454.918 344.088 451.526 347.416 447.174 347.416ZM447.174 344.792C450.47 344.792 452.038 343.096 452.038 339.224C452.038 335.352 450.47 333.656 447.174 333.656C443.846 333.656 442.278 335.352 442.278 339.224C442.278 343.096 443.846 344.792 447.174 344.792ZM471.761 331.48V334.008H467.953V343.256C467.953 344.28 468.337 344.504 469.393 344.504H471.761V347H469.073C466.961 347 465.073 346.04 465.073 343.544V334.008H462.609V331.48H465.073V327.416H467.953V331.48H471.761ZM482.01 331.064C485.85 331.064 488.186 333.784 488.186 337.816V347H485.338V337.592C485.338 334.776 484.09 333.656 481.242 333.656C478.362 333.656 477.018 334.776 477.018 337.592V347H474.17V325.496H477.018V333.368C478.074 331.928 479.77 331.064 482.01 331.064ZM505.945 339.224V340.088H493.497C493.721 343.608 495.353 344.792 498.457 344.792C500.857 344.792 502.041 344.216 502.713 342.552H505.593C504.569 345.656 501.817 347.416 498.457 347.416C494.073 347.416 490.585 344.216 490.585 339.224C490.585 334.264 494.073 331.064 498.297 331.064C502.105 331.064 505.945 333.72 505.945 339.224ZM493.529 337.848H503.097C502.809 334.744 501.241 333.656 498.297 333.656C495.481 333.656 493.881 334.712 493.529 337.848ZM517.864 325.496V344.376H529.032V347H514.92V325.496H517.864ZM549.43 332.376H546.582C545.878 329.048 543.798 327.768 539.99 327.768C535.19 327.768 532.502 330.264 532.502 336.216C532.502 342.2 535.094 344.728 539.958 344.728C544.438 344.728 546.07 342.584 546.55 341.112C546.71 340.632 546.742 340.184 546.742 339.704V338.072H539.67V335.576H549.43V339.896C549.43 340.44 549.398 341.016 549.206 341.592C548.534 343.928 545.302 347.416 539.958 347.416C533.91 347.416 529.526 342.904 529.526 336.216C529.526 329.592 534.102 325.08 539.99 325.08C544.694 325.08 548.406 327.736 549.43 332.376ZM160.774 384H157.254L149.222 374.592H147.302V384H144.326V362.496H147.302V372.032H149.254L157.03 362.496H160.422L151.59 373.28L160.774 384ZM165.894 365.6H163.014V362.496H165.894V365.6ZM165.894 384H163.014V368.48H165.894V384ZM177.292 368.48V371.008H173.484V380.256C173.484 381.28 173.868 381.504 174.924 381.504H177.292V384H174.604C172.492 384 170.604 383.04 170.604 380.544V371.008H168.14V368.48H170.604V364.416H173.484V368.48H177.292ZM178.116 376.224C178.116 371.36 181.508 368.064 185.892 368.064C189.316 368.064 192.132 370.08 192.932 373.536H190.18C189.668 371.488 188.164 370.656 185.892 370.656C182.564 370.656 180.996 372.352 180.996 376.224C180.996 380.064 182.564 381.792 185.892 381.792C188.164 381.792 189.668 380.96 190.18 378.88H192.932C192.132 382.336 189.316 384.384 185.892 384.384C181.508 384.384 178.116 381.056 178.116 376.224ZM203.323 368.064C207.163 368.064 209.499 370.784 209.499 374.816V384H206.651V374.592C206.651 371.776 205.403 370.656 202.555 370.656C199.675 370.656 198.331 371.776 198.331 374.592V384H195.483V362.496H198.331V370.368C199.387 368.928 201.083 368.064 203.323 368.064ZM227.258 376.224V377.088H214.81C215.034 380.608 216.666 381.792 219.77 381.792C222.17 381.792 223.354 381.216 224.026 379.552H226.906C225.882 382.656 223.13 384.416 219.77 384.416C215.386 384.416 211.898 381.216 211.898 376.224C211.898 371.264 215.386 368.064 219.61 368.064C223.418 368.064 227.258 370.72 227.258 376.224ZM214.842 374.848H224.41C224.122 371.744 222.554 370.656 219.61 370.656C216.794 370.656 215.194 371.712 214.842 374.848ZM237.506 368.064C241.186 368.064 243.522 370.784 243.522 374.816V384H240.674V374.592C240.674 371.776 239.426 370.656 236.738 370.656C234.018 370.656 232.674 371.776 232.674 374.592V384H229.826V368.48H232.29L232.546 370.592C233.57 369.024 235.266 368.064 237.506 368.064ZM268.111 362.496V365.088H261.487V384H258.607V365.088H252.015V362.496H268.111ZM278.198 368.064C282.038 368.064 284.374 370.784 284.374 374.816V384H281.526V374.592C281.526 371.776 280.278 370.656 277.43 370.656C274.55 370.656 273.206 371.776 273.206 374.592V384H270.358V362.496H273.206V370.368C274.262 368.928 275.958 368.064 278.198 368.064ZM290.613 365.6H287.733V362.496H290.613V365.6ZM290.613 384H287.733V368.48H290.613V384ZM303.579 379.872C303.579 378.624 302.939 378.08 301.051 377.632L298.299 376.928C295.227 376.192 293.723 374.976 293.723 372.448C293.723 369.792 296.507 368.064 299.899 368.064C303.259 368.064 305.883 369.824 306.331 372.8H303.483C303.195 371.2 302.075 370.56 299.899 370.56C297.627 370.56 296.571 371.2 296.571 372.448C296.571 373.536 297.115 374.016 298.939 374.496L301.755 375.2C304.955 376.032 306.427 377.152 306.427 379.808C306.427 382.688 303.547 384.416 299.995 384.416C296.667 384.416 293.691 382.88 293.179 379.264H296.027C296.347 381.376 297.595 381.92 299.995 381.92C302.363 381.92 303.579 381.248 303.579 379.872ZM326.365 375.04L331.165 384H327.837L323.549 375.648C323.261 375.68 322.973 375.68 322.653 375.68H318.333V384H315.389V362.496H322.653C327.101 362.496 330.557 364.736 330.557 369.088C330.557 372.096 328.861 374.08 326.365 375.04ZM318.333 365.088V373.056H323.709C326.269 373.056 327.613 371.968 327.613 369.088C327.613 366.208 326.269 365.088 323.709 365.088H318.333ZM344.471 370.432V368.48H347.351V384H344.887L344.631 381.856C343.415 383.488 341.623 384.416 339.351 384.416C335.223 384.416 331.991 381.056 331.991 376.224C331.991 371.424 335.223 368.064 339.351 368.064C341.527 368.064 343.287 368.928 344.471 370.432ZM339.767 381.792C342.999 381.792 344.631 380.16 344.631 376.224C344.631 372.288 342.999 370.656 339.767 370.656C336.503 370.656 334.871 372.288 334.871 376.224C334.871 380.16 336.503 381.792 339.767 381.792ZM366.666 368.064C370.058 368.064 371.754 370.72 371.754 374.592V384H368.906V374.112C368.906 371.776 368.138 370.656 365.866 370.656C363.594 370.656 362.73 371.776 362.73 374.112V384H359.882V374.112C359.882 371.776 359.114 370.656 356.842 370.656C354.57 370.656 353.706 371.776 353.706 374.112V384H350.858V368.48H353.322L353.546 370.368C354.378 368.928 355.722 368.064 357.642 368.064C359.882 368.064 361.386 369.376 362.154 371.136C362.954 369.248 364.394 368.064 366.666 368.064ZM386.628 370.432V368.48H389.508V384H387.044L386.788 381.856C385.572 383.488 383.78 384.416 381.508 384.416C377.38 384.416 374.148 381.056 374.148 376.224C374.148 371.424 377.38 368.064 381.508 368.064C383.684 368.064 385.444 368.928 386.628 370.432ZM381.924 381.792C385.156 381.792 386.788 380.16 386.788 376.224C386.788 372.288 385.156 370.656 381.924 370.656C378.66 370.656 377.028 372.288 377.028 376.224C377.028 380.16 378.66 381.792 381.924 381.792ZM404.534 370.432V362.496H407.414V384H404.95L404.694 381.856C403.478 383.488 401.686 384.416 399.414 384.416C395.286 384.416 392.054 381.056 392.054 376.224C392.054 371.424 395.286 368.064 399.414 368.064C401.59 368.064 403.35 368.928 404.534 370.432ZM399.83 381.792C403.158 381.792 404.694 380.16 404.694 376.224C404.694 372.288 403.158 370.656 399.83 370.656C396.502 370.656 394.934 372.288 394.934 376.224C394.934 380.16 396.502 381.792 399.83 381.792ZM422.44 370.432V368.48H425.32V384H422.856L422.6 381.856C421.384 383.488 419.592 384.416 417.32 384.416C413.192 384.416 409.96 381.056 409.96 376.224C409.96 371.424 413.192 368.064 417.32 368.064C419.496 368.064 421.256 368.928 422.44 370.432ZM417.736 381.792C420.968 381.792 422.6 380.16 422.6 376.224C422.6 372.288 420.968 370.656 417.736 370.656C414.472 370.656 412.84 372.288 412.84 376.224C412.84 380.16 414.472 381.792 417.736 381.792ZM436.506 368.064C440.186 368.064 442.522 370.784 442.522 374.816V384H439.674V374.592C439.674 371.776 438.426 370.656 435.738 370.656C433.018 370.656 431.674 371.776 431.674 374.592V384H428.826V368.48H431.29L431.546 370.592C432.57 369.024 434.266 368.064 436.506 368.064Z" fill="white"/>
<rect width="224" height="12" rx="6" transform="matrix(1 0 0 -1 181 430)" fill="#A30035"/>
<g clip-path="url(#clip0_205_147)">
<path d="M139.752 17.1843C139.704 16.8166 139.688 16.449 139.688 16.0813C139.688 14.7865 139.848 13.4597 140.167 12.0849C140.582 10.3745 140.965 8.93579 141.332 7.73688C141.332 7.68893 141.332 7.64097 141.364 7.59301C141.38 7.54506 141.396 7.4971 141.396 7.44914C141.396 7.35323 141.412 7.2733 141.46 7.20936C141.508 7.14542 141.524 7.08148 141.524 7.03352C141.668 6.66585 141.907 6.10636 142.243 5.33906C142.594 4.58774 143.041 4.20409 143.584 4.20409V4.34796C143.584 4.5238 143.536 4.90745 143.44 5.45096C143.264 6.13833 143.121 6.95359 143.025 7.86477C142.929 8.55214 142.881 9.23952 142.881 9.92689V10.7581C142.929 11.7173 143.185 12.5485 143.68 13.2359C144.159 13.9233 144.909 14.3868 145.915 14.6106C146.139 14.6586 146.442 14.6746 146.809 14.6746C147.687 14.6746 148.757 14.4668 150.051 14.0511C150.833 13.8114 151.504 13.3638 152.046 12.6764C152.605 11.989 153.052 11.1897 153.42 10.2946C153.787 9.39937 154.106 8.4882 154.346 7.56104C154.601 6.63388 154.745 5.83461 154.793 5.14723L156.869 3.06912V3.13306C156.869 3.27693 156.869 3.37285 156.837 3.43679C156.821 3.50073 156.805 3.61263 156.805 3.74051C156.757 4.3 156.741 4.87548 156.741 5.46694C156.741 6.10636 156.789 6.76177 156.885 7.40119C157.028 8.64805 157.475 9.63915 158.258 10.3745C159.407 11.5734 160.461 12.1649 161.435 12.1649H161.707C162.713 12.021 163.575 11.5254 164.261 10.6462C164.948 9.76704 165.459 8.69601 165.778 7.40119C166.002 6.34615 166.13 5.37103 166.13 4.50781V3.96431L168.684 1.61444C168.541 3.18102 168.381 5.19519 168.173 7.65695C167.966 10.1187 167.503 12.4526 166.8 14.6586C166.082 16.8646 165.06 18.623 163.734 19.9018C162.856 20.7331 161.802 21.1487 160.557 21.1487C159.822 21.1487 159.008 21.0048 158.146 20.7331C157.14 20.1736 156.326 19.5182 155.703 18.7669C155.08 17.9996 154.585 17.2642 154.218 16.5289C154.074 17.3601 153.739 18.1914 153.18 19.0066C152.621 19.8379 151.967 20.5732 151.184 21.2126C150.402 21.8521 149.54 22.3796 148.598 22.7952C147.655 23.2108 146.777 23.4666 145.947 23.5465C143.696 23.4026 142.115 22.7153 141.221 21.4844C140.327 20.2535 139.832 18.7988 139.736 17.1363L139.752 17.1843ZM225.943 12.3087L229.487 5.5149C227.076 6.58593 221.488 9.06368 218.773 10.2946C216.059 11.5254 213.424 12.7403 210.854 13.9233C208.299 15.1222 205.904 16.2252 203.684 17.2642C201.465 18.2873 199.645 19.1665 198.224 19.8699H198.16L194.136 27.6068C198.24 25.1611 202.822 22.7632 207.932 20.4293C213.025 18.0955 221.057 14.4987 225.959 12.3087H225.943ZM389.926 30.9318C390.293 31.2515 390.708 31.4114 391.171 31.3794C391.634 31.3634 392.018 31.1556 392.337 30.7879C394.173 28.486 396.01 26.1841 397.846 23.8822C399.682 21.5803 401.55 19.2624 403.434 16.9125C403.658 16.5449 403.754 16.1612 403.706 15.7776C403.658 15.3939 403.498 15.0263 403.227 14.7065L393.774 5.80264C393.407 5.48293 392.976 5.33906 392.497 5.38702C392.018 5.43497 391.619 5.64278 391.283 6.01045C390.501 7.06549 389.702 8.08856 388.904 9.04769C388.106 10.0228 387.307 10.9979 386.525 12.021C385.471 13.3158 384.417 14.6106 383.395 15.9214C382.358 17.2323 381.32 18.559 380.25 19.8858C379.978 20.2056 379.867 20.5572 379.915 20.9569C379.962 21.3565 380.138 21.7082 380.457 22.0279L389.91 30.9318H389.926ZM302.298 106.479C303.032 106.655 303.623 106.383 304.086 105.648L314.497 89.2149L310.569 30.6121C310.521 30.1965 310.393 29.8608 310.154 29.605C309.93 29.3492 309.643 29.1894 309.324 29.1254C309.004 29.0615 308.669 29.0775 308.318 29.1894C307.966 29.3013 307.679 29.5411 307.455 29.9087L297.109 46.3418L301.037 104.945C301.132 105.776 301.547 106.287 302.282 106.463L302.298 106.479ZM217.624 31.6192C217.145 31.6671 216.746 31.875 216.41 32.2426C215.628 33.2977 214.83 34.3047 214.031 35.2799C213.233 36.239 212.434 37.2301 211.652 38.2532C210.598 39.548 209.544 40.8428 208.522 42.1536C207.485 43.4644 206.447 44.7912 205.393 46.118C205.121 46.4377 205.01 46.8054 205.042 47.189C205.09 47.5727 205.265 47.9404 205.6 48.2601L215.053 57.164C215.42 57.4837 215.835 57.6435 216.299 57.6116C216.762 57.5956 217.145 57.3878 217.464 57.0201C219.3 54.7182 221.137 52.4163 222.973 50.1144C224.809 47.8125 226.677 45.4946 228.561 43.1447C228.785 42.777 228.881 42.3934 228.833 42.0097C228.785 41.6261 228.625 41.2584 228.354 40.9387L218.901 32.0348C218.534 31.7151 218.103 31.5712 217.624 31.6192ZM154.426 30.7879C153.947 30.8359 153.547 31.0437 153.212 31.4114C152.43 32.4664 151.631 33.4895 150.833 34.4486C150.035 35.4237 149.236 36.3988 148.454 37.4219C147.4 38.7167 146.346 40.0116 145.324 41.3224C144.286 42.6332 143.249 43.96 142.195 45.2868C141.923 45.6065 141.811 45.9582 141.843 46.3578C141.891 46.7414 142.067 47.1091 142.402 47.4288L151.855 56.3327C152.222 56.6524 152.637 56.8123 153.1 56.7803C153.563 56.7643 153.947 56.5565 154.266 56.1889C156.102 53.887 157.938 51.585 159.775 49.2831C161.611 46.9812 163.479 44.6633 165.363 42.3135C165.587 41.9458 165.682 41.5622 165.635 41.1785C165.587 40.7948 165.427 40.4272 165.156 40.1075L155.703 31.2036C155.336 30.8839 154.905 30.74 154.426 30.7879ZM311.766 19.8219C313.73 21.2766 315.854 21.8041 318.265 20.5572C318.856 20.2535 320.309 20.6052 320.756 21.1647C322.049 22.7632 323.103 24.6016 324.141 26.3919C327.398 32.0028 329.267 38.0933 330.496 44.4236C330.64 45.1749 331.278 45.8303 331.678 46.5177C332.38 45.9901 333.386 45.6225 333.737 44.9191C335.031 42.2975 336.404 39.6599 337.186 36.8784C338.895 30.8839 340.124 24.7454 341.817 18.7349C342.455 16.4809 343.621 14.2909 344.882 12.2927C346.112 10.3585 347.549 10.2946 349.369 11.7492C350.583 12.7084 351.7 13.7794 352.85 14.8184C354.143 15.9854 355.181 15.7776 356.044 14.3069C358.327 10.4224 358.167 7.40119 355.453 3.85241C351.493 -1.32688 346.415 -1.34287 342.807 4.10818C341.034 6.77775 339.454 9.71908 338.448 12.7563C336.532 18.5271 335.095 24.4417 333.53 30.0366C331.965 25.8165 330.48 21.1967 328.564 16.7527C326.616 12.2288 323.918 8.20046 319.399 5.72271C315.455 3.54869 312.293 4.25205 309.818 7.97666C308.876 9.38339 308.206 10.9659 307.36 12.4366C306.529 13.8593 306.737 15.1382 307.823 16.2412C309.068 17.504 310.329 18.7828 311.751 19.8219H311.766ZM239.754 48.2441L238.972 48.356C238.972 48.2441 239.339 47.9723 240.074 47.5247C240.808 47.0452 241.782 46.4217 242.964 45.6704C244.145 44.9031 245.487 44.0559 246.956 43.1127C248.441 42.1696 249.894 41.2105 251.347 40.2513C252.8 39.2922 254.109 38.381 255.29 37.5338C256.472 36.6866 257.382 35.9353 258.005 35.3118C256.935 34.6884 255.945 34.033 255.035 33.3616C254.125 32.6902 253.47 31.9069 253.071 30.9798C252.768 30.4203 252.624 29.8288 252.624 29.2054C252.624 28.8057 252.672 28.3741 252.784 27.9265C253.039 26.8076 253.805 25.4967 255.051 23.9781C256.312 22.5394 257.574 21.5483 258.819 21.0368C259.41 20.781 259.969 20.6531 260.48 20.6531C261.039 20.6531 261.55 20.797 262.029 21.1007C262.875 21.6602 263.402 22.7632 263.577 24.4417C263.609 24.7454 263.625 25.0332 263.625 25.3369C263.625 26.9354 263.194 28.9816 262.348 31.5073C262.715 31.7631 263.035 32.0508 263.29 32.3705C263.546 32.6902 263.689 33.0898 263.737 33.5694V33.6813C263.737 34.1289 263.609 34.6564 263.354 35.2958C263.098 35.9992 262.651 36.8464 262.029 37.8535C261.725 37.4859 261.422 37.2141 261.118 37.0223C260.799 36.8305 260.448 36.6226 260.033 36.3509C258.66 38.2052 257.286 39.7398 255.929 40.9707C254.556 42.1856 253.055 43.2406 251.41 44.1038C249.766 44.9671 247.993 45.7503 246.109 46.4058C244.225 47.0771 242.102 47.7006 239.722 48.292L239.754 48.2441ZM258.149 29.3013C258.787 29.669 259.49 30.0366 260.224 30.4043C260.416 29.4771 260.496 28.6938 260.496 28.0704C260.496 27.7347 260.48 27.447 260.448 27.1912C260.304 26.4559 260.017 25.9284 259.618 25.6406C259.282 25.4168 258.931 25.3049 258.564 25.3049H258.292C257.813 25.3848 257.382 25.5447 256.983 25.8005C256.6 26.0562 256.328 26.3759 256.185 26.7436C256.105 26.8875 256.073 27.0154 256.073 27.1273C256.073 27.383 256.185 27.6548 256.408 27.9106C256.919 28.47 257.51 28.9336 258.149 29.3013ZM50 157.633H348.555L350.583 152.693H50V157.633ZM524.146 86.7051C525.312 87.92 525.647 89.6784 525.152 91.9804C524.051 97.4154 522.917 101.188 521.767 103.298V103.234C520.713 105.168 519.037 107.566 516.738 110.412C515.364 112.122 513.56 113.769 511.357 115.383C509.153 116.998 506.662 118.468 503.916 119.795C501.521 120.994 499.174 122.049 496.89 122.976C494.591 123.903 487.342 125.694 485.138 126.301C482.935 126.941 480.668 127.548 478.352 128.092C476.037 128.651 473.706 129.227 471.359 129.818L465.914 131.129C465.275 131.273 464.748 131.145 464.365 130.793C463.982 130.425 463.822 129.914 463.918 129.274L464.653 125.054C462.864 125.997 460.98 126.845 458.968 127.58C455.152 128.987 450.809 130.058 445.939 130.793C445.572 130.889 445.3 130.937 445.141 130.969C444.981 130.985 444.853 131.001 444.757 131.001L443.863 131.145C443.352 131.193 442.905 131.145 442.522 131.081C442.219 131.209 441.883 131.241 441.564 131.177C441.213 131.113 440.925 130.937 440.67 130.665C440.414 130.393 440.287 130.042 440.287 129.626L434.842 51.2813L443.736 34.8483C443.911 34.4806 444.183 34.2248 444.534 34.0809C444.885 33.9371 445.204 33.9051 445.54 33.9691C445.859 34.033 446.147 34.2088 446.402 34.4486C446.658 34.7044 446.801 35.0401 446.849 35.4557L450.186 85.2025C451.192 83.7798 452.262 82.2931 453.412 80.7426C455.807 77.6094 458.393 74.8759 461.204 72.526C463.998 70.304 466.888 68.8653 469.842 68.13C469.842 67.7783 469.89 67.3627 469.954 66.9311L474.568 50.0824C478.289 47.9244 481.977 45.7983 485.633 43.7042C489.29 41.6101 492.771 39.6439 496.076 37.8056C502.607 34.1769 509.568 30.1645 516.961 25.8005C520.187 24.106 521.512 24.9692 520.953 28.4221L516.195 45.2708C512.522 47.4768 508.834 49.6348 505.161 51.7289C501.489 53.823 497.992 55.7892 494.687 57.6276C491.382 59.4659 488.013 61.3841 484.58 63.3504C481.785 64.9649 478.895 66.6593 475.941 68.3858C477.65 69.0572 479.358 70.2241 481.035 71.9026C485.41 76.4105 487.581 81.4619 487.581 87.0248C487.581 89.6944 487.278 92.316 486.687 94.8897C486.096 97.4634 485.266 100.005 484.212 102.483C483.302 104.481 482.344 106.367 481.322 108.158C485.49 107.294 492.835 105.6 496.108 104.609L500.93 93.7068C502.128 91.1811 503.405 89.1349 504.794 87.6003C506.167 86.0497 507.604 85.2345 509.073 85.1545C510.494 84.7389 512.57 84.5311 515.285 84.5311H516.833C517.36 84.5311 517.903 84.5471 518.462 84.5951C521.129 84.7709 523.045 85.4743 524.226 86.7051H524.146ZM472.86 104.897C472.86 98.7262 470.241 94.2183 465.004 91.3729C463.295 90.4457 461.699 89.9981 460.182 89.9981C456.924 89.9981 453.859 92.1882 451.017 96.5522C450.985 96.6002 450.953 96.6321 450.905 96.6801L451.815 110.268C459.495 109.5 466.537 107.726 472.86 104.913V104.897ZM402.428 157.633H524.657V152.693H404.456L402.428 157.633ZM526.286 57.0681C523.572 58.299 520.937 59.5138 518.366 60.6968C515.811 61.8957 513.416 62.9987 511.197 64.0377C508.978 65.0608 507.157 65.94 505.736 66.6434H505.672L501.649 74.3803C505.752 71.9346 510.335 69.5367 515.444 67.2029C520.538 64.869 528.569 61.2722 533.471 59.0822L537.016 52.2884C534.605 53.3594 529.016 55.8372 526.302 57.0681H526.286ZM396.664 136.612C392.704 137.395 375.731 137.283 371.005 138.114C370.781 138.162 370.526 138.274 370.286 138.466C370.031 138.642 369.855 138.834 369.775 139.01L361.776 155.091C361.456 155.73 361.488 156.322 361.872 156.849C362.271 157.377 362.83 157.569 363.564 157.441L389.303 155.938C389.447 155.89 389.639 155.778 389.894 155.587C390.15 155.395 390.325 155.219 390.405 155.043L398.468 138.962C398.836 138.322 398.82 137.731 398.405 137.203C397.989 136.676 397.415 136.484 396.68 136.612H396.664ZM362.255 57.5796C362.766 57.7554 363.101 58.1231 363.293 58.6506C363.341 58.7785 363.357 58.9384 363.372 59.0982C364.442 58.8744 365.48 58.4108 366.374 57.6595C370.175 54.3825 371.101 50.1943 371.787 45.9582C370.35 47.253 369.36 48.8036 367.875 49.9385C366.774 50.7858 364.778 51.7129 363.596 51.4572C362.223 51.1534 360.754 49.6988 360.323 48.5158C359.7 46.7894 359.461 44.7752 359.94 43.0328C361.329 37.8855 363.117 32.8181 364.794 27.7347C365.305 26.2001 365.959 24.7135 366.55 23.1948C359.157 32.0828 354.399 41.6101 355.229 52.4003C355.341 53.791 355.868 55.2457 356.65 56.4926C357.225 57.4197 358.071 58.1071 359.013 58.5707C359.413 58.1391 359.924 57.8194 360.546 57.6116C361.185 57.4038 361.76 57.3878 362.271 57.5796H362.255ZM51.964 112.745C51.9161 112.426 51.9001 112.058 51.9001 111.642V110.539C51.9001 106.175 52.9539 100.932 55.0776 94.8418C57.1852 88.7513 60.203 82.1013 64.115 74.9238C64.9453 73.5491 65.8554 72.8617 66.8773 72.8617C67.021 72.8617 67.1648 72.8617 67.3244 72.8937C67.4841 72.9097 67.7076 72.9736 67.9791 73.0695C68.8573 73.5331 69.2884 74.3164 69.2884 75.4194C69.2884 75.7871 69.2565 76.1867 69.1926 76.5863C69.1287 77.002 68.969 77.4815 68.7455 78.041C68.1867 79.2399 67.5639 80.5347 66.8454 81.9415C66.1269 83.3482 65.3605 84.8668 64.5302 86.5293C63.7478 88.0479 63.0452 89.5985 62.4225 91.1491C61.7998 92.7157 61.3048 94.2982 60.9375 95.9128C60.5224 97.5273 60.3148 99.1418 60.3148 100.74C60.3148 102.035 60.4585 103.218 60.73 104.337C61.2888 106.639 63.0771 108.429 66.1109 109.724C67.4841 109.948 68.8413 110.124 70.1506 110.236C71.4599 110.348 72.7213 110.412 73.9029 110.412C75.9308 110.412 77.9426 110.236 79.9385 109.9C81.9344 109.564 83.8984 109.085 85.8304 108.477C91.6265 106.447 96.5604 103.778 100.648 100.469L96.7839 40.3473L107.131 23.7863C107.594 23.0989 108.2 22.8432 108.951 23.035C109.701 23.2268 110.133 23.7224 110.228 24.5536L113.534 77.9131C113.534 78.009 113.534 78.073 113.565 78.1209C113.597 78.1689 113.597 78.2328 113.597 78.3288C113.645 78.5526 113.661 78.8243 113.661 79.128V79.8474L113.805 81.366L113.741 81.6377C113.741 81.6377 113.741 81.6857 113.741 81.7017C119.282 81.2061 123.96 80.6626 127.776 80.0392C132.902 79.208 136.478 78.2968 138.49 77.2737C139.592 76.5863 140.598 75.7391 141.492 74.748C142.386 73.7569 143.089 72.6219 143.6 71.3271C144.191 70.4159 144.861 69.9524 145.596 69.9524C146.841 69.9524 147.464 70.7516 147.464 72.3662C147.464 72.9097 147.448 73.3733 147.4 73.7409C147.352 74.1086 147.304 74.3643 147.256 74.4922C147.065 75.0517 146.905 75.5313 146.745 75.9469C146.586 76.3625 146.394 76.8261 146.186 77.3217C145.979 77.8332 145.739 78.4407 145.468 79.16C145.197 79.8793 144.829 80.7745 144.366 81.8935C145.324 81.7976 146.202 81.6857 146.985 81.5418C147.767 81.398 148.55 81.2381 149.332 81.0623C153.148 76.6023 157.076 72.2223 161.116 67.9062C165.156 63.6061 169.371 59.386 173.73 55.2457C176.173 53.0877 179.638 51.5691 184.141 50.6899C184.779 50.546 185.354 50.4661 185.833 50.4181C186.312 50.3702 186.791 50.3542 187.254 50.3542C190.703 50.3542 193.481 51.617 195.589 54.1427C197.521 56.5885 198.479 59.0503 198.479 61.528C198.479 63.1426 198.016 64.9169 197.106 66.8512V66.7872C195.078 70.7516 192.923 74.2365 190.623 77.2737C187.318 81.7337 183.23 85.5062 178.376 88.5914C173.522 91.6766 168.221 94.2982 162.489 96.4563L154.489 98.5184C154.154 98.6143 153.835 98.6943 153.515 98.7742C153.515 99.0459 153.468 99.3177 153.468 99.5735C153.468 101.508 153.883 102.962 154.713 103.922C157.38 107.326 161.786 109.053 167.95 109.101C168.173 109.149 168.365 109.165 168.509 109.165H168.988C174.959 109.165 175.438 108.605 182.336 106.863L199.086 102.579C201.657 97.0158 204.371 91.9004 207.229 87.2486C210.087 82.5969 213.137 78.3607 216.394 74.5562C220.386 69.8085 224.33 67.4426 228.178 67.4426C228.961 67.4426 229.711 67.5386 230.414 67.7144C231.132 67.8902 231.851 68.178 232.585 68.5456C236.13 70.4319 237.902 73.8208 237.902 78.6964C237.902 81.0463 237.535 83.604 236.8 86.3535C235.651 89.5346 234.326 92.5398 232.841 95.4012C231.34 98.2467 229.663 101.012 227.779 103.682C226.661 105.28 225.432 106.751 224.17 108.158C224.17 108.158 224.186 108.158 224.202 108.158C226.821 108.845 229.903 109.197 233.447 109.197H234.613C235.028 109.197 235.459 109.181 235.922 109.133C239.323 109.037 241.479 108.653 246.173 107.918C249.989 107.374 251.73 106.735 255.083 105.888C258.436 105.04 260.256 104.433 263.849 103.41C264.44 102.067 265.126 100.517 265.877 98.7582C266.627 96.9998 267.537 94.9057 268.607 92.5079C269.9 89.6625 271.194 87.5204 272.503 86.0817C272.695 85.8739 272.902 85.6981 273.11 85.5062L270.395 39.8517L280.87 22.8751C281.333 22.1878 281.94 21.932 282.69 22.1238C283.441 22.3156 283.872 22.8112 283.968 23.6424L286.794 69.6167C286.794 69.9843 286.794 70.368 286.826 70.7516C286.842 71.1513 286.858 71.5509 286.858 71.9665C286.858 72.4301 286.858 72.9896 286.826 73.661C286.81 74.3324 286.794 74.9398 286.794 75.4833L281.03 83.2363C281.636 83.2043 282.259 83.1883 282.93 83.1883H284.479C285.005 83.1883 285.548 83.2043 286.091 83.2523C288.806 83.3961 290.738 84.0675 291.919 85.2824C293.085 86.4973 293.42 88.2557 292.925 90.5576C291.871 95.7529 290.738 99.5255 289.54 101.875C288.438 104.033 286.778 106.495 284.574 109.261C281.493 112.985 276.846 116.326 270.651 119.268V119.204C267.617 120.674 264.488 122.017 261.278 123.2C258.053 124.399 256.344 125.134 252.863 126.045C249.367 126.973 247.802 127.66 244.465 128.283C241.128 128.907 239.722 129.322 236.465 129.61C234.725 129.802 233 129.914 231.292 129.994C229.583 130.058 227.939 130.09 226.326 130.09C225.128 130.09 223.963 130.074 222.813 130.026C221.664 129.978 220.562 129.914 219.508 129.818C217.352 129.594 215.372 128.891 213.584 127.74C211.556 126.445 210.502 124.431 210.407 121.665C210.774 120.259 211.125 118.916 211.492 117.605C210.311 118.149 209.017 118.708 207.548 119.252C205.233 120.131 202.519 121.026 199.453 121.937C196.276 122.864 193.082 123.712 189.873 124.495C186.647 125.278 184.652 125.774 181.394 126.413C178.217 127.005 177.674 127.372 174.385 127.884C171.095 128.395 169.898 128.891 166.72 129.211H166.784C163.112 129.626 159.918 129.834 157.204 129.834C156.198 129.834 155.288 129.818 154.473 129.77C153.675 129.722 152.925 129.658 152.238 129.562C149.013 129.099 146.474 128.139 144.59 126.669C142.706 125.198 141.46 123.28 140.869 120.946C140.646 120.035 140.486 119.156 140.422 118.324C140.358 117.493 140.327 116.662 140.327 115.847C140.327 115.207 140.374 114.488 140.47 113.705C140.566 112.921 140.678 112.122 140.822 111.323C140.965 110.524 141.125 109.724 141.301 108.941C141.476 108.158 141.668 107.422 141.859 106.735C142.482 104.769 143.201 102.787 143.999 100.788C142.945 100.964 141.907 101.092 140.917 101.188C139.879 101.284 138.889 101.332 137.915 101.332C136.766 101.332 135.776 101.268 134.946 101.124C132.742 100.852 131.401 99.9731 130.954 98.5024C129.437 99.0619 127.728 99.5575 125.844 100.021C123.96 100.485 121.916 100.916 119.713 101.332C118.467 101.556 117.19 101.779 115.849 101.987C114.508 102.195 113.198 102.403 111.921 102.611C111.059 102.755 110.26 102.85 109.462 102.962C107.69 107.326 105.486 111.467 102.82 115.351C97.5823 122.896 90.9878 128.124 83.0362 131.017C78.9007 132.488 75.0685 133.223 71.5238 133.223C68.2984 133.223 65.2008 132.504 62.2149 131.081V131.145C59.3249 129.722 57.0256 127.436 55.3171 124.287C53.6086 121.138 52.5069 117.285 52.0119 112.729L51.964 112.745ZM210.598 96.5362C210.598 96.76 210.662 97.0158 210.806 97.2875C211.029 97.7511 211.269 98.1348 211.492 98.4705C211.716 98.7902 212.003 99.0619 212.323 99.3017C213.744 99.1578 215.165 98.8861 216.57 98.4385C217.975 98.0069 219.412 97.4154 220.881 96.6801C221.616 96.3124 221.983 95.689 221.983 94.8098C221.983 94.0744 221.791 93.2432 221.424 92.332C220.546 89.9822 219.54 88.4156 218.39 87.6323C217.608 87.952 216.921 88.3516 216.314 88.8472C215.724 89.3268 215.181 89.8703 214.734 90.4777L211.077 95.3693C210.758 95.8808 210.598 96.2645 210.598 96.5522V96.5362ZM160.573 79.0641C164.437 78.2808 168.109 77.4016 171.606 76.4425C175.103 75.4833 178.36 74.2524 181.394 72.7818V72.7178C181.298 72.3502 181.139 71.8866 180.915 71.3431C180.276 70.2881 179.079 69.4728 177.323 68.9293C176.955 68.8334 176.604 68.7694 176.253 68.7215C175.901 68.6735 175.55 68.6575 175.183 68.6575C174.177 68.6575 173.203 68.8813 172.293 69.3449C170.089 70.5438 168.046 71.9985 166.161 73.7249C164.277 75.4514 162.409 77.2417 160.573 79.0801V79.0641ZM157.204 81.3021C157.204 81.3021 157.268 81.334 157.3 81.35C157.348 81.35 157.364 81.35 157.411 81.382L157.204 81.318V81.3021ZM367.125 127.116C367.7 127.1 368.243 127.052 368.753 127.005C374.997 126.461 381.415 124.958 387.994 122.513C394.381 120.115 400.321 117.014 405.781 113.193C411.386 109.229 415.617 105.12 418.459 100.836C418.827 100.325 419.386 99.4775 420.152 98.2786C420.918 97.0797 421.749 95.7529 422.675 94.2823C423.09 93.6428 423.569 92.7796 424.128 91.7246C424.687 90.6695 425.325 89.4546 426.06 88.0639V88.1279L426.89 86.5453C427.449 85.4423 427.976 84.2594 428.471 83.0285C428.982 81.7816 429.189 80.247 429.094 78.4087C429.046 76.986 428.423 75.7551 427.225 74.748C425.437 73.4052 423.345 72.3502 420.982 71.5669C419.545 71.0873 418.108 70.6717 416.671 70.2881C417.917 68.5456 419.146 66.6114 420.391 64.4214C421.813 61.9117 422.914 59.4659 423.697 57.0681L423.633 57.2119C425.293 53.0237 426.108 48.4679 426.108 43.5443C426.204 34.8003 423.505 27.7347 418.044 22.3476C417.677 21.932 417.23 21.7721 416.703 21.868C416.176 21.964 415.745 22.2517 415.426 22.7632L406.676 38.0134C406.532 38.2372 406.484 38.5249 406.5 38.8766C406.516 39.2123 406.596 39.516 406.739 39.7398C409.406 43.6562 411.226 47.0771 412.184 50.0345C412.919 51.8728 413.43 53.4873 413.701 54.8621H413.637L414.18 57.2759C413.398 57.9153 412.568 58.4748 411.657 58.9703C410.763 59.4499 409.789 59.8975 408.719 60.3131C407.426 60.8247 406.229 61.2722 405.095 61.6879C403.961 62.1035 402.891 62.4871 401.885 62.8548C401.742 62.8548 401.566 62.9667 401.343 63.2065C401.119 63.4463 400.959 63.6221 400.864 63.75L399.906 66.0359C399.906 66.0359 399.89 66.1478 399.874 66.1958H399.778C399.411 66.0839 399.059 66.1318 398.708 66.3077C398.357 66.4835 398.101 66.7233 397.91 66.995C397.319 68.0501 396.744 69.1211 396.217 70.2081C395.69 71.2951 395.179 72.3182 394.668 73.2773C393.008 76.4105 391.587 79.4797 390.389 82.5329V82.469C389.191 85.0906 389.607 86.7051 391.634 87.2966L396.6 88.3996C399.634 88.9911 402.572 89.6305 405.398 90.3019C408.224 90.9733 410.907 91.7566 413.43 92.6837H413.366L413.637 92.8276C411.194 94.1704 408.783 95.4172 406.404 96.5842C404.009 97.7511 401.582 98.8381 399.123 99.8292C396.664 100.82 394.141 101.7 391.539 102.483C388.936 103.266 386.238 103.906 383.443 104.417H383.507C380.01 105.056 376.514 105.376 373.033 105.376C372.394 105.376 371.675 105.376 370.893 105.344C370.111 105.328 369.376 105.28 368.69 105.232C366.215 105.056 363.979 104.641 361.999 104.033C360.019 103.41 358.343 102.547 356.97 101.444C353.84 99.014 352.116 96.1526 351.796 92.8755C351.748 92.5079 351.716 92.1402 351.7 91.7725C351.685 91.4049 351.669 90.9893 351.669 90.5257C351.669 87.9041 352.132 85.0906 353.042 82.1013C353.68 80.1671 354.399 78.2648 355.181 76.3785C355.964 74.4922 356.858 72.6219 357.864 70.7836C358.918 68.8494 359.876 67.075 360.722 65.4285C361.568 63.782 362.319 62.2633 362.957 60.8406H362.894C363.229 60.1213 363.404 59.5138 363.388 59.0503C361.888 59.37 360.339 59.1782 359.029 58.5227C359.013 58.5387 358.997 58.5547 358.982 58.5707C357.88 60.0893 356.602 62.0076 355.149 64.3415C353.696 66.6594 352.18 69.281 350.567 72.1743C348.954 74.9398 347.501 77.9131 346.192 81.1102C344.882 84.3073 343.765 87.4245 342.855 90.4617C342.216 92.5718 341.721 94.7618 341.402 97.0158C341.082 99.2697 340.923 101.428 340.923 103.506C340.923 104.561 340.939 105.568 340.987 106.511C341.034 107.454 341.13 108.381 341.258 109.309C342.232 115.575 345.904 120.498 352.291 124.079C355.964 126.109 360.387 127.116 365.528 127.116C366.039 127.116 366.566 127.116 367.141 127.084L367.125 127.116ZM63.4284 53.1516C64.0831 52.5442 64.61 52.0966 65.0092 51.7929C65.9672 51.0895 67.6278 50.7378 70.0069 50.7378C70.965 50.7378 72.0348 50.7858 73.2163 50.8977C77.288 51.2973 79.6351 51.7929 80.2579 52.3364L80.21 52.6081C79.0284 54.0148 76.2022 55.8052 71.7314 57.9952C67.2606 60.1852 64.8974 61.576 64.626 62.1674L65.7277 62.2793C67.6917 62.1355 69.5119 61.8797 71.1885 61.528C72.865 61.1763 74.6214 60.5689 76.4257 59.7217C80.3377 57.8993 83.2597 55.1178 85.1917 51.3453C86.2296 49.3151 86.7406 47.5887 86.7406 46.182C86.7406 44.999 86.3893 44.0559 85.6867 43.3525C84.5371 42.2016 81.5512 41.4982 76.6972 41.2424H74.6374C70.9809 41.2424 68.6657 41.8179 67.7076 42.9689C65.9033 45.2228 64.4982 47.5247 63.5242 49.8586C62.5502 52.1925 62.0552 53.6312 62.0552 54.1907L62.167 54.2386C62.3586 54.1267 62.7738 53.7751 63.4125 53.1516H63.4284Z" fill="white"/>
<path d="M50.2395 230.623V183.002H68.6497L72.0188 202.856C72.0667 202.952 72.1465 203.559 72.2423 204.71C72.3381 205.861 72.4818 207.3 72.6096 209.01L72.881 211.52L73.0726 214.094L73.2642 211.52L73.4558 209.01C73.5357 207.683 73.6474 206.421 73.7592 205.238C73.871 204.039 73.9987 203.255 74.1265 202.856L77.4955 183.002H95.9057V230.623H84.6808V207.699L85.08 200.89V194.016L84.6808 196.653L84.09 200.874L83.0362 207.683L78.6771 230.607H67.4522L63.0292 207.635L62.9015 207.108L62.0393 200.826L61.5124 197.389L61.0493 193.952L61.1132 200.842L61.3686 207.651V230.623H50.2395ZM99.658 182.986H113.086L115.482 195.343L116.008 199.307L116.28 201.753V203.335L116.472 201.289L116.743 199.307L117.142 195.742L117.206 195.343L119.585 182.986H132.918L122.427 214.269V230.607H110.148V214.269L99.658 182.986ZM159.104 230.623V183.002H171.447V199.115H175.933V183.002H188.276V230.623H175.933V211.472H171.447V230.623H159.104ZM193.018 230.623L200.938 183.002H219.684L227.603 230.623H214.271L213.408 222.822H207.213L206.351 230.623H193.018ZM211.029 199.467L210.566 195.423L210.439 193.696L210.311 192.034L210.183 193.696L210.055 195.423L209.592 199.467L207.612 211.999H213.025L211.045 199.467H211.029ZM232.346 230.623V183.002H255.706L261.901 189.156V209.346L255.434 215.628H244.752V230.623H232.346ZM249.367 193.552H244.752V205.046H249.367V193.552ZM268.575 230.623V183.002H291.935L298.131 189.156V209.346L291.664 215.628H280.982V230.623H268.575ZM285.596 193.552H280.982V205.046H285.596V193.552ZM301.436 182.986H314.864L317.259 195.343L317.786 199.307L318.058 201.753V203.335L318.249 201.289L318.521 199.307L318.92 195.742L318.984 195.343L321.363 182.986H334.695L324.205 214.269V230.607H311.926V214.269L301.436 182.986ZM360.882 230.623V183.002H384.242L390.437 189.156V209.346L383.97 215.628H373.288V230.623H360.882ZM377.903 193.552H373.288V205.046H377.903V193.552ZM397.095 230.623V183.002H409.502V218.745H420.264V230.639H397.111L397.095 230.623ZM423.17 230.623L431.089 183.002H449.835L457.755 230.623H444.422L443.56 222.822H437.365L436.502 230.623H423.17ZM441.181 199.467L440.718 195.423L440.59 193.696L440.462 192.034L440.335 193.696L440.207 195.423L439.744 199.467L437.764 211.999H443.177L441.197 199.467H441.181ZM462.497 224.196V189.268L468.772 182.986H485.394L491.733 189.268V200.106L479.39 201.753V193.568H474.84V220.056H479.39V210.481L491.733 208.754V224.34L485.49 230.623H468.804L462.497 224.212V224.196ZM498.982 230.623V183.002H524.657V194.431H511.389V200.714H523.524V212.143H511.389V218.745H524.514V230.639H498.982V230.623Z" fill="white"/>
</g>
<defs>
<clipPath id="clip0_205_147">
<rect width="487" height="273" fill="white" transform="translate(50)"/>
</clipPath>
</defs>
</svg>
