<svg width="917" height="345" viewBox="0 0 917 345" fill="none" xmlns="http://www.w3.org/2000/svg">
<path d="M16.905 233.48V236.35H5.18V243.805H15.855V246.64H5.18V257H1.925V233.48H16.905ZM34.7648 248.495V249.44H21.1498C21.3948 253.29 23.1798 254.585 26.5748 254.585C29.1998 254.585 30.4948 253.955 31.2298 252.135H34.3798C33.2598 255.53 30.2498 257.455 26.5748 257.455C21.7798 257.455 17.9648 253.955 17.9648 248.495C17.9648 243.07 21.7798 239.57 26.3998 239.57C30.5648 239.57 34.7648 242.475 34.7648 248.495ZM21.1848 246.99H31.6498C31.3348 243.595 29.6198 242.405 26.3998 242.405C23.3198 242.405 21.5698 243.56 21.1848 246.99ZM50.1744 242.16V240.025H53.3244V257H50.6294L50.3494 254.655C49.0194 256.44 47.0594 257.455 44.5744 257.455C40.0594 257.455 36.5244 253.78 36.5244 248.495C36.5244 243.245 40.0594 239.57 44.5744 239.57C46.9544 239.57 48.8794 240.515 50.1744 242.16ZM45.0294 254.585C48.5644 254.585 50.3494 252.8 50.3494 248.495C50.3494 244.19 48.5644 242.405 45.0294 242.405C41.4594 242.405 39.6744 244.19 39.6744 248.495C39.6744 252.8 41.4594 254.585 45.0294 254.585ZM65.7694 240.025V242.79H61.6044V252.905C61.6044 254.025 62.0244 254.27 63.1794 254.27H65.7694V257H62.8294C60.5194 257 58.4544 255.95 58.4544 253.22V242.79H55.7594V240.025H58.4544V235.58H61.6044V240.025H65.7694ZM80.0945 250.28V240.025H83.2095V257H80.5495L80.2695 254.69C79.1145 256.405 77.2595 257.455 74.8095 257.455C70.7845 257.455 68.2295 254.445 68.2295 250.035V240.025H71.3445V250.28C71.3445 253.395 72.7095 254.62 75.6845 254.62C78.6245 254.62 80.0945 253.395 80.0945 250.28ZM95.3966 239.57H96.2016V242.335H94.7316C91.6166 242.335 90.1816 243.49 90.1816 246.71V257H87.0666V240.025H89.7616L90.0416 242.37C91.0566 240.62 92.7716 239.57 95.3966 239.57ZM101.974 236.875H98.8244V233.48H101.974V236.875ZM101.974 257H98.8244V240.025H101.974V257ZM114.231 239.57C118.256 239.57 120.811 242.545 120.811 246.955V257H117.696V246.71C117.696 243.63 116.331 242.405 113.391 242.405C110.416 242.405 108.946 243.63 108.946 246.71V257H105.831V240.025H108.526L108.806 242.335C109.926 240.62 111.781 239.57 114.231 239.57ZM137.093 242.265L137.338 240.025H140.068V256.405C139.928 260.815 136.673 263.72 131.948 263.72C127.573 263.72 124.808 261.41 123.933 258.435H127.293C127.958 260.255 129.218 261.06 132.123 261.06C135.133 261.06 136.918 259.695 136.918 256.825V254.41C135.623 256.02 133.733 256.895 131.423 256.895C127.013 256.895 123.443 253.395 123.443 248.215C123.443 243.035 127.013 239.57 131.423 239.57C133.838 239.57 135.798 240.515 137.093 242.265ZM131.843 254.06C135.273 254.06 137.093 252.45 137.093 248.215C137.093 244.015 135.273 242.405 131.843 242.405C128.413 242.405 126.593 244.015 126.593 248.215C126.593 252.45 128.413 254.06 131.843 254.06ZM165.929 243.595V233.48H169.149V257H165.929V246.5H154.169V257H150.914V233.48H154.169V243.595H165.929ZM185.594 242.16V240.025H188.744V257H186.049L185.769 254.655C184.439 256.44 182.479 257.455 179.994 257.455C175.479 257.455 171.944 253.78 171.944 248.495C171.944 243.245 175.479 239.57 179.994 239.57C182.374 239.57 184.299 240.515 185.594 242.16ZM180.449 254.585C183.984 254.585 185.769 252.8 185.769 248.495C185.769 244.19 183.984 242.405 180.449 242.405C176.879 242.405 175.094 244.19 175.094 248.495C175.094 252.8 176.879 254.585 180.449 254.585ZM197.934 254.62V257.35H196.604C194.224 257.35 192.579 256.405 192.579 253.78V233.48H195.729V253.255C195.729 254.375 196.079 254.62 197.094 254.62H197.934ZM212.699 242.16V240.025H215.849V257H213.154L212.874 254.655C211.544 256.44 209.584 257.455 207.099 257.455C202.584 257.455 199.049 253.78 199.049 248.495C199.049 243.245 202.584 239.57 207.099 239.57C209.479 239.57 211.404 240.515 212.699 242.16ZM207.554 254.585C211.089 254.585 212.874 252.8 212.874 248.495C212.874 244.19 211.089 242.405 207.554 242.405C203.984 242.405 202.199 244.19 202.199 248.495C202.199 252.8 203.984 254.585 207.554 254.585ZM241.951 257H238.066L231.451 249.335H229.841V257H226.691V233.48H229.841V246.64H231.521L237.716 240.025H241.636L234.111 247.97L241.951 257ZM256.039 242.16V240.025H259.189V257H256.494L256.214 254.655C254.884 256.44 252.924 257.455 250.439 257.455C245.924 257.455 242.389 253.78 242.389 248.495C242.389 243.245 245.924 239.57 250.439 239.57C252.819 239.57 254.744 240.515 256.039 242.16ZM250.894 254.585C254.429 254.585 256.214 252.8 256.214 248.495C256.214 244.19 254.429 242.405 250.894 242.405C247.324 242.405 245.539 244.19 245.539 248.495C245.539 252.8 247.324 254.585 250.894 254.585ZM275.589 257H261.974V254.655L271.424 242.65H262.429V239.99H275.239V242.335L265.824 254.34H275.589V257ZM281.554 236.875H278.404V233.48H281.554V236.875ZM281.554 257H278.404V240.025H281.554V257ZM302.701 239.57C306.411 239.57 308.266 242.475 308.266 246.71V257H305.151V246.185C305.151 243.63 304.311 242.405 301.826 242.405C299.341 242.405 298.396 243.63 298.396 246.185V257H295.281V246.185C295.281 243.63 294.441 242.405 291.956 242.405C289.471 242.405 288.526 243.63 288.526 246.185V257H285.411V240.025H288.106L288.351 242.09C289.261 240.515 290.731 239.57 292.831 239.57C295.281 239.57 296.926 241.005 297.766 242.93C298.641 240.865 300.216 239.57 302.701 239.57ZM332.697 253.465L335.777 240.025H338.892L334.517 257H331.227L328.112 244.435L324.962 257H321.672L317.297 240.025H320.412L323.492 253.465L326.782 240.025H329.407L332.697 253.465ZM356.84 248.495V249.44H343.225C343.47 253.29 345.255 254.585 348.65 254.585C351.275 254.585 352.57 253.955 353.305 252.135H356.455C355.335 255.53 352.325 257.455 348.65 257.455C343.855 257.455 340.04 253.955 340.04 248.495C340.04 243.07 343.855 239.57 348.475 239.57C352.64 239.57 356.84 242.475 356.84 248.495ZM343.26 246.99H353.725C353.41 243.595 351.695 242.405 348.475 242.405C345.395 242.405 343.645 243.56 343.26 246.99ZM375.336 239.57C379.851 239.57 383.281 243.245 383.281 248.495C383.281 253.78 379.851 257.455 375.336 257.455C372.886 257.455 370.926 256.44 369.666 254.655L369.386 257H366.656V233.655H369.806V242.16C371.066 240.515 372.956 239.57 375.336 239.57ZM374.881 254.585C378.346 254.585 380.131 252.8 380.131 248.495C380.131 244.19 378.346 242.405 374.881 242.405C371.416 242.405 369.631 244.19 369.631 248.495C369.631 252.8 371.416 254.585 374.881 254.585ZM394.401 239.57H395.206V242.335H393.736C390.621 242.335 389.186 243.49 389.186 246.71V257H386.071V240.025H388.766L389.046 242.37C390.061 240.62 391.776 239.57 394.401 239.57ZM400.978 236.875H397.828V233.48H400.978V236.875ZM400.978 257H397.828V240.025H400.978V257ZM413.235 239.57C417.26 239.57 419.815 242.545 419.815 246.955V257H416.7V246.71C416.7 243.63 415.335 242.405 412.395 242.405C409.42 242.405 407.95 243.63 407.95 246.71V257H404.835V240.025H407.53L407.81 242.335C408.93 240.62 410.785 239.57 413.235 239.57ZM436.097 242.265L436.342 240.025H439.072V256.405C438.932 260.815 435.677 263.72 430.952 263.72C426.577 263.72 423.812 261.41 422.937 258.435H426.297C426.962 260.255 428.222 261.06 431.127 261.06C434.137 261.06 435.922 259.695 435.922 256.825V254.41C434.627 256.02 432.737 256.895 430.427 256.895C426.017 256.895 422.447 253.395 422.447 248.215C422.447 243.035 426.017 239.57 430.427 239.57C432.842 239.57 434.802 240.515 436.097 242.265ZM430.847 254.06C434.277 254.06 436.097 252.45 436.097 248.215C436.097 244.015 434.277 242.405 430.847 242.405C427.417 242.405 425.597 244.015 425.597 248.215C425.597 252.45 427.417 254.06 430.847 254.06ZM458.528 240.025V242.79H454.363V252.905C454.363 254.025 454.783 254.27 455.938 254.27H458.528V257H455.588C453.278 257 451.213 255.95 451.213 253.22V242.79H448.518V240.025H451.213V235.58H454.363V240.025H458.528ZM467.935 257.455C463.14 257.455 459.43 253.815 459.43 248.495C459.43 243.175 463.14 239.57 467.935 239.57C472.695 239.57 476.405 243.175 476.405 248.495C476.405 253.815 472.695 257.455 467.935 257.455ZM467.935 254.585C471.54 254.585 473.255 252.73 473.255 248.495C473.255 244.26 471.54 242.405 467.935 242.405C464.295 242.405 462.58 244.26 462.58 248.495C462.58 252.73 464.295 254.585 467.935 254.585ZM493.007 253.71L498.012 240.025H501.302L493.742 259.31C492.762 261.76 491.537 263.195 488.492 263.195H486.357V260.325H488.947C489.752 260.325 490.242 260.045 490.557 259.345L491.572 257.105L484.572 240.025H487.862L491.992 250.665C492.307 251.505 492.692 252.66 493.007 253.71ZM510.625 257.455C505.83 257.455 502.12 253.815 502.12 248.495C502.12 243.175 505.83 239.57 510.625 239.57C515.385 239.57 519.095 243.175 519.095 248.495C519.095 253.815 515.385 257.455 510.625 257.455ZM510.625 254.585C514.23 254.585 515.945 252.73 515.945 248.495C515.945 244.26 514.23 242.405 510.625 242.405C506.985 242.405 505.27 244.26 505.27 248.495C505.27 252.73 506.985 254.585 510.625 254.585ZM533.591 250.28V240.025H536.706V257H534.046L533.766 254.69C532.611 256.405 530.756 257.455 528.306 257.455C524.281 257.455 521.726 254.445 521.726 250.035V240.025H524.841V250.28C524.841 253.395 526.206 254.62 529.181 254.62C532.121 254.62 533.591 253.395 533.591 250.28ZM550.79 233.48V254.13H563.005V257H547.57V233.48H550.79ZM572.593 257.455C567.798 257.455 564.088 253.815 564.088 248.495C564.088 243.175 567.798 239.57 572.593 239.57C577.353 239.57 581.063 243.175 581.063 248.495C581.063 253.815 577.353 257.455 572.593 257.455ZM572.593 254.585C576.198 254.585 577.913 252.73 577.913 248.495C577.913 244.26 576.198 242.405 572.593 242.405C568.953 242.405 567.238 244.26 567.238 248.495C567.238 252.73 568.953 254.585 572.593 254.585ZM590.107 253.92L595.042 240.025H598.332L591.857 257H588.357L581.882 240.025H585.137L590.107 253.92ZM615.922 248.495V249.44H602.307C602.552 253.29 604.337 254.585 607.732 254.585C610.357 254.585 611.652 253.955 612.387 252.135H615.537C614.417 255.53 611.407 257.455 607.732 257.455C602.937 257.455 599.122 253.955 599.122 248.495C599.122 243.07 602.937 239.57 607.557 239.57C611.722 239.57 615.922 242.475 615.922 248.495ZM602.342 246.99H612.807C612.492 243.595 610.777 242.405 607.557 242.405C604.477 242.405 602.727 243.56 602.342 246.99ZM621.303 255.18L619.343 260.85H617.208L618.293 253.78H620.498C621.268 253.78 621.618 254.41 621.303 255.18ZM645.307 251.05C645.307 249.02 644.432 247.865 641.912 247.13L637.817 245.975C633.722 244.82 631.587 242.965 631.587 239.185C631.587 235.545 635.157 233.025 639.847 233.025C644.502 233.025 647.897 235.37 648.597 239.325H645.377C644.957 236.875 643.382 235.895 639.882 235.895C636.452 235.895 634.807 236.735 634.807 239.185C634.807 241.285 635.997 242.195 638.447 242.93L642.507 244.12C646.637 245.31 648.527 247.34 648.527 250.945C648.527 255.46 644.432 257.455 639.882 257.455C635.402 257.455 631.447 255.53 630.537 250.525H633.827C634.317 253.745 636.312 254.585 639.882 254.585C643.662 254.585 645.307 253.78 645.307 251.05ZM660.188 240.025V242.79H656.023V252.905C656.023 254.025 656.443 254.27 657.598 254.27H660.188V257H657.248C654.938 257 652.873 255.95 652.873 253.22V242.79H650.178V240.025H652.873V235.58H656.023V240.025H660.188ZM669.595 257.455C664.8 257.455 661.09 253.815 661.09 248.495C661.09 243.175 664.8 239.57 669.595 239.57C674.355 239.57 678.065 243.175 678.065 248.495C678.065 253.815 674.355 257.455 669.595 257.455ZM669.595 254.585C673.2 254.585 674.915 252.73 674.915 248.495C674.915 244.26 673.2 242.405 669.595 242.405C665.955 242.405 664.24 244.26 664.24 248.495C664.24 252.73 665.955 254.585 669.595 254.585ZM689.2 239.57H690.005V242.335H688.535C685.42 242.335 683.985 243.49 683.985 246.71V257H680.87V240.025H683.565L683.845 242.37C684.86 240.62 686.575 239.57 689.2 239.57ZM695.778 236.875H692.628V233.48H695.778V236.875ZM695.778 257H692.628V240.025H695.778V257ZM715.385 248.495V249.44H701.77C702.015 253.29 703.8 254.585 707.195 254.585C709.82 254.585 711.115 253.955 711.85 252.135H715C713.88 255.53 710.87 257.455 707.195 257.455C702.4 257.455 698.585 253.955 698.585 248.495C698.585 243.07 702.4 239.57 707.02 239.57C711.185 239.57 715.385 242.475 715.385 248.495ZM701.805 246.99H712.27C711.955 243.595 710.24 242.405 707.02 242.405C703.94 242.405 702.19 243.56 701.805 246.99ZM728.52 252.485C728.52 251.12 727.82 250.525 725.755 250.035L722.745 249.265C719.385 248.46 717.74 247.13 717.74 244.365C717.74 241.46 720.785 239.57 724.495 239.57C728.17 239.57 731.04 241.495 731.53 244.75H728.415C728.1 243 726.875 242.3 724.495 242.3C722.01 242.3 720.855 243 720.855 244.365C720.855 245.555 721.45 246.08 723.445 246.605L726.525 247.375C730.025 248.285 731.635 249.51 731.635 252.415C731.635 255.565 728.485 257.455 724.6 257.455C720.96 257.455 717.705 255.775 717.145 251.82H720.26C720.61 254.13 721.975 254.725 724.6 254.725C727.19 254.725 728.52 253.99 728.52 252.485ZM737.685 255.18L735.725 260.85H733.59L734.675 253.78H736.88C737.65 253.78 738 254.41 737.685 255.18ZM760.394 242.16V240.025H763.544V257H760.849L760.569 254.655C759.239 256.44 757.279 257.455 754.794 257.455C750.279 257.455 746.744 253.78 746.744 248.495C746.744 243.245 750.279 239.57 754.794 239.57C757.174 239.57 759.099 240.515 760.394 242.16ZM755.249 254.585C758.784 254.585 760.569 252.8 760.569 248.495C760.569 244.19 758.784 242.405 755.249 242.405C751.679 242.405 749.894 244.19 749.894 248.495C749.894 252.8 751.679 254.585 755.249 254.585ZM775.779 239.57C779.804 239.57 782.359 242.545 782.359 246.955V257H779.244V246.71C779.244 243.63 777.879 242.405 774.939 242.405C771.964 242.405 770.494 243.63 770.494 246.71V257H767.379V240.025H770.074L770.354 242.335C771.474 240.62 773.329 239.57 775.779 239.57ZM798.641 242.16V233.48H801.791V257H799.096L798.816 254.655C797.486 256.44 795.526 257.455 793.041 257.455C788.526 257.455 784.991 253.78 784.991 248.495C784.991 243.245 788.526 239.57 793.041 239.57C795.421 239.57 797.346 240.515 798.641 242.16ZM793.496 254.585C797.136 254.585 798.816 252.8 798.816 248.495C798.816 244.19 797.136 242.405 793.496 242.405C789.856 242.405 788.141 244.19 788.141 248.495C788.141 252.8 789.856 254.585 793.496 254.585ZM9.345 274.48C16.73 274.48 21.595 278.925 21.595 286.205C21.595 293.52 16.73 298 9.345 298H1.925V274.48H9.345ZM5.18 295.095H9.45C15.645 295.095 18.34 292.61 18.34 286.205C18.34 279.87 15.645 277.35 9.45 277.35H5.18V295.095ZM40.3361 289.495V290.44H26.7211C26.9661 294.29 28.7511 295.585 32.1461 295.585C34.7711 295.585 36.0661 294.955 36.8011 293.135H39.9511C38.8311 296.53 35.8211 298.455 32.1461 298.455C27.3511 298.455 23.5361 294.955 23.5361 289.495C23.5361 284.07 27.3511 280.57 31.9711 280.57C36.1361 280.57 40.3361 283.475 40.3361 289.495ZM26.7561 287.99H37.2211C36.9061 284.595 35.1911 283.405 31.9711 283.405C28.8911 283.405 27.1411 284.56 26.7561 287.99ZM48.5007 295.62V298.35H47.1707C44.7907 298.35 43.1457 297.405 43.1457 294.78V274.48H46.2957V294.255C46.2957 295.375 46.6457 295.62 47.6607 295.62H48.5007ZM53.8152 277.875H50.6652V274.48H53.8152V277.875ZM53.8152 298H50.6652V281.025H53.8152V298ZM56.6221 289.495C56.6221 284.175 60.3321 280.57 65.1271 280.57C68.8721 280.57 71.9521 282.775 72.8271 286.555H69.8171C69.2571 284.315 67.6121 283.405 65.1271 283.405C61.4871 283.405 59.7721 285.26 59.7721 289.495C59.7721 293.695 61.4871 295.585 65.1271 295.585C67.6121 295.585 69.2571 294.675 69.8171 292.4H72.8271C71.9521 296.18 68.8721 298.42 65.1271 298.42C60.3321 298.42 56.6221 294.78 56.6221 289.495ZM78.7664 277.875H75.6164V274.48H78.7664V277.875ZM78.7664 298H75.6164V281.025H78.7664V298ZM90.0782 298.455C85.2832 298.455 81.5732 294.815 81.5732 289.495C81.5732 284.175 85.2832 280.57 90.0782 280.57C94.8382 280.57 98.5482 284.175 98.5482 289.495C98.5482 294.815 94.8382 298.455 90.0782 298.455ZM90.0782 295.585C93.6832 295.585 95.3982 293.73 95.3982 289.495C95.3982 285.26 93.6832 283.405 90.0782 283.405C86.4382 283.405 84.7232 285.26 84.7232 289.495C84.7232 293.73 86.4382 295.585 90.0782 295.585ZM113.044 291.28V281.025H116.159V298H113.499L113.219 295.69C112.064 297.405 110.209 298.455 107.759 298.455C103.734 298.455 101.179 295.445 101.179 291.035V281.025H104.294V291.28C104.294 294.395 105.659 295.62 108.634 295.62C111.574 295.62 113.044 294.395 113.044 291.28ZM130.341 293.485C130.341 292.12 129.641 291.525 127.576 291.035L124.566 290.265C121.206 289.46 119.561 288.13 119.561 285.365C119.561 282.46 122.606 280.57 126.316 280.57C129.991 280.57 132.861 282.495 133.351 285.75H130.236C129.921 284 128.696 283.3 126.316 283.3C123.831 283.3 122.676 284 122.676 285.365C122.676 286.555 123.271 287.08 125.266 287.605L128.346 288.375C131.846 289.285 133.456 290.51 133.456 293.415C133.456 296.565 130.306 298.455 126.421 298.455C122.781 298.455 119.526 296.775 118.966 292.82H122.081C122.431 295.13 123.796 295.725 126.421 295.725C129.011 295.725 130.341 294.99 130.341 293.485ZM150.678 274.48C158.063 274.48 162.928 278.925 162.928 286.205C162.928 293.52 158.063 298 150.678 298H143.258V274.48H150.678ZM146.513 295.095H150.783C156.978 295.095 159.673 292.61 159.673 286.205C159.673 279.87 156.978 277.35 150.783 277.35H146.513V295.095ZM169.069 277.875H165.919V274.48H169.069V277.875ZM169.069 298H165.919V281.025H169.069V298ZM183.251 293.485C183.251 292.12 182.551 291.525 180.486 291.035L177.476 290.265C174.116 289.46 172.471 288.13 172.471 285.365C172.471 282.46 175.516 280.57 179.226 280.57C182.901 280.57 185.771 282.495 186.261 285.75H183.146C182.831 284 181.606 283.3 179.226 283.3C176.741 283.3 175.586 284 175.586 285.365C175.586 286.555 176.181 287.08 178.176 287.605L181.256 288.375C184.756 289.285 186.366 290.51 186.366 293.415C186.366 296.565 183.216 298.455 179.331 298.455C175.691 298.455 172.436 296.775 171.876 292.82H174.991C175.341 295.13 176.706 295.725 179.331 295.725C181.921 295.725 183.251 294.99 183.251 293.485ZM197.736 280.57C201.936 280.57 204.491 283.545 204.491 287.955V298H201.376V287.71C201.376 284.63 200.011 283.405 196.896 283.405C193.746 283.405 192.276 284.63 192.276 287.71V298H189.161V274.48H192.276V283.09C193.431 281.515 195.286 280.57 197.736 280.57ZM223.915 289.495V290.44H210.3C210.545 294.29 212.33 295.585 215.725 295.585C218.35 295.585 219.645 294.955 220.38 293.135H223.53C222.41 296.53 219.4 298.455 215.725 298.455C210.93 298.455 207.115 294.955 207.115 289.495C207.115 284.07 210.93 280.57 215.55 280.57C219.715 280.57 223.915 283.475 223.915 289.495ZM210.335 287.99H220.8C220.485 284.595 218.77 283.405 215.55 283.405C212.47 283.405 210.72 284.56 210.335 287.99ZM237.05 293.485C237.05 292.12 236.35 291.525 234.285 291.035L231.275 290.265C227.915 289.46 226.27 288.13 226.27 285.365C226.27 282.46 229.315 280.57 233.025 280.57C236.7 280.57 239.57 282.495 240.06 285.75H236.945C236.63 284 235.405 283.3 233.025 283.3C230.54 283.3 229.385 284 229.385 285.365C229.385 286.555 229.98 287.08 231.975 287.605L235.055 288.375C238.555 289.285 240.165 290.51 240.165 293.415C240.165 296.565 237.015 298.455 233.13 298.455C229.49 298.455 226.235 296.775 225.675 292.82H228.79C229.14 295.13 230.505 295.725 233.13 295.725C235.72 295.725 237.05 294.99 237.05 293.485ZM258.577 281.025V283.79H254.412V293.905C254.412 295.025 254.832 295.27 255.987 295.27H258.577V298H255.637C253.327 298 251.262 296.95 251.262 294.22V283.79H248.567V281.025H251.262V276.58H254.412V281.025H258.577ZM267.984 298.455C263.189 298.455 259.479 294.815 259.479 289.495C259.479 284.175 263.189 280.57 267.984 280.57C272.744 280.57 276.454 284.175 276.454 289.495C276.454 294.815 272.744 298.455 267.984 298.455ZM267.984 295.585C271.589 295.585 273.304 293.73 273.304 289.495C273.304 285.26 271.589 283.405 267.984 283.405C264.344 283.405 262.629 285.26 262.629 289.495C262.629 293.73 264.344 295.585 267.984 295.585ZM294.876 281.025V283.79H290.711V293.905C290.711 295.025 291.131 295.27 292.286 295.27H294.876V298H291.936C289.626 298 287.561 296.95 287.561 294.22V283.79H284.866V281.025H287.561V276.58H290.711V281.025H294.876ZM306.086 280.57C310.286 280.57 312.841 283.545 312.841 287.955V298H309.726V287.71C309.726 284.63 308.361 283.405 305.246 283.405C302.096 283.405 300.626 284.63 300.626 287.71V298H297.511V274.48H300.626V283.09C301.781 281.515 303.636 280.57 306.086 280.57ZM332.265 289.495V290.44H318.65C318.895 294.29 320.68 295.585 324.075 295.585C326.7 295.585 327.995 294.955 328.73 293.135H331.88C330.76 296.53 327.75 298.455 324.075 298.455C319.28 298.455 315.465 294.955 315.465 289.495C315.465 284.07 319.28 280.57 323.9 280.57C328.065 280.57 332.265 283.475 332.265 289.495ZM318.685 287.99H329.15C328.835 284.595 327.12 283.405 323.9 283.405C320.82 283.405 319.07 284.56 318.685 287.99ZM345.301 274.48V295.13H357.516V298H342.081V274.48H345.301ZM379.827 282.005H376.712C375.942 278.365 373.667 276.965 369.502 276.965C364.252 276.965 361.312 279.695 361.312 286.205C361.312 292.75 364.147 295.515 369.467 295.515C374.367 295.515 376.152 293.17 376.677 291.56C376.852 291.035 376.887 290.545 376.887 290.02V288.235H369.152V285.505H379.827V290.23C379.827 290.825 379.792 291.455 379.582 292.085C378.847 294.64 375.312 298.455 369.467 298.455C362.852 298.455 358.057 293.52 358.057 286.205C358.057 278.96 363.062 274.025 369.502 274.025C374.647 274.025 378.707 276.93 379.827 282.005ZM407.615 298H403.765L394.98 287.71H392.88V298H389.625V274.48H392.88V284.91H395.015L403.52 274.48H407.23L397.57 286.275L407.615 298ZM413.215 277.875H410.065V274.48H413.215V277.875ZM413.215 298H410.065V281.025H413.215V298ZM425.681 281.025V283.79H421.516V293.905C421.516 295.025 421.936 295.27 423.091 295.27H425.681V298H422.741C420.431 298 418.366 296.95 418.366 294.22V283.79H415.671V281.025H418.366V276.58H421.516V281.025H425.681ZM426.583 289.495C426.583 284.175 430.293 280.57 435.088 280.57C438.833 280.57 441.913 282.775 442.788 286.555H439.778C439.218 284.315 437.573 283.405 435.088 283.405C431.448 283.405 429.733 285.26 429.733 289.495C429.733 293.695 431.448 295.585 435.088 295.585C437.573 295.585 439.218 294.675 439.778 292.4H442.788C441.913 296.18 438.833 298.42 435.088 298.42C430.293 298.42 426.583 294.78 426.583 289.495ZM454.152 280.57C458.352 280.57 460.907 283.545 460.907 287.955V298H457.792V287.71C457.792 284.63 456.427 283.405 453.312 283.405C450.162 283.405 448.692 284.63 448.692 287.71V298H445.577V274.48H448.692V283.09C449.847 281.515 451.702 280.57 454.152 280.57ZM480.331 289.495V290.44H466.716C466.961 294.29 468.746 295.585 472.141 295.585C474.766 295.585 476.061 294.955 476.796 293.135H479.946C478.826 296.53 475.816 298.455 472.141 298.455C467.346 298.455 463.531 294.955 463.531 289.495C463.531 284.07 467.346 280.57 471.966 280.57C476.131 280.57 480.331 283.475 480.331 289.495ZM466.751 287.99H477.216C476.901 284.595 475.186 283.405 471.966 283.405C468.886 283.405 467.136 284.56 466.751 287.99ZM491.541 280.57C495.566 280.57 498.121 283.545 498.121 287.955V298H495.006V287.71C495.006 284.63 493.641 283.405 490.701 283.405C487.726 283.405 486.256 284.63 486.256 287.71V298H483.141V281.025H485.836L486.116 283.335C487.236 281.62 489.091 280.57 491.541 280.57ZM525.015 274.48V277.315H517.77V298H514.62V277.315H507.41V274.48H525.015ZM536.047 280.57C540.247 280.57 542.802 283.545 542.802 287.955V298H539.687V287.71C539.687 284.63 538.322 283.405 535.207 283.405C532.057 283.405 530.587 284.63 530.587 287.71V298H527.472V274.48H530.587V283.09C531.742 281.515 533.597 280.57 536.047 280.57ZM549.626 277.875H546.476V274.48H549.626V277.875ZM549.626 298H546.476V281.025H549.626V298ZM563.808 293.485C563.808 292.12 563.108 291.525 561.043 291.035L558.033 290.265C554.673 289.46 553.028 288.13 553.028 285.365C553.028 282.46 556.073 280.57 559.783 280.57C563.458 280.57 566.328 282.495 566.818 285.75H563.703C563.388 284 562.163 283.3 559.783 283.3C557.298 283.3 556.143 284 556.143 285.365C556.143 286.555 556.738 287.08 558.733 287.605L561.813 288.375C565.313 289.285 566.923 290.51 566.923 293.415C566.923 296.565 563.773 298.455 559.888 298.455C556.248 298.455 552.993 296.775 552.433 292.82H555.548C555.898 295.13 557.263 295.725 559.888 295.725C562.478 295.725 563.808 294.99 563.808 293.485ZM588.73 288.2L593.98 298H590.34L585.65 288.865C585.335 288.9 585.02 288.9 584.67 288.9H579.945V298H576.725V274.48H584.67C589.535 274.48 593.315 276.93 593.315 281.69C593.315 284.98 591.46 287.15 588.73 288.2ZM579.945 277.315V286.03H585.825C588.625 286.03 590.095 284.84 590.095 281.69C590.095 278.54 588.625 277.315 585.825 277.315H579.945ZM608.534 283.16V281.025H611.684V298H608.989L608.709 295.655C607.379 297.44 605.419 298.455 602.934 298.455C598.419 298.455 594.884 294.78 594.884 289.495C594.884 284.245 598.419 280.57 602.934 280.57C605.314 280.57 607.239 281.515 608.534 283.16ZM603.389 295.585C606.924 295.585 608.709 293.8 608.709 289.495C608.709 285.19 606.924 283.405 603.389 283.405C599.819 283.405 598.034 285.19 598.034 289.495C598.034 293.8 599.819 295.585 603.389 295.585ZM632.809 280.57C636.519 280.57 638.374 283.475 638.374 287.71V298H635.259V287.185C635.259 284.63 634.419 283.405 631.934 283.405C629.449 283.405 628.504 284.63 628.504 287.185V298H625.389V287.185C625.389 284.63 624.549 283.405 622.064 283.405C619.579 283.405 618.634 284.63 618.634 287.185V298H615.519V281.025H618.214L618.459 283.09C619.369 281.515 620.839 280.57 622.939 280.57C625.389 280.57 627.034 282.005 627.874 283.93C628.749 281.865 630.324 280.57 632.809 280.57ZM654.642 283.16V281.025H657.792V298H655.097L654.817 295.655C653.487 297.44 651.527 298.455 649.042 298.455C644.527 298.455 640.992 294.78 640.992 289.495C640.992 284.245 644.527 280.57 649.042 280.57C651.422 280.57 653.347 281.515 654.642 283.16ZM649.497 295.585C653.032 295.585 654.817 293.8 654.817 289.495C654.817 285.19 653.032 283.405 649.497 283.405C645.927 283.405 644.142 285.19 644.142 289.495C644.142 293.8 645.927 295.585 649.497 295.585ZM674.227 283.16V274.48H677.377V298H674.682L674.402 295.655C673.072 297.44 671.112 298.455 668.627 298.455C664.112 298.455 660.577 294.78 660.577 289.495C660.577 284.245 664.112 280.57 668.627 280.57C671.007 280.57 672.932 281.515 674.227 283.16ZM669.082 295.585C672.722 295.585 674.402 293.8 674.402 289.495C674.402 285.19 672.722 283.405 669.082 283.405C665.442 283.405 663.727 285.19 663.727 289.495C663.727 293.8 665.442 295.585 669.082 295.585ZM693.812 283.16V281.025H696.962V298H694.267L693.987 295.655C692.657 297.44 690.697 298.455 688.212 298.455C683.697 298.455 680.162 294.78 680.162 289.495C680.162 284.245 683.697 280.57 688.212 280.57C690.592 280.57 692.517 281.515 693.812 283.16ZM688.667 295.585C692.202 295.585 693.987 293.8 693.987 289.495C693.987 285.19 692.202 283.405 688.667 283.405C685.097 283.405 683.312 285.19 683.312 289.495C683.312 293.8 685.097 295.585 688.667 295.585ZM709.197 280.57C713.222 280.57 715.777 283.545 715.777 287.955V298H712.662V287.71C712.662 284.63 711.297 283.405 708.357 283.405C705.382 283.405 703.912 284.63 703.912 287.71V298H700.797V281.025H703.492L703.772 283.335C704.892 281.62 706.747 280.57 709.197 280.57Z" fill="white"/>
<rect y="323" width="440" height="22" rx="11" fill="#A30035"/>
<g clip-path="url(#clip0_122_96)">
<path d="M77.4039 14.7922C77.3626 14.4757 77.3488 14.1592 77.3488 13.8427C77.3488 12.7281 77.4866 11.586 77.762 10.4026C78.12 8.93023 78.4505 7.6918 78.7672 6.65977C78.7672 6.61849 78.7672 6.57721 78.7948 6.53592C78.8085 6.49464 78.8223 6.45336 78.8223 6.41208C78.8223 6.32952 78.8361 6.26072 78.8774 6.20568C78.9187 6.15063 78.9325 6.09559 78.9325 6.05431C79.0564 5.73782 79.2629 5.25621 79.5521 4.59571C79.8551 3.94897 80.2407 3.61872 80.7088 3.61872V3.74256C80.7088 3.89393 80.6675 4.22418 80.5849 4.69203C80.4334 5.28373 80.3095 5.98551 80.2269 6.76985C80.1443 7.36155 80.1029 7.95325 80.1029 8.54494V9.26048C80.1443 10.0861 80.3646 10.8016 80.7915 11.3933C81.2046 11.985 81.8518 12.3841 82.7193 12.5767C82.9121 12.618 83.1738 12.6318 83.4905 12.6318C84.2479 12.6318 85.1705 12.4529 86.2859 12.0951C86.9606 11.8887 87.539 11.5034 88.0072 10.9117C88.4892 10.32 88.8747 9.63201 89.1915 8.86143C89.5082 8.09085 89.7836 7.30651 89.9902 6.5084C90.2105 5.7103 90.3344 5.02228 90.3757 4.43058L92.1659 2.64173V2.69677C92.1659 2.82062 92.1659 2.90318 92.1384 2.95822C92.1246 3.01326 92.1108 3.10959 92.1108 3.21967C92.0695 3.70128 92.0557 4.19666 92.0557 4.70579C92.0557 5.25621 92.097 5.82038 92.1797 6.3708C92.3036 7.44411 92.6892 8.29725 93.3639 8.93023C94.3554 9.96226 95.2643 10.4714 96.1043 10.4714H96.3384C97.2059 10.3476 97.9495 9.92098 98.5416 9.16416C99.1338 8.40734 99.5744 7.48539 99.8498 6.3708C100.043 5.46261 100.153 4.62323 100.153 3.88017V3.41231L102.356 1.38954C102.232 2.73806 102.094 4.47187 101.915 6.59097C101.736 8.71007 101.337 10.7191 100.731 12.618C100.111 14.517 99.2302 16.0306 98.0872 17.1314C97.3298 17.847 96.421 18.2047 95.3469 18.2047C94.7134 18.2047 94.0111 18.0809 93.2675 17.847C92.4 17.3654 91.6977 16.8012 91.1606 16.1544C90.6236 15.4939 90.1967 14.861 89.88 14.228C89.7561 14.9435 89.4669 15.6591 88.9849 16.3608C88.5029 17.0764 87.9384 17.7094 87.2636 18.2598C86.5888 18.8102 85.8452 19.2643 85.0328 19.6221C84.2203 19.9798 83.4629 20.2 82.7469 20.2688C80.8052 20.145 79.442 19.5533 78.6708 18.4937C77.8997 17.4342 77.4728 16.182 77.3902 14.7509L77.4039 14.7922ZM151.737 10.5952L154.794 4.74707C152.715 5.66902 147.895 7.80188 145.554 8.86143C143.213 9.92098 140.941 10.9668 138.724 11.985C136.521 13.0171 134.455 13.9665 132.541 14.861C130.627 15.7416 129.057 16.4984 127.831 17.1039H127.776L124.306 23.7639C127.845 21.6586 131.797 19.5945 136.204 17.5855C140.597 15.5765 147.523 12.4804 151.751 10.5952H151.737ZM293.16 26.6261C293.477 26.9013 293.835 27.0389 294.234 27.0114C294.633 26.9976 294.964 26.8187 295.239 26.5023C296.823 24.5208 298.407 22.5393 299.99 20.5578C301.574 18.5763 303.185 16.581 304.81 14.5582C305.003 14.2417 305.085 13.9115 305.044 13.5812C305.003 13.251 304.865 12.9345 304.631 12.6593L296.479 4.99476C296.162 4.71955 295.79 4.59571 295.377 4.63699C294.964 4.67827 294.62 4.85716 294.33 5.17365C293.656 6.08183 292.967 6.9625 292.279 7.78812C291.59 8.6275 290.902 9.46689 290.227 10.3476C289.318 11.4621 288.409 12.5767 287.528 13.7051C286.633 14.8334 285.738 15.9756 284.815 17.1177C284.581 17.3929 284.485 17.6956 284.526 18.0396C284.567 18.3836 284.719 18.6864 284.994 18.9616L293.146 26.6261H293.16ZM217.588 91.6577C218.221 91.8091 218.73 91.5751 219.13 90.9422L228.108 76.7965L224.721 26.3509C224.679 25.9931 224.569 25.7042 224.363 25.484C224.17 25.2638 223.922 25.1262 223.647 25.0712C223.371 25.0161 223.082 25.0299 222.779 25.1262C222.476 25.2225 222.228 25.4289 222.035 25.7454L213.112 39.8911L216.5 90.3367C216.582 91.0523 216.94 91.4926 217.574 91.644L217.588 91.6577ZM144.563 27.2178C144.15 27.2591 143.805 27.438 143.516 27.7544C142.841 28.6626 142.153 29.5295 141.464 30.3689C140.776 31.1945 140.087 32.0477 139.412 32.9284C138.504 34.0429 137.595 35.1575 136.713 36.2859C135.818 37.4142 134.923 38.5564 134.014 39.6985C133.78 39.9737 133.684 40.2902 133.711 40.6204C133.753 40.9507 133.904 41.2672 134.193 41.5424L142.346 49.2069C142.662 49.4821 143.02 49.6197 143.42 49.5922C143.819 49.5784 144.149 49.3995 144.425 49.0831C146.009 47.1016 147.592 45.1201 149.176 43.1386C150.759 41.1571 152.37 39.1618 153.995 37.139C154.188 36.8226 154.271 36.4923 154.229 36.1621C154.188 35.8318 154.05 35.5153 153.816 35.2401L145.664 27.5756C145.348 27.3004 144.976 27.1765 144.563 27.2178ZM90.059 26.5023C89.6459 26.5435 89.3016 26.7224 89.0125 27.0389C88.3377 27.9471 87.6492 28.8278 86.9607 29.6534C86.2721 30.4928 85.5836 31.3322 84.9088 32.2128C84 33.3274 83.0911 34.442 82.2098 35.5704C81.3148 36.6987 80.4197 37.8408 79.5108 38.9829C79.2767 39.2581 79.1803 39.5609 79.2079 39.9049C79.2492 40.2351 79.4007 40.5516 79.6898 40.8268L87.842 48.4914C88.1587 48.7666 88.5167 48.9042 88.9161 48.8767C89.3154 48.8629 89.6459 48.684 89.9213 48.3675C91.5049 46.386 93.0885 44.4045 94.6721 42.423C96.2557 40.4415 97.8669 38.4463 99.4918 36.4235C99.6846 36.107 99.7672 35.7768 99.7259 35.4465C99.6846 35.1163 99.5469 34.7998 99.3128 34.5246L91.1606 26.86C90.8439 26.5848 90.4721 26.461 90.059 26.5023ZM225.753 17.0626C227.447 18.3148 229.279 18.7689 231.358 17.6956C231.868 17.4342 233.121 17.7369 233.506 18.2185C234.622 19.5945 235.53 21.177 236.426 22.7181C239.235 27.548 240.846 32.7908 241.906 38.2399C242.03 38.8866 242.581 39.4508 242.925 40.0425C243.531 39.5884 244.399 39.2719 244.702 38.6664C245.817 36.4097 247.001 34.1393 247.676 31.745C249.149 26.5848 250.21 21.3008 251.669 16.1269C252.22 14.1867 253.226 12.3015 254.313 10.5815C255.374 8.91647 256.613 8.86143 258.183 10.1136C259.229 10.9393 260.193 11.8612 261.185 12.7556C262.3 13.7601 263.195 13.5812 263.939 12.3153C265.908 8.97151 265.77 6.3708 263.43 3.31599C260.014 -1.14238 255.635 -1.15614 252.523 3.53616C250.995 5.83414 249.631 8.36606 248.764 10.9805C247.111 15.948 245.872 21.0394 244.523 25.8555C243.173 22.2228 241.892 18.246 240.24 14.4206C238.56 10.5264 236.233 7.05882 232.336 4.92596C228.934 3.05454 226.208 3.66 224.073 6.86617C223.261 8.07709 222.683 9.43937 221.953 10.7053C221.237 11.93 221.416 13.0308 222.352 13.9803C223.426 15.0674 224.514 16.1682 225.74 17.0626H225.753ZM163.649 41.5286L162.974 41.6249C162.974 41.5286 163.29 41.2947 163.924 40.9094C164.557 40.4966 165.397 39.9599 166.416 39.3132C167.435 38.6527 168.592 37.9234 169.859 37.1115C171.14 36.2997 172.393 35.474 173.646 34.6484C174.899 33.8228 176.028 33.0384 177.047 32.3091C178.066 31.5798 178.851 30.9331 179.388 30.3964C178.466 29.8598 177.612 29.2956 176.827 28.7177C176.042 28.1397 175.477 27.4655 175.133 26.6674C174.871 26.1858 174.748 25.6766 174.748 25.14C174.748 24.796 174.789 24.4244 174.885 24.0391C175.106 23.0759 175.767 21.9476 176.841 20.6403C177.929 19.4019 179.016 18.5487 180.09 18.1084C180.6 17.8882 181.082 17.7782 181.523 17.7782C182.005 17.7782 182.445 17.902 182.858 18.1635C183.588 18.6451 184.043 19.5945 184.194 21.0394C184.222 21.3008 184.235 21.5485 184.235 21.81C184.235 23.186 183.864 24.9473 183.134 27.1215C183.45 27.3416 183.726 27.5893 183.946 27.8645C184.167 28.1397 184.29 28.4838 184.332 28.8966V28.9929C184.332 29.3782 184.222 29.8323 184.001 30.3827C183.781 30.9881 183.395 31.7174 182.858 32.5844C182.597 32.2679 182.335 32.0339 182.073 31.8688C181.798 31.7037 181.495 31.5248 181.137 31.2909C179.953 32.8871 178.769 34.2081 177.598 35.2676C176.414 36.3134 175.119 37.2216 173.701 37.9647C172.283 38.7077 170.754 39.382 169.129 39.9462C167.504 40.5241 165.673 41.0607 163.621 41.5699L163.649 41.5286ZM179.512 25.2225C180.063 25.539 180.669 25.8555 181.302 26.172C181.468 25.3739 181.536 24.6996 181.536 24.163C181.536 23.874 181.523 23.6263 181.495 23.4062C181.371 22.7732 181.123 22.3191 180.779 22.0714C180.49 21.8788 180.187 21.7824 179.87 21.7824H179.636C179.223 21.8512 178.851 21.9888 178.507 22.209C178.176 22.4292 177.942 22.7044 177.818 23.0209C177.749 23.1447 177.722 23.2548 177.722 23.3511C177.722 23.5713 177.818 23.8052 178.011 24.0254C178.452 24.507 178.961 24.906 179.512 25.2225ZM0 135.691H257.481L259.229 131.439H0V135.691ZM408.915 74.6361C409.92 75.6819 410.209 77.1955 409.782 79.177C408.832 83.8556 407.854 87.103 406.863 88.9194V88.8644C405.954 90.5294 404.508 92.5934 402.525 95.0428C401.341 96.5151 399.785 97.9325 397.885 99.3223C395.984 100.712 393.836 101.978 391.467 103.12C389.402 104.152 387.378 105.06 385.409 105.858C383.426 106.657 377.174 108.198 375.273 108.721C373.373 109.271 371.418 109.794 369.421 110.262C367.424 110.743 365.414 111.239 363.389 111.748L358.694 112.876C358.143 113 357.689 112.89 357.358 112.587C357.028 112.271 356.89 111.83 356.972 111.28L357.606 107.647C356.064 108.459 354.439 109.188 352.704 109.821C349.412 111.032 345.667 111.954 341.467 112.587C341.15 112.67 340.916 112.711 340.778 112.739C340.641 112.752 340.53 112.766 340.448 112.766L339.677 112.89C339.236 112.931 338.85 112.89 338.52 112.835C338.258 112.945 337.969 112.973 337.694 112.918C337.391 112.862 337.143 112.711 336.923 112.477C336.702 112.243 336.592 111.941 336.592 111.583L331.896 44.1431L339.567 29.9974C339.718 29.6809 339.952 29.4607 340.255 29.3369C340.558 29.2131 340.833 29.1855 341.123 29.2406C341.398 29.2956 341.646 29.447 341.866 29.6534C342.087 29.8736 342.21 30.1625 342.252 30.5203L345.13 73.3426C345.997 72.118 346.92 70.8382 347.911 69.5035C349.977 66.8064 352.208 64.4534 354.631 62.4306C357.041 60.5179 359.534 59.2795 362.081 58.6465C362.081 58.3438 362.123 57.986 362.178 57.6145L366.157 43.111C369.366 41.2534 372.547 39.4233 375.7 37.6207C378.854 35.818 381.856 34.1255 384.706 32.5431C390.338 29.4195 396.342 25.9656 402.718 22.209C405.5 20.7504 406.643 21.4935 406.161 24.4657L402.057 38.9692C398.89 40.8681 395.709 42.7258 392.542 44.5284C389.374 46.331 386.359 48.0235 383.508 49.606C380.658 51.1884 377.752 52.8396 374.791 54.5322C372.382 55.922 369.889 57.3806 367.342 58.8667C368.815 59.4446 370.289 60.4491 371.734 61.894C375.508 65.7744 377.38 70.1227 377.38 74.9113C377.38 77.2093 377.119 79.466 376.609 81.6814C376.1 83.8969 375.384 86.0848 374.475 88.2176C373.69 89.9377 372.864 91.5614 371.982 93.1026C375.576 92.3595 381.911 90.9009 384.734 90.0478L388.892 80.6632C389.925 78.489 391.027 76.7277 392.225 75.4067C393.409 74.0719 394.648 73.3702 395.915 73.3014C397.141 72.9436 398.931 72.7647 401.272 72.7647H402.608C403.062 72.7647 403.53 72.7785 404.012 72.8197C406.312 72.9711 407.965 73.5766 408.984 74.6361H408.915ZM364.684 90.2954C364.684 84.9839 362.426 81.1035 357.909 78.6541C356.435 77.856 355.058 77.4707 353.75 77.4707C350.941 77.4707 348.297 79.3559 345.846 83.1125C345.818 83.1538 345.791 83.1813 345.749 83.2226L346.534 94.9189C353.158 94.2584 359.231 92.731 364.684 90.3092V90.2954ZM303.942 135.691H409.355V131.439H305.691L303.942 135.691ZM410.76 49.1243C408.419 50.1839 406.147 51.2297 403.93 52.248C401.727 53.28 399.661 54.2295 397.747 55.1239C395.833 56.0045 394.263 56.7614 393.037 57.3668H392.982L389.512 64.0268C393.051 61.9215 397.003 59.8575 401.41 57.8484C405.803 55.8394 412.729 52.7433 416.957 50.8582L420.014 45.01C417.934 45.9319 413.115 48.0648 410.774 49.1243H410.76ZM298.971 117.596C295.556 118.27 280.918 118.174 276.842 118.89C276.649 118.931 276.429 119.027 276.222 119.192C276.002 119.344 275.85 119.509 275.782 119.66L268.883 133.503C268.607 134.053 268.635 134.563 268.965 135.017C269.31 135.471 269.791 135.636 270.425 135.526L292.623 134.232C292.747 134.191 292.912 134.095 293.132 133.93C293.353 133.765 293.504 133.613 293.573 133.462L300.527 119.619C300.844 119.068 300.83 118.559 300.472 118.105C300.114 117.651 299.618 117.486 298.985 117.596H298.971ZM269.296 49.5647C269.736 49.716 270.026 50.0325 270.191 50.4866C270.232 50.5967 270.246 50.7343 270.26 50.8719C271.182 50.6793 272.077 50.2802 272.849 49.6335C276.126 46.8126 276.925 43.2074 277.517 39.5609C276.277 40.6755 275.424 42.0102 274.143 42.9872C273.193 43.7165 271.471 44.5146 270.452 44.2944C269.268 44.033 268.001 42.7808 267.629 41.7625C267.092 40.2764 266.886 38.5426 267.299 37.0427C268.497 32.6119 270.039 28.2498 271.485 23.874C271.926 22.553 272.49 21.2733 273 19.9661C266.624 27.6168 262.521 35.818 263.237 45.1063C263.333 46.3035 263.788 47.5557 264.462 48.629C264.958 49.4271 265.688 50.0188 266.5 50.4178C266.845 50.0463 267.285 49.7711 267.822 49.5922C268.373 49.4133 268.869 49.3996 269.31 49.5647H269.296ZM1.69377 97.0518C1.65246 96.7766 1.63869 96.4601 1.63869 96.1023V95.1529C1.63869 91.3963 2.54754 86.8829 4.37902 81.6402C6.19672 76.3974 8.79934 70.6731 12.1731 64.4947C12.8892 63.3113 13.6741 62.7196 14.5554 62.7196C14.6793 62.7196 14.8033 62.7196 14.941 62.7471C15.0787 62.7609 15.2715 62.8159 15.5056 62.8985C16.263 63.2975 16.6348 63.9718 16.6348 64.9213C16.6348 65.2378 16.6072 65.5818 16.5521 65.9258C16.497 66.2836 16.3593 66.6964 16.1666 67.178C15.6846 68.21 15.1475 69.3246 14.5279 70.5355C13.9082 71.7464 13.2472 73.0537 12.5311 74.4847C11.8564 75.792 11.2505 77.1267 10.7134 78.4615C10.1764 79.81 9.74951 81.1723 9.43279 82.5621C9.07475 83.9519 8.89574 85.3417 8.89574 86.7177C8.89574 87.8323 9.01967 88.8506 9.25377 89.8138C9.73574 91.7953 11.278 93.3365 13.8944 94.4511C15.0787 94.6437 16.2492 94.7951 17.3784 94.8914C18.5075 94.9877 19.5954 95.0428 20.6144 95.0428C22.3633 95.0428 24.0984 94.8914 25.8197 94.6024C27.541 94.3135 29.2348 93.9007 30.901 93.3778C35.8997 91.6302 40.1548 89.3322 43.68 86.4838L40.3475 34.731L49.2708 20.4752C49.6702 19.8835 50.1934 19.6633 50.8406 19.8285C51.4879 19.9936 51.8597 20.4202 51.9423 21.1357L54.7928 67.0679C54.7928 67.1505 54.7928 67.2055 54.8203 67.2468C54.8479 67.2881 54.8479 67.3431 54.8479 67.4257C54.8892 67.6183 54.9029 67.8522 54.9029 68.1137V68.7329L55.0269 70.0401L54.9718 70.2741C54.9718 70.2741 54.9718 70.3154 54.9718 70.3291C59.7502 69.9025 63.7849 69.4347 67.0761 68.898C71.4964 68.1825 74.581 67.3981 76.3161 66.5175C77.2662 65.9258 78.1338 65.1965 78.9049 64.3433C79.6761 63.4902 80.282 62.5132 80.7226 61.3986C81.2321 60.6143 81.8105 60.2152 82.4439 60.2152C83.518 60.2152 84.0551 60.9032 84.0551 62.293C84.0551 62.7609 84.0413 63.1599 84 63.4764C83.9587 63.7929 83.9174 64.0131 83.8761 64.1232C83.7108 64.6048 83.5731 65.0176 83.4354 65.3754C83.2977 65.7331 83.1325 66.1322 82.9534 66.5588C82.7744 66.9991 82.5679 67.522 82.3338 68.1412C82.0997 68.7604 81.7829 69.531 81.3836 70.4942C82.2098 70.4117 82.9672 70.3153 83.642 70.1915C84.3167 70.0677 84.9915 69.9301 85.6662 69.7787C88.9574 65.9395 92.3449 62.1692 95.8288 58.4539C99.3128 54.7523 102.948 51.1196 106.708 47.5557C108.814 45.698 111.803 44.3908 115.686 43.6339C116.237 43.5101 116.732 43.4413 117.146 43.4C117.559 43.3587 117.972 43.345 118.371 43.345C121.346 43.345 123.742 44.432 125.559 46.6062C127.226 48.7115 128.052 50.8306 128.052 52.9635C128.052 54.3533 127.652 55.8807 126.868 57.5457V57.4907C125.119 60.9032 123.26 63.903 121.277 66.5175C118.426 70.3566 114.901 73.6041 110.715 76.2598C106.529 78.9156 101.957 81.1723 97.0131 83.03L90.1141 84.805C89.8249 84.8876 89.5495 84.9564 89.2741 85.0252C89.2741 85.2591 89.2328 85.4931 89.2328 85.7132C89.2328 87.3782 89.5908 88.6304 90.3069 89.4561C92.6066 92.387 96.4072 93.8731 101.723 93.9144C101.915 93.9557 102.081 93.9695 102.205 93.9695H102.618C107.768 93.9695 108.181 93.4878 114.13 91.988L128.575 88.3002C130.792 83.5116 133.133 79.1082 135.598 75.104C138.063 71.0997 140.693 67.4532 143.502 64.1782C146.945 60.0914 150.346 58.0548 153.665 58.0548C154.34 58.0548 154.987 58.1374 155.593 58.2888C156.212 58.4401 156.832 58.6878 157.466 59.0043C160.523 60.628 162.051 63.5452 162.051 67.7422C162.051 69.7649 161.734 71.9666 161.101 74.3334C160.109 77.0717 158.967 79.6587 157.686 82.1218C156.391 84.5711 154.946 86.9517 153.321 89.2496C152.357 90.6257 151.296 91.8917 150.209 93.1026C150.209 93.1026 150.222 93.1026 150.236 93.1026C152.494 93.6943 155.152 93.997 158.209 93.997H159.214C159.572 93.997 159.944 93.9832 160.344 93.9419C163.277 93.8594 165.136 93.5291 169.184 92.8962C172.475 92.4283 173.976 91.8779 176.868 91.1486C179.76 90.4193 181.33 89.8964 184.428 89.0157C184.938 87.8599 185.53 86.5251 186.177 85.0114C186.824 83.4978 187.609 81.6952 188.532 79.6311C189.647 77.1818 190.763 75.3379 191.892 74.0995C192.057 73.9206 192.236 73.7692 192.415 73.6041L190.074 34.3044L199.108 19.6909C199.507 19.0992 200.03 18.879 200.677 19.0441C201.325 19.2092 201.696 19.6358 201.779 20.3514L204.216 59.9263C204.216 60.2427 204.216 60.573 204.244 60.9032C204.258 61.2472 204.271 61.5913 204.271 61.949C204.271 62.3481 204.271 62.8297 204.244 63.4076C204.23 63.9856 204.216 64.5085 204.216 64.9763L199.245 71.6501C199.769 71.6226 200.306 71.6088 200.884 71.6088H202.22C202.674 71.6088 203.142 71.6226 203.61 71.6639C205.951 71.7877 207.618 72.3656 208.637 73.4114C209.642 74.4572 209.931 75.9709 209.504 77.9524C208.595 82.4245 207.618 85.672 206.585 87.6947C205.635 89.5524 204.203 91.6715 202.302 94.052C199.645 97.2582 195.637 100.134 190.294 102.666V102.611C187.678 103.877 184.979 105.033 182.211 106.051C179.43 107.083 177.956 107.716 174.954 108.5C171.938 109.299 170.589 109.89 167.711 110.427C164.833 110.964 163.621 111.321 160.812 111.569C159.311 111.734 157.824 111.83 156.35 111.899C154.877 111.954 153.458 111.982 152.068 111.982C151.035 111.982 150.029 111.968 149.038 111.927C148.047 111.885 147.096 111.83 146.188 111.748C144.329 111.555 142.621 110.95 141.079 109.959C139.33 108.844 138.421 107.111 138.338 104.73C138.655 103.519 138.958 102.363 139.275 101.235C138.256 101.703 137.14 102.184 135.873 102.652C133.877 103.409 131.536 104.18 128.892 104.964C126.151 105.762 123.397 106.491 120.63 107.166C117.848 107.84 116.127 108.267 113.317 108.817C110.577 109.326 110.109 109.643 107.272 110.083C104.435 110.523 103.403 110.95 100.662 111.225H100.717C97.5502 111.583 94.7961 111.762 92.4551 111.762C91.5875 111.762 90.8026 111.748 90.1003 111.707C89.4118 111.665 88.7646 111.61 88.1725 111.528C85.3908 111.129 83.2013 110.303 81.5764 109.037C79.9515 107.771 78.8774 106.12 78.3679 104.111C78.1751 103.327 78.0374 102.57 77.9823 101.854C77.9272 101.139 77.8997 100.423 77.8997 99.7213C77.8997 99.1709 77.941 98.5517 78.0236 97.8774C78.1062 97.2032 78.2026 96.5151 78.3266 95.8271C78.4505 95.1391 78.5882 94.4511 78.7397 93.7768C78.8911 93.1026 79.0564 92.4696 79.2216 91.8779C79.7587 90.1854 80.3784 88.4791 81.0669 86.759C80.158 86.9104 79.2629 87.0205 78.4092 87.103C77.5141 87.1856 76.6603 87.2269 75.8203 87.2269C74.8288 87.2269 73.9751 87.1718 73.259 87.048C71.3587 86.8141 70.202 86.0572 69.8164 84.7913C68.5082 85.2729 67.0348 85.6995 65.4098 86.0985C63.7849 86.4976 62.0223 86.8691 60.122 87.2269C59.0479 87.4195 57.9462 87.6122 56.7895 87.791C55.6328 87.9699 54.5036 88.1488 53.402 88.3277C52.6584 88.4516 51.9698 88.5341 51.2813 88.6304C49.7528 92.387 47.8525 95.951 45.5528 99.2947C41.0361 105.79 35.3489 110.289 28.4911 112.78C24.9246 114.046 21.6197 114.679 18.5626 114.679C15.781 114.679 13.1095 114.06 10.5344 112.835V112.89C8.04197 111.665 6.05902 109.698 4.58557 106.987C3.11213 104.276 2.16197 100.96 1.73508 97.038L1.69377 97.0518ZM138.504 83.0988C138.504 83.2914 138.559 83.5116 138.683 83.7455C138.875 84.1445 139.082 84.4748 139.275 84.7638C139.468 85.039 139.715 85.2729 139.991 85.4793C141.216 85.3555 142.442 85.1215 143.654 84.7362C144.866 84.3647 146.105 83.8556 147.372 83.2226C148.005 82.9061 148.322 82.3695 148.322 81.6126C148.322 80.9797 148.157 80.2641 147.84 79.4798C147.083 77.457 146.215 76.1085 145.224 75.4342C144.549 75.7094 143.957 76.0534 143.433 76.48C142.924 76.8928 142.456 77.3607 142.07 77.8836L138.917 82.0942C138.641 82.5346 138.504 82.8648 138.504 83.1125V83.0988ZM95.3606 68.0586C98.6931 67.3844 101.86 66.6276 104.876 65.8019C107.892 64.9763 110.701 63.9168 113.317 62.6508V62.5958C113.235 62.2793 113.097 61.8802 112.904 61.4124C112.353 60.5042 111.321 59.8024 109.806 59.3346C109.489 59.252 109.186 59.197 108.883 59.1557C108.58 59.1144 108.277 59.1006 107.961 59.1006C107.093 59.1006 106.253 59.2933 105.468 59.6923C103.568 60.7244 101.805 61.9765 100.18 63.4627C98.5554 64.9488 96.9443 66.49 95.3606 68.0724V68.0586ZM92.4551 69.9851C92.4551 69.9851 92.5102 70.0126 92.5377 70.0264C92.579 70.0264 92.5928 70.0264 92.6341 70.0539L92.4551 69.9989V69.9851ZM273.496 109.422C273.991 109.409 274.46 109.367 274.9 109.326C280.285 108.858 285.82 107.565 291.494 105.459C297.002 103.395 302.125 100.726 306.834 97.4371C311.668 94.0245 315.317 90.4881 317.768 86.8003C318.085 86.36 318.567 85.6307 319.228 84.5986C319.889 83.5666 320.605 82.4245 321.403 81.1585C321.761 80.6081 322.174 79.8651 322.656 78.9569C323.138 78.0487 323.689 77.0029 324.323 75.8057V75.8608L325.039 74.4985C325.521 73.549 325.975 72.5308 326.402 71.4712C326.843 70.3979 327.022 69.0769 326.939 67.4945C326.898 66.2698 326.361 65.2102 325.328 64.3433C323.786 63.1875 321.982 62.2793 319.944 61.605C318.704 61.1922 317.465 60.8344 316.226 60.5042C317.3 59.0043 318.36 57.3393 319.434 55.4541C320.66 53.2937 321.61 51.1884 322.285 49.1243L322.229 49.2482C323.662 45.643 324.364 41.7212 324.364 37.483C324.447 29.9561 322.119 23.874 317.41 19.2368C317.093 18.879 316.708 18.7414 316.253 18.824C315.799 18.9065 315.427 19.1542 315.151 19.5945L307.605 32.722C307.481 32.9146 307.44 33.1623 307.454 33.465C307.468 33.754 307.536 34.0154 307.66 34.2081C309.96 37.5794 311.53 40.5241 312.356 43.0698C312.99 44.6522 313.43 46.042 313.664 47.2254H313.609L314.077 49.3032C313.403 49.8536 312.687 50.3353 311.902 50.7618C311.13 51.1746 310.29 51.5599 309.368 51.9177C308.252 52.358 307.22 52.7433 306.242 53.1011C305.264 53.4589 304.342 53.7891 303.474 54.1056C303.35 54.1056 303.199 54.2019 303.006 54.4083C302.813 54.6147 302.675 54.7661 302.593 54.8762L301.767 56.8439C301.767 56.8439 301.753 56.9402 301.739 56.9815H301.656C301.34 56.8852 301.037 56.9265 300.734 57.0779C300.431 57.2292 300.21 57.4356 300.045 57.6695C299.536 58.5777 299.04 59.4997 298.586 60.4354C298.131 61.3711 297.69 62.2518 297.25 63.0774C295.818 65.7744 294.592 68.4164 293.559 71.0447V70.9896C292.527 73.2463 292.885 74.6361 294.633 75.1452L298.916 76.0947C301.532 76.6039 304.066 77.1543 306.504 77.7322C308.941 78.3101 311.254 78.9844 313.43 79.7825H313.375L313.609 79.9063C311.502 81.0622 309.423 82.1355 307.371 83.14C305.306 84.1445 303.212 85.0803 301.092 85.9334C298.971 86.7865 296.795 87.5434 294.551 88.2176C292.306 88.8919 289.979 89.4423 287.569 89.8826H287.624C284.608 90.433 281.593 90.7083 278.591 90.7083C278.04 90.7083 277.42 90.7083 276.746 90.6807C276.071 90.667 275.437 90.6257 274.845 90.5844C272.711 90.433 270.783 90.0753 269.075 89.5524C267.368 89.0157 265.922 88.2727 264.738 87.3232C262.039 85.2316 260.551 82.7685 260.276 79.9476C260.235 79.6311 260.207 79.3146 260.193 78.9982C260.18 78.6817 260.166 78.3239 260.166 77.9249C260.166 75.6681 260.565 73.2463 261.35 70.6731C261.901 69.0081 262.521 67.3706 263.195 65.7469C263.87 64.1232 264.641 62.5132 265.509 60.9308C266.418 59.2658 267.244 57.7383 267.974 56.321C268.704 54.9037 269.351 53.5965 269.902 52.3718H269.847C270.136 51.7526 270.287 51.2297 270.273 50.8306C268.979 51.1058 267.643 50.9407 266.514 50.3765C266.5 50.3903 266.487 50.4041 266.473 50.4178C265.523 51.7251 264.421 53.3763 263.168 55.3853C261.915 57.3806 260.607 59.6373 259.216 62.1279C257.825 64.5085 256.572 67.0679 255.443 69.82C254.313 72.5721 253.35 75.2553 252.565 77.8698C252.014 79.6862 251.587 81.5714 251.311 83.5116C251.036 85.4518 250.898 87.3094 250.898 89.0983C250.898 90.0065 250.912 90.8734 250.953 91.6852C250.995 92.4971 251.077 93.2952 251.188 94.0933C252.028 99.4874 255.195 103.726 260.703 106.808C263.87 108.555 267.685 109.422 272.119 109.422C272.559 109.422 273.014 109.422 273.509 109.395L273.496 109.422ZM11.581 45.753C12.1456 45.2302 12.6 44.8449 12.9443 44.5834C13.7705 43.978 15.2026 43.6752 17.2544 43.6752C18.0807 43.6752 19.0033 43.7165 20.0223 43.8128C23.5338 44.1568 25.558 44.5834 26.0951 45.0513L26.0538 45.2852C25.0348 46.4961 22.5974 48.0373 18.7416 49.9224C14.8859 51.8076 12.8479 53.0048 12.6138 53.5139L13.5639 53.6102C15.2577 53.4864 16.8275 53.2662 18.2734 52.9635C19.7193 52.6608 21.2341 52.1379 22.7902 51.4086C26.1639 49.8399 28.6839 47.4456 30.3502 44.1981C31.2452 42.4506 31.6859 40.9644 31.6859 39.7535C31.6859 38.7352 31.3829 37.9234 30.777 37.3179C29.7856 36.3272 27.2105 35.7217 23.0243 35.5016H21.2479C18.0944 35.5016 16.0977 35.9969 15.2715 36.9877C13.7154 38.9279 12.5036 40.9094 11.6636 42.9184C10.8236 44.9274 10.3967 46.1659 10.3967 46.6475L10.4931 46.6888C10.6584 46.5924 11.0164 46.2897 11.5672 45.753H11.581Z" fill="white"/>
<path d="M0.206543 198.521V157.529H16.0839L18.9895 174.619C19.0308 174.702 19.0997 175.225 19.1823 176.216C19.2649 177.206 19.3888 178.445 19.499 179.917L19.7331 182.077L19.8983 184.293L20.0636 182.077L20.2288 179.917C20.2977 178.775 20.3941 177.688 20.4905 176.67C20.5869 175.638 20.697 174.963 20.8072 174.619L23.7128 157.529H39.5901V198.521H29.9095V178.789L30.2538 172.927V167.01L29.9095 169.28L29.4 172.913L28.4911 178.775L24.7318 198.507H15.0511L11.2367 178.734L11.1265 178.28L10.3829 172.872L9.92851 169.913L9.52917 166.955L9.58425 172.885L9.80458 178.747V198.521H0.206543ZM42.8262 157.515H54.4072L56.4728 168.152L56.9272 171.564L57.1613 173.67V175.032L57.3265 173.271L57.5606 171.564L57.9049 168.496L57.96 168.152L60.0118 157.515H71.5102L62.4629 184.444V198.507H51.8734V184.444L42.8262 157.515ZM94.0938 198.521V157.529H104.738V171.399H108.608V157.529H119.252V198.521H108.608V182.036H104.738V198.521H94.0938ZM123.342 198.521L130.172 157.529H146.339L153.169 198.521H141.671L140.927 191.806H135.584L134.841 198.521H123.342ZM138.875 171.702L138.476 168.221L138.366 166.735L138.256 165.304L138.146 166.735L138.035 168.221L137.636 171.702L135.929 182.49H140.597L138.889 171.702H138.875ZM157.259 198.521V157.529H177.405L182.748 162.827V180.206L177.171 185.614H167.959V198.521H157.259ZM171.938 166.611H167.959V176.504H171.938V166.611ZM188.504 198.521V157.529H208.65L213.993 162.827V180.206L208.416 185.614H199.204V198.521H188.504ZM203.184 166.611H199.204V176.504H203.184V166.611ZM216.844 157.515H228.425L230.491 168.152L230.945 171.564L231.179 173.67V175.032L231.344 173.271L231.578 171.564L231.923 168.496L231.978 168.152L234.03 157.515H245.528L236.481 184.444V198.507H225.891V184.444L216.844 157.515ZM268.111 198.521V157.529H288.258L293.601 162.827V180.206L288.024 185.614H278.811V198.521H268.111ZM282.791 166.611H278.811V176.504H282.791V166.611ZM299.343 198.521V157.529H310.043V188.297H319.324V198.535H299.357L299.343 198.521ZM321.83 198.521L328.66 157.529H344.827L351.657 198.521H340.159L339.415 191.806H334.072L333.329 198.521H321.83ZM337.363 171.702L336.964 168.221L336.854 166.735L336.744 165.304L336.633 166.735L336.523 168.221L336.124 171.702L334.416 182.49H339.085L337.377 171.702H337.363ZM355.747 192.989V162.923L361.159 157.515H375.494L380.961 162.923V172.253L370.316 173.67V166.625H366.392V189.425H370.316V181.183L380.961 179.697V193.113L375.576 198.521H361.186L355.747 193.003V192.989ZM387.212 198.521V157.529H409.355V167.368H397.912V172.775H408.378V182.614H397.912V188.297H409.231V198.535H387.212V198.521Z" fill="white"/>
</g>
<defs>
<clipPath id="clip0_122_96">
<rect width="420" height="235" fill="white"/>
</clipPath>
</defs>
</svg>
